G04 start of page 2 for group 0 idx 0 *
G04 Title: (unknown), top *
G04 Creator: pcb 20140316 *
G04 CreationDate: чт, 19-тра-2016 10:05:25 +0000 UTC *
G04 For: root *
G04 Format: Gerber/RS-274X *
G04 PCB-Dimensions (mm): 170.00 40.05 *
G04 PCB-Coordinate-Origin: lower left *
%MOMM*%
%FSLAX43Y43*%
%LNTOP*%
%ADD18C,2.286*%
%ADD17C,0.711*%
%ADD16R,0.406X0.406*%
%ADD15C,0.406*%
%ADD14C,1.524*%
%ADD13C,0.002*%
%ADD12C,0.254*%
%ADD11C,0.354*%
G54D11*X80635Y18913D02*X82000Y17548D01*
X79500Y18253D02*X80295D01*
X81000Y17548D01*
X79500Y19548D02*X81000D01*
X79500Y18913D02*X80635D01*
X78000Y23548D02*Y35548D01*
X77500Y36048D01*
X75000Y35048D02*X76000Y36048D01*
X79500Y20208D02*X81340D01*
X75258Y18278D02*X76730D01*
X77500Y19048D01*
Y21548D01*
X75258Y20234D02*X74186D01*
X73460Y25588D02*X77500Y21548D01*
X73500Y19548D02*Y17048D01*
X74500Y16048D01*
X79500D01*
X80000Y15548D01*
X70500Y13548D02*Y34548D01*
X72000Y36048D01*
X71750Y15798D02*Y34298D01*
X72500Y35048D01*
X73460Y34016D02*Y25588D01*
X72500Y35048D02*X75000D01*
X58135Y18913D02*X59500Y17548D01*
X74186Y20234D02*X73500Y19548D01*
X58500D02*X60500Y17548D01*
X68500Y12843D02*X67295D01*
X57000Y18253D02*X57795D01*
X57000Y16048D02*X57500Y15548D01*
X57795Y18253D02*X58500Y17548D01*
X57000Y19548D02*X58500D01*
X57000Y20208D02*X58840D01*
X61500Y17548D02*X55500Y23548D01*
X57000Y18913D02*X58135D01*
X107500Y17548D02*Y5048D01*
Y48D02*Y5548D01*
X106500Y17548D02*Y48D01*
X105500Y17548D02*Y48D01*
X104500Y17548D02*Y48D01*
X103500Y15548D02*Y48D01*
X103000Y18913D02*X104135D01*
X101000Y10048D02*Y48D01*
X100000Y10048D02*Y48D01*
X99000Y10048D02*Y48D01*
X98000Y10048D02*Y48D01*
X97000Y8548D02*Y48D01*
X98500Y12548D02*X95250Y15798D01*
X96500Y9048D02*X97000Y8548D01*
X96242Y10862D02*X97186D01*
X96242Y11523D02*X97525D01*
X96242Y12158D02*X97890D01*
X96242Y12818D02*X98230D01*
X97186Y10862D02*X98000Y10048D01*
X97525Y11523D02*X99000Y10048D01*
X97890Y12158D02*X100000Y10048D01*
X98230Y12818D02*X101000Y10048D01*
X93340Y10888D02*X94000Y11548D01*
X92000Y12843D02*X90795D01*
X91000Y9048D02*X96500D01*
X92000Y10888D02*X93340D01*
X90795Y12843D02*X90500Y12548D01*
Y9548D01*
X91000Y9048D01*
X72742Y10862D02*X73686D01*
X74500Y10048D01*
X72742Y11523D02*X74025D01*
X75500Y10048D01*
X72742Y12158D02*X74390D01*
X76500Y10048D01*
X72742Y12818D02*X74730D01*
X75000Y12548D02*X71750Y15798D01*
X74730Y12818D02*X77500Y10048D01*
X69840Y10888D02*X70500Y11548D01*
X67295Y12843D02*X67000Y12548D01*
Y9548D01*
X68500Y10888D02*X69840D01*
X67000Y9548D02*X67500Y9048D01*
X70500Y11548D02*Y14048D01*
X67500Y9048D02*X73000D01*
X73500Y8548D01*
X81000Y19548D02*X83000Y17548D01*
X84000D02*Y5048D01*
Y48D02*Y5548D01*
X83000Y17548D02*Y48D01*
X82000Y17548D02*Y48D01*
X81000Y17548D02*Y48D01*
X80000Y15548D02*Y48D01*
X77500Y10048D02*Y48D01*
X76500Y10048D02*Y48D01*
X75500Y10048D02*Y48D01*
X74500Y10048D02*Y48D01*
X73500Y8548D02*Y48D01*
X61500Y17548D02*Y5048D01*
Y48D02*Y5548D01*
X60500Y17548D02*Y48D01*
X59500Y17548D02*Y48D01*
X58500Y17548D02*Y48D01*
X57500Y15548D02*Y48D01*
X55000Y10048D02*Y48D01*
X54000Y10048D02*Y48D01*
X53000Y10048D02*Y48D01*
X52000Y10048D02*Y48D01*
X51000Y8548D02*Y48D01*
X55500Y23548D02*Y35548D01*
X55000Y36048D01*
X50000Y35048D02*X52500D01*
X53500Y36048D01*
X55000D02*X53500D01*
X50960Y34016D02*Y25588D01*
X48000Y34548D02*X49500Y36048D01*
X50960D01*
X49250Y34298D02*X50000Y35048D01*
X50960Y25588D02*X55000Y21548D01*
X48000Y13548D02*Y34548D01*
X49250Y15798D02*Y34298D01*
X50242Y10862D02*X51186D01*
X50242Y11523D02*X51525D01*
X50242Y12158D02*X51890D01*
X50242Y12818D02*X52230D01*
X52500Y12548D02*X49250Y15798D01*
X51186Y10862D02*X52000Y10048D01*
X51525Y11523D02*X53000Y10048D01*
X51890Y12158D02*X54000Y10048D01*
X52230Y12818D02*X55000Y10048D01*
X52758Y18278D02*X54230D01*
X55000Y19048D01*
Y21548D01*
X52758Y20234D02*X51686D01*
X51000Y19548D01*
Y17048D01*
X52000Y16048D01*
X57000D01*
X47340Y10888D02*X48000Y11548D01*
X45000Y9048D02*X50500D01*
X46000Y10888D02*X47340D01*
X48000Y11548D02*Y14048D01*
X50500Y9048D02*X51000Y8548D01*
X46000Y12843D02*X44795D01*
X44500Y12548D01*
Y9548D01*
X45000Y9048D01*
X31500Y23548D02*Y35548D01*
X31000Y36048D01*
X29500D01*
X26960Y34016D02*Y25588D01*
X26000Y35048D02*X28500D01*
X29500Y36048D01*
X24000Y34548D02*X25500Y36048D01*
X25250Y34298D02*X26000Y35048D01*
X25500Y36048D02*X26960D01*
Y25588D02*X31000Y21548D01*
X34135Y18913D02*X35500Y17548D01*
X33795Y18253D02*X34500Y17548D01*
Y19548D02*X36500Y17548D01*
X28758Y18278D02*X30230D01*
X28758Y20234D02*X27686D01*
X27000Y19548D01*
Y17048D01*
X28000Y16048D01*
X30230Y18278D02*X31000Y19048D01*
Y21548D01*
X28000Y16048D02*X33000D01*
X37500Y17548D02*X31500Y23548D01*
X33000Y18253D02*X33795D01*
X33000Y19548D02*X34500D01*
X33000Y20208D02*X34840D01*
X33000Y18913D02*X34135D01*
X24000Y13548D02*Y34548D01*
X25250Y15798D02*Y34298D01*
X23340Y10888D02*X24000Y11548D01*
X22000Y10888D02*X23340D01*
X24000Y11548D02*Y14048D01*
X22000Y12843D02*X20795D01*
X20500Y12548D01*
Y9548D01*
X21000Y9048D01*
X26500D01*
X26242Y10862D02*X27186D01*
X28000Y10048D01*
X26242Y11523D02*X27525D01*
X29000Y10048D01*
X26242Y12158D02*X27890D01*
X30000Y10048D01*
X26242Y12818D02*X28230D01*
X28500Y12548D02*X25250Y15798D01*
X28230Y12818D02*X31000Y10048D01*
X26500Y9048D02*X27000Y8548D01*
X37500Y17548D02*Y5048D01*
Y48D02*Y5548D01*
X36500Y17548D02*Y48D01*
X35500Y17548D02*Y48D01*
X34500Y17548D02*Y48D01*
X33000Y16048D02*X33500Y15548D01*
Y48D01*
X31000Y10048D02*Y48D01*
X30000Y10048D02*Y48D01*
X29000Y10048D02*Y48D01*
X28000Y10048D02*Y48D01*
X27000Y8548D02*Y48D01*
X143000Y35048D02*X145500D01*
X146500Y36048D01*
X141000Y34548D02*X142500Y36048D01*
X143960D01*
X142250Y34298D02*X143000Y35048D01*
X124500Y23548D02*Y35548D01*
X124000Y36048D01*
X122500D01*
X119960Y34016D02*Y25588D01*
X119000Y35048D02*X121500D01*
X122500Y36048D01*
X148500Y23548D02*Y35548D01*
X148000Y36048D01*
X146500D01*
X147000D01*
X143960Y34016D02*Y25588D01*
X148000Y21548D01*
X141000Y13548D02*Y34548D01*
X142250Y15798D02*Y34298D01*
X145500Y12548D02*X142250Y15798D01*
X119242Y10862D02*X120186D01*
X121000Y10048D01*
X119242Y11523D02*X120525D01*
X122000Y10048D01*
X119242Y12158D02*X120890D01*
X123000Y10048D01*
X119242Y12818D02*X121230D01*
X124000Y10048D01*
X119500Y9048D02*X120000Y8548D01*
X126000Y18253D02*X126795D01*
X126000Y19548D02*X127500D01*
X129500Y17548D01*
X126000Y20208D02*X127840D01*
X124000Y19048D02*Y21548D01*
X126000Y18913D02*X127135D01*
X126795Y18253D02*X127500Y17548D01*
X123230Y18278D02*X124000Y19048D01*
X121758Y18278D02*X123230D01*
X121758Y20234D02*X120686D01*
X120000Y19548D01*
Y17048D01*
X121000Y16048D01*
X126000D01*
X126500Y15548D01*
X130500Y17548D02*X124500Y23548D01*
X119960Y25588D02*X124000Y21548D01*
X130500Y17548D02*Y5048D01*
Y48D02*Y5548D01*
X129500Y17548D02*Y48D01*
X128500Y17548D02*Y48D01*
X127500Y17548D02*Y48D01*
X126500Y15548D02*Y48D01*
X124000Y10048D02*Y48D01*
X123000Y10048D02*Y48D01*
X122000Y10048D02*Y48D01*
X121000Y10048D02*Y48D01*
X120000Y8548D02*Y48D01*
X117000Y13548D02*Y34548D01*
X118250Y15798D02*Y34298D01*
X117000Y34548D02*X118500Y36048D01*
X118250Y34298D02*X119000Y35048D01*
X121500Y12548D02*X118250Y15798D01*
X127135Y18913D02*X128500Y17548D01*
X104135Y18913D02*X105500Y17548D01*
X104500Y19548D02*X106500Y17548D01*
X118500Y36048D02*X119960D01*
X101000D02*X99500D01*
X77500D02*X76000D01*
X72000D02*X73460D01*
X101500Y23548D02*Y35548D01*
X101000Y36048D01*
X96960Y34016D02*Y25588D01*
X96000Y35048D02*X98500D01*
X99500Y36048D01*
X94000Y34548D02*X95500Y36048D01*
X96960D01*
X95250Y34298D02*X96000Y35048D01*
X94000Y13548D02*Y34548D01*
X95250Y15798D02*Y34298D01*
X94000Y11548D02*Y14048D01*
X98758Y18278D02*X100230D01*
X101000Y19048D01*
Y21548D01*
X84000Y17548D02*X78000Y23548D01*
X96960Y25588D02*X101000Y21548D01*
X103000Y18253D02*X103795D01*
X104500Y17548D01*
X103000Y19548D02*X104500D01*
X103000Y16048D02*X103500Y15548D01*
X103000Y20208D02*X104840D01*
X98758Y20234D02*X97686D01*
X97000Y19548D01*
Y17048D01*
X98000Y16048D01*
X103000D01*
X107500Y17548D02*X101500Y23548D01*
X116340Y10888D02*X117000Y11548D01*
Y14048D01*
X115000Y10888D02*X116340D01*
X114000Y9048D02*X119500D01*
X115000Y12843D02*X113795D01*
X113500Y12548D01*
Y9548D01*
X114000Y9048D01*
X150000Y18913D02*X151135D01*
X150000Y19548D02*X151500D01*
X150000Y20208D02*X151840D01*
X148000Y19048D02*Y21548D01*
X154500Y17548D02*X148500Y23548D01*
X150000Y18253D02*X150795D01*
X151500Y17548D01*
X151135Y18913D02*X152500Y17548D01*
X151500Y19548D02*X153500Y17548D01*
X145758Y18278D02*X147230D01*
X148000Y19048D01*
X145758Y20234D02*X144686D01*
X144000Y19548D01*
Y17048D01*
X145000Y16048D01*
X150000D01*
X150500Y15548D01*
X137500Y9548D02*X138000Y9048D01*
X137500Y12548D02*Y9548D01*
X143242Y12158D02*X144890D01*
X143242Y12818D02*X145230D01*
X141000Y11548D02*Y14048D01*
X143500Y9048D02*X144000Y8548D01*
X143242Y10862D02*X144186D01*
X145000Y10048D01*
X143242Y11523D02*X144525D01*
X140340Y10888D02*X141000Y11548D01*
X139000Y10888D02*X140340D01*
X144525Y11523D02*X146000Y10048D01*
X144890Y12158D02*X147000Y10048D01*
X145230Y12818D02*X148000Y10048D01*
X139000Y12843D02*X137795D01*
X137500Y12548D01*
X138000Y9048D02*X143500D01*
X154500Y17548D02*Y5048D01*
Y48D02*Y5548D01*
X153500Y17548D02*Y48D01*
X152500Y17548D02*Y48D01*
X151500Y17548D02*Y48D01*
X150500Y15548D02*Y48D01*
X148000Y10048D02*Y48D01*
X147000Y10048D02*Y48D01*
X146000Y10048D02*Y48D01*
X145000Y10048D02*Y48D01*
X144000Y8548D02*Y48D01*
G54D12*X97627Y22794D02*Y21778D01*
X97957Y22794D02*X98135Y22616D01*
Y21956D01*
X97957Y21778D02*X98135Y21956D01*
X97500Y21778D02*X97957D01*
X97500Y22794D02*X97957D01*
X98440Y22286D02*X98948D01*
X91627Y15294D02*Y14278D01*
X91957Y15294D02*X92135Y15116D01*
Y14456D01*
X91957Y14278D02*X92135Y14456D01*
X91500Y14278D02*X91957D01*
X91500Y15294D02*X91957D01*
X92440Y14786D02*X92948D01*
X92694Y15040D02*Y14532D01*
X74127Y22794D02*Y21778D01*
X74457Y22794D02*X74635Y22616D01*
Y21956D01*
X74457Y21778D02*X74635Y21956D01*
X74000Y21778D02*X74457D01*
X74000Y22794D02*X74457D01*
X74940Y22286D02*X75448D01*
X68127Y15294D02*Y14278D01*
X68457Y15294D02*X68635Y15116D01*
Y14456D01*
X68457Y14278D02*X68635Y14456D01*
X68000Y14278D02*X68457D01*
X68000Y15294D02*X68457D01*
X68940Y14786D02*X69448D01*
X69194Y15040D02*Y14532D01*
X144627Y22794D02*Y21778D01*
X144957Y22794D02*X145135Y22616D01*
Y21956D01*
X144957Y21778D02*X145135Y21956D01*
X144500Y21778D02*X144957D01*
X144500Y22794D02*X144957D01*
X145440Y22286D02*X145948D01*
X138627Y15294D02*Y14278D01*
X138957Y15294D02*X139135Y15116D01*
Y14456D01*
X138957Y14278D02*X139135Y14456D01*
X138500Y14278D02*X138957D01*
X138500Y15294D02*X138957D01*
X139440Y14786D02*X139948D01*
X139694Y15040D02*Y14532D01*
X120627Y22794D02*Y21778D01*
X120957Y22794D02*X121135Y22616D01*
Y21956D01*
X120957Y21778D02*X121135Y21956D01*
X120500Y21778D02*X120957D01*
X120500Y22794D02*X120957D01*
X121440Y22286D02*X121948D01*
X114627Y15294D02*Y14278D01*
X114957Y15294D02*X115135Y15116D01*
Y14456D01*
X114957Y14278D02*X115135Y14456D01*
X114500Y14278D02*X114957D01*
X114500Y15294D02*X114957D01*
X115440Y14786D02*X115948D01*
X115694Y15040D02*Y14532D01*
X51627Y22794D02*Y21778D01*
X51957Y22794D02*X52135Y22616D01*
Y21956D01*
X51957Y21778D02*X52135Y21956D01*
X51500Y21778D02*X51957D01*
X51500Y22794D02*X51957D01*
X52440Y22286D02*X52948D01*
X45627Y15294D02*Y14278D01*
X45957Y15294D02*X46135Y15116D01*
Y14456D01*
X45957Y14278D02*X46135Y14456D01*
X45500Y14278D02*X45957D01*
X45500Y15294D02*X45957D01*
X46440Y14786D02*X46948D01*
X46694Y15040D02*Y14532D01*
X21627Y15294D02*Y14278D01*
X21957Y15294D02*X22135Y15116D01*
Y14456D01*
X21957Y14278D02*X22135Y14456D01*
X21500Y14278D02*X21957D01*
X21500Y15294D02*X21957D01*
X22440Y14786D02*X22948D01*
X22694Y15040D02*Y14532D01*
X27627Y22794D02*Y21778D01*
X27957Y22794D02*X28135Y22616D01*
Y21956D01*
X27957Y21778D02*X28135Y21956D01*
X27500Y21778D02*X27957D01*
X27500Y22794D02*X27957D01*
X28440Y22286D02*X28948D01*
G54D13*G36*
X145738Y36810D02*Y35286D01*
X147262D01*
Y36810D01*
X145738D01*
G37*
G54D14*X143960Y36048D03*
Y34016D03*
X146500D03*
G54D13*G36*
X75338Y36810D02*Y35286D01*
X76862D01*
Y36810D01*
X75338D01*
G37*
G54D14*X73560Y36048D03*
Y34016D03*
X73460D03*
X76100D03*
X76000D03*
G54D13*G36*
X75238Y36810D02*Y35286D01*
X76762D01*
Y36810D01*
X75238D01*
G37*
G54D14*X73460Y36048D03*
G54D13*G36*
X52738Y36810D02*Y35286D01*
X54262D01*
Y36810D01*
X52738D01*
G37*
G54D14*X50960Y36048D03*
G54D13*G36*
X28738Y36810D02*Y35286D01*
X30262D01*
Y36810D01*
X28738D01*
G37*
G54D14*X26960Y36048D03*
Y34016D03*
X29500D03*
X50960D03*
X53500D03*
X122500D03*
D03*
D03*
D03*
X119960D03*
D03*
D03*
D03*
G54D13*G36*
X121738Y36810D02*Y35286D01*
X123262D01*
Y36810D01*
X121738D01*
G37*
G36*
Y35286D01*
X123262D01*
Y36810D01*
X121738D01*
G37*
G36*
Y35286D01*
X123262D01*
Y36810D01*
X121738D01*
G37*
G36*
Y35286D01*
X123262D01*
Y36810D01*
X121738D01*
G37*
G54D14*X119960Y36048D03*
D03*
D03*
D03*
G54D13*G36*
X98738Y36810D02*Y35286D01*
X100262D01*
Y36810D01*
X98738D01*
G37*
G54D14*X96960Y36048D03*
Y34016D03*
X99500D03*
G54D15*X98479Y20234D02*X99038D01*
G54D16*X98479Y19573D02*X99038D01*
X98479Y18938D02*X99038D01*
X98479Y18278D02*X99038D01*
X102721Y18253D02*X103279D01*
X102721Y18913D02*X103279D01*
X102721Y19548D02*X103279D01*
X102721Y20208D02*X103279D01*
G54D15*X91721Y12843D02*X92279D01*
G54D16*X91721Y12183D02*X92279D01*
X91721Y11548D02*X92279D01*
X91721Y10888D02*X92279D01*
X95962Y10862D02*X96521D01*
X95962Y11523D02*X96521D01*
X95962Y12158D02*X96521D01*
X95962Y12818D02*X96521D01*
X149721Y18253D02*X150279D01*
X149721Y18913D02*X150279D01*
X149721Y19548D02*X150279D01*
G54D15*X145479Y20234D02*X146038D01*
G54D16*X145479Y19573D02*X146038D01*
X145479Y18938D02*X146038D01*
X145479Y18278D02*X146038D01*
X149721Y20208D02*X150279D01*
G54D15*X138721Y12843D02*X139279D01*
G54D16*X138721Y12183D02*X139279D01*
X138721Y11548D02*X139279D01*
X138721Y10888D02*X139279D01*
X142962Y10862D02*X143521D01*
X142962Y11523D02*X143521D01*
X142962Y12158D02*X143521D01*
X142962Y12818D02*X143521D01*
G54D15*X74979Y20234D02*X75538D01*
G54D16*X74979Y19573D02*X75538D01*
X74979Y18938D02*X75538D01*
X74979Y18278D02*X75538D01*
X79221Y18253D02*X79779D01*
X79221Y18913D02*X79779D01*
X79221Y19548D02*X79779D01*
X79221Y20208D02*X79779D01*
G54D15*X68221Y12843D02*X68779D01*
G54D16*X68221Y12183D02*X68779D01*
X68221Y11548D02*X68779D01*
X68221Y10888D02*X68779D01*
X72462Y10862D02*X73021D01*
X72462Y11523D02*X73021D01*
X72462Y12158D02*X73021D01*
X72462Y12818D02*X73021D01*
G54D15*X121479Y20234D02*X122038D01*
G54D16*X121479Y19573D02*X122038D01*
X121479Y18938D02*X122038D01*
X121479Y18278D02*X122038D01*
X125721Y18253D02*X126279D01*
X125721Y18913D02*X126279D01*
X125721Y19548D02*X126279D01*
X125721Y20208D02*X126279D01*
G54D15*X114721Y12843D02*X115279D01*
G54D16*X114721Y12183D02*X115279D01*
X114721Y11548D02*X115279D01*
X114721Y10888D02*X115279D01*
X118962Y10862D02*X119521D01*
X118962Y11523D02*X119521D01*
X118962Y12158D02*X119521D01*
X118962Y12818D02*X119521D01*
G54D15*X52479Y20234D02*X53038D01*
G54D16*X52479Y19573D02*X53038D01*
X52479Y18938D02*X53038D01*
X52479Y18278D02*X53038D01*
X56721Y18253D02*X57279D01*
X56721Y18913D02*X57279D01*
X56721Y19548D02*X57279D01*
X56721Y20208D02*X57279D01*
G54D15*X45721Y12843D02*X46279D01*
G54D16*X45721Y12183D02*X46279D01*
X45721Y11548D02*X46279D01*
X45721Y10888D02*X46279D01*
X49962Y10862D02*X50521D01*
X49962Y11523D02*X50521D01*
X49962Y12158D02*X50521D01*
X49962Y12818D02*X50521D01*
G54D15*X28479Y20234D02*X29038D01*
G54D16*X28479Y19573D02*X29038D01*
X28479Y18938D02*X29038D01*
X28479Y18278D02*X29038D01*
X32721Y18253D02*X33279D01*
X32721Y18913D02*X33279D01*
X32721Y19548D02*X33279D01*
X32721Y20208D02*X33279D01*
G54D15*X21721Y12843D02*X22279D01*
G54D16*X21721Y12183D02*X22279D01*
X21721Y11548D02*X22279D01*
X21721Y10888D02*X22279D01*
X25962Y10862D02*X26521D01*
X25962Y11523D02*X26521D01*
X25962Y12158D02*X26521D01*
X25962Y12818D02*X26521D01*
G54D17*G54D18*G54D17*G54D18*G54D17*G54D18*G54D17*G54D18*G54D17*G54D18*G54D17*G54D18*G54D17*G54D18*G54D17*G54D18*M02*
