G04 start of page 16 for group -4015 idx -4015 *
G04 Title: (unknown), toppaste *
G04 Creator: pcb 20140316 *
G04 CreationDate: пн, 30-тра-2016 12:43:38 +0000 UTC *
G04 For: root *
G04 Format: Gerber/RS-274X *
G04 PCB-Dimensions (mm): 170.00 40.05 *
G04 PCB-Coordinate-Origin: lower left *
%MOMM*%
%FSLAX43Y43*%
%LNTOPPASTE*%
%ADD57R,0.406X0.406*%
%ADD56C,0.406*%
G54D56*X145479Y20234D02*X146038D01*
G54D57*X145479Y19573D02*X146038D01*
X145479Y18938D02*X146038D01*
X145479Y18278D02*X146038D01*
X149721Y18253D02*X150279D01*
X149721Y18913D02*X150279D01*
X149721Y19548D02*X150279D01*
X149721Y20208D02*X150279D01*
G54D56*X138721Y12843D02*X139279D01*
G54D57*X138721Y12183D02*X139279D01*
X138721Y11548D02*X139279D01*
X138721Y10888D02*X139279D01*
X142962Y10862D02*X143521D01*
X142962Y11523D02*X143521D01*
X142962Y12158D02*X143521D01*
X142962Y12818D02*X143521D01*
G54D56*X98479Y20234D02*X99038D01*
G54D57*X98479Y19573D02*X99038D01*
X98479Y18938D02*X99038D01*
X98479Y18278D02*X99038D01*
X102721Y18253D02*X103279D01*
X102721Y18913D02*X103279D01*
X102721Y19548D02*X103279D01*
X102721Y20208D02*X103279D01*
G54D56*X91721Y12843D02*X92279D01*
G54D57*X91721Y12183D02*X92279D01*
X91721Y11548D02*X92279D01*
X91721Y10888D02*X92279D01*
X95962Y10862D02*X96521D01*
X95962Y11523D02*X96521D01*
X95962Y12158D02*X96521D01*
X95962Y12818D02*X96521D01*
G54D56*X121479Y20234D02*X122038D01*
G54D57*X121479Y19573D02*X122038D01*
X121479Y18938D02*X122038D01*
X121479Y18278D02*X122038D01*
X125721Y18253D02*X126279D01*
X125721Y18913D02*X126279D01*
X125721Y19548D02*X126279D01*
X125721Y20208D02*X126279D01*
G54D56*X114721Y12843D02*X115279D01*
G54D57*X114721Y12183D02*X115279D01*
X114721Y11548D02*X115279D01*
X114721Y10888D02*X115279D01*
X118962Y10862D02*X119521D01*
X118962Y11523D02*X119521D01*
X118962Y12158D02*X119521D01*
X118962Y12818D02*X119521D01*
G54D56*X52479Y20234D02*X53038D01*
G54D57*X52479Y19573D02*X53038D01*
X52479Y18938D02*X53038D01*
X52479Y18278D02*X53038D01*
X56721Y18253D02*X57279D01*
X56721Y18913D02*X57279D01*
X56721Y19548D02*X57279D01*
X56721Y20208D02*X57279D01*
G54D56*X45721Y12843D02*X46279D01*
G54D57*X45721Y12183D02*X46279D01*
X45721Y11548D02*X46279D01*
X45721Y10888D02*X46279D01*
X49962Y10862D02*X50521D01*
X49962Y11523D02*X50521D01*
X49962Y12158D02*X50521D01*
X49962Y12818D02*X50521D01*
G54D56*X29479Y20234D02*X30038D01*
G54D57*X29479Y19573D02*X30038D01*
X29479Y18938D02*X30038D01*
X29479Y18278D02*X30038D01*
X33721Y18253D02*X34279D01*
X33721Y18913D02*X34279D01*
X33721Y19548D02*X34279D01*
X33721Y20208D02*X34279D01*
G54D56*X22721Y12843D02*X23279D01*
G54D57*X22721Y12183D02*X23279D01*
X22721Y11548D02*X23279D01*
X22721Y10888D02*X23279D01*
X26962Y10862D02*X27521D01*
X26962Y11523D02*X27521D01*
X26962Y12158D02*X27521D01*
X26962Y12818D02*X27521D01*
G54D56*X75479Y20234D02*X76038D01*
G54D57*X75479Y19573D02*X76038D01*
X75479Y18938D02*X76038D01*
X75479Y18278D02*X76038D01*
X79721Y18253D02*X80279D01*
X79721Y18913D02*X80279D01*
X79721Y19548D02*X80279D01*
X79721Y20208D02*X80279D01*
G54D56*X68721Y12843D02*X69279D01*
G54D57*X68721Y12183D02*X69279D01*
X68721Y11548D02*X69279D01*
X68721Y10888D02*X69279D01*
X72962Y10862D02*X73521D01*
X72962Y11523D02*X73521D01*
X72962Y12158D02*X73521D01*
X72962Y12818D02*X73521D01*
M02*
