G04 start of page 12 for group -4063 idx -4063 *
G04 Title: (unknown), componentmask *
G04 Creator: pcb 20140316 *
G04 CreationDate: чт, 19-тра-2016 10:05:25 +0000 UTC *
G04 For: root *
G04 Format: Gerber/RS-274X *
G04 PCB-Dimensions (mm): 170.00 40.05 *
G04 PCB-Coordinate-Origin: lower left *
%MOMM*%
%FSLAX43Y43*%
%LNTOPMASK*%
%ADD51R,0.559X0.559*%
%ADD50C,0.559*%
%ADD49C,2.438*%
%ADD48C,1.676*%
%ADD47C,0.002*%
%ADD46C,0.254*%
G54D46*X0Y40048D02*Y0D01*
Y40048D02*X170000D01*
X0Y0D02*X170000D01*
Y40048D02*Y0D01*
G54D47*G36*
X145662Y36886D02*Y35210D01*
X147338D01*
Y36886D01*
X145662D01*
G37*
G54D48*X143960Y36048D03*
Y34016D03*
X146500D03*
G54D49*X139134Y31222D03*
X151326D03*
G54D47*G36*
X75262Y36886D02*Y35210D01*
X76938D01*
Y36886D01*
X75262D01*
G37*
G54D48*X73560Y36048D03*
Y34016D03*
X73460D03*
X76100D03*
G54D49*X80926Y31222D03*
G54D48*X76000Y34016D03*
G54D49*X80826Y31222D03*
G54D47*G36*
X75162Y36886D02*Y35210D01*
X76838D01*
Y36886D01*
X75162D01*
G37*
G54D48*X73460Y36048D03*
G54D49*X68734Y31222D03*
X68634D03*
X58326D03*
X22134D03*
X34326D03*
G54D47*G36*
X52662Y36886D02*Y35210D01*
X54338D01*
Y36886D01*
X52662D01*
G37*
G54D48*X50960Y36048D03*
G54D47*G36*
X28662Y36886D02*Y35210D01*
X30338D01*
Y36886D01*
X28662D01*
G37*
G54D48*X26960Y36048D03*
Y34016D03*
X29500D03*
X50960D03*
G54D49*X46134Y31222D03*
G54D48*X53500Y34016D03*
X122500D03*
D03*
D03*
D03*
X119960D03*
D03*
D03*
D03*
G54D49*X127326Y31222D03*
D03*
D03*
D03*
G54D47*G36*
X121662Y36886D02*Y35210D01*
X123338D01*
Y36886D01*
X121662D01*
G37*
G36*
Y35210D01*
X123338D01*
Y36886D01*
X121662D01*
G37*
G36*
Y35210D01*
X123338D01*
Y36886D01*
X121662D01*
G37*
G36*
Y35210D01*
X123338D01*
Y36886D01*
X121662D01*
G37*
G54D48*X119960Y36048D03*
D03*
D03*
D03*
G54D49*X115134Y31222D03*
D03*
D03*
D03*
G54D47*G36*
X98662Y36886D02*Y35210D01*
X100338D01*
Y36886D01*
X98662D01*
G37*
G54D48*X96960Y36048D03*
Y34016D03*
X99500D03*
G54D49*X92134Y31222D03*
X104326D03*
G54D50*X98479Y20234D02*X99038D01*
G54D51*X98479Y19573D02*X99038D01*
X98479Y18938D02*X99038D01*
X98479Y18278D02*X99038D01*
X102721Y18253D02*X103279D01*
X102721Y18913D02*X103279D01*
X102721Y19548D02*X103279D01*
X102721Y20208D02*X103279D01*
G54D50*X91721Y12843D02*X92279D01*
G54D51*X91721Y12183D02*X92279D01*
X91721Y11548D02*X92279D01*
X91721Y10888D02*X92279D01*
X95962Y10862D02*X96521D01*
X95962Y11523D02*X96521D01*
X95962Y12158D02*X96521D01*
X95962Y12818D02*X96521D01*
X149721Y18253D02*X150279D01*
X149721Y18913D02*X150279D01*
X149721Y19548D02*X150279D01*
G54D50*X145479Y20234D02*X146038D01*
G54D51*X145479Y19573D02*X146038D01*
X145479Y18938D02*X146038D01*
X145479Y18278D02*X146038D01*
X149721Y20208D02*X150279D01*
G54D50*X138721Y12843D02*X139279D01*
G54D51*X138721Y12183D02*X139279D01*
X138721Y11548D02*X139279D01*
X138721Y10888D02*X139279D01*
X142962Y10862D02*X143521D01*
X142962Y11523D02*X143521D01*
X142962Y12158D02*X143521D01*
X142962Y12818D02*X143521D01*
G54D50*X74979Y20234D02*X75538D01*
G54D51*X74979Y19573D02*X75538D01*
X74979Y18938D02*X75538D01*
X74979Y18278D02*X75538D01*
X79221Y18253D02*X79779D01*
X79221Y18913D02*X79779D01*
X79221Y19548D02*X79779D01*
X79221Y20208D02*X79779D01*
G54D50*X68221Y12843D02*X68779D01*
G54D51*X68221Y12183D02*X68779D01*
X68221Y11548D02*X68779D01*
X68221Y10888D02*X68779D01*
X72462Y10862D02*X73021D01*
X72462Y11523D02*X73021D01*
X72462Y12158D02*X73021D01*
X72462Y12818D02*X73021D01*
G54D50*X121479Y20234D02*X122038D01*
G54D51*X121479Y19573D02*X122038D01*
X121479Y18938D02*X122038D01*
X121479Y18278D02*X122038D01*
X125721Y18253D02*X126279D01*
X125721Y18913D02*X126279D01*
X125721Y19548D02*X126279D01*
X125721Y20208D02*X126279D01*
G54D50*X114721Y12843D02*X115279D01*
G54D51*X114721Y12183D02*X115279D01*
X114721Y11548D02*X115279D01*
X114721Y10888D02*X115279D01*
X118962Y10862D02*X119521D01*
X118962Y11523D02*X119521D01*
X118962Y12158D02*X119521D01*
X118962Y12818D02*X119521D01*
G54D50*X52479Y20234D02*X53038D01*
G54D51*X52479Y19573D02*X53038D01*
X52479Y18938D02*X53038D01*
X52479Y18278D02*X53038D01*
X56721Y18253D02*X57279D01*
X56721Y18913D02*X57279D01*
X56721Y19548D02*X57279D01*
X56721Y20208D02*X57279D01*
G54D50*X45721Y12843D02*X46279D01*
G54D51*X45721Y12183D02*X46279D01*
X45721Y11548D02*X46279D01*
X45721Y10888D02*X46279D01*
X49962Y10862D02*X50521D01*
X49962Y11523D02*X50521D01*
X49962Y12158D02*X50521D01*
X49962Y12818D02*X50521D01*
G54D50*X28479Y20234D02*X29038D01*
G54D51*X28479Y19573D02*X29038D01*
X28479Y18938D02*X29038D01*
X28479Y18278D02*X29038D01*
X32721Y18253D02*X33279D01*
X32721Y18913D02*X33279D01*
X32721Y19548D02*X33279D01*
X32721Y20208D02*X33279D01*
G54D50*X21721Y12843D02*X22279D01*
G54D51*X21721Y12183D02*X22279D01*
X21721Y11548D02*X22279D01*
X21721Y10888D02*X22279D01*
X25962Y10862D02*X26521D01*
X25962Y11523D02*X26521D01*
X25962Y12158D02*X26521D01*
X25962Y12818D02*X26521D01*
M02*
