G04 start of page 2 for group 0 idx 0 *
G04 Title: (unknown), top *
G04 Creator: pcb 20140316 *
G04 CreationDate: пн, 30-тра-2016 12:43:38 +0000 UTC *
G04 For: root *
G04 Format: Gerber/RS-274X *
G04 PCB-Dimensions (mm): 170.00 40.05 *
G04 PCB-Coordinate-Origin: lower left *
%MOMM*%
%FSLAX43Y43*%
%LNTOP*%
%ADD18C,0.711*%
%ADD17C,2.286*%
%ADD16R,0.406X0.406*%
%ADD15C,0.406*%
%ADD14C,1.524*%
%ADD13C,0.002*%
%ADD12C,0.254*%
%ADD11C,0.354*%
G54D11*X34000Y18253D02*X34795D01*
X31230Y18278D02*X32000Y19048D01*
X34000Y18913D02*X35135D01*
X34000Y19548D02*X35500D01*
X34000Y20208D02*X35840D01*
X29758Y20234D02*X28686D01*
X28000Y19548D01*
X39000Y17048D02*X34000Y22048D01*
X35135Y18913D02*X37000Y17048D01*
X35500Y19548D02*X38000Y17048D01*
X29758Y18278D02*X31230D01*
X28000Y19548D02*Y17048D01*
X29000Y16048D01*
X34000D01*
X34795Y18253D02*X36000Y17048D01*
X75758Y18278D02*X77230D01*
X75000Y16048D02*X80000D01*
X77230Y18278D02*X78000Y19048D01*
X75758Y20234D02*X74686D01*
X74000Y19548D01*
Y17048D01*
X75000Y16048D01*
X80000Y18253D02*X80795D01*
X81135Y18913D02*X80000D01*
Y19548D02*X81500D01*
X80000Y20208D02*X81840D01*
X80795Y18253D02*X82000Y17048D01*
X81135Y18913D02*X83000Y17048D01*
X81500Y19548D02*X84000Y17048D01*
X80000Y22048D02*X85000Y17048D01*
X107500Y17548D02*Y5048D01*
Y48D02*Y5548D01*
X106500Y17548D02*Y48D01*
X105500Y17548D02*Y48D01*
X104500Y17548D02*Y48D01*
X103500Y15548D02*Y48D01*
X101000Y10048D02*Y48D01*
X100000Y10048D02*Y48D01*
X99000Y10048D02*Y48D01*
X98000Y10048D02*Y48D01*
X96500Y9048D02*X97000Y8548D01*
Y48D01*
X96242Y10862D02*X97186D01*
X96242Y11523D02*X97525D01*
X96242Y12158D02*X97890D01*
X96242Y12818D02*X98230D01*
X97186Y10862D02*X98000Y10048D01*
X97525Y11523D02*X99000Y10048D01*
X97890Y12158D02*X100000Y10048D01*
X98230Y12818D02*X101000Y10048D01*
X96000Y15048D01*
X93340Y10888D02*X94000Y11548D01*
X92000Y12843D02*X90795D01*
X91000Y9048D02*X96500D01*
X92000Y10888D02*X93340D01*
X90795Y12843D02*X90500Y12548D01*
Y9548D01*
X107500Y17548D02*X103000Y22048D01*
X94000Y13548D02*Y34548D01*
X96000Y15048D02*Y33048D01*
X94000Y34548D02*X95500Y36048D01*
X96000Y33048D02*X96750Y33798D01*
X95500Y36048D02*X96960D01*
X101000Y35048D02*X98000D01*
X97000Y34048D01*
X101000Y19048D02*Y32588D01*
X103000Y22048D02*Y33048D01*
X101000Y35048D01*
Y32588D02*X99540Y34048D01*
X52000Y35048D02*X51000Y34048D01*
X48000Y13548D02*Y34548D01*
X49500Y36048D01*
X50000Y33048D02*X50750Y33798D01*
X49500Y36048D02*X50960D01*
X50000Y15048D02*Y33048D01*
X58135Y18913D02*X59500Y17548D01*
X57000Y18253D02*X57795D01*
X58500Y17548D01*
X57000Y19548D02*X58500D01*
X60500Y17548D01*
X57000Y18913D02*X58135D01*
X57000Y20208D02*X58840D01*
X57000Y16048D02*X57500Y15548D01*
X61500Y17548D02*X57000Y22048D01*
X50242Y10862D02*X51186D01*
X50242Y11523D02*X51525D01*
X50242Y12158D02*X51890D01*
X51186Y10862D02*X52000Y10048D01*
X51525Y11523D02*X53000Y10048D01*
X51890Y12158D02*X54000Y10048D01*
X52758Y18278D02*X54230D01*
X55000Y19048D01*
X52758Y20234D02*X51686D01*
X51000Y19548D01*
Y17048D01*
X52000Y16048D01*
X57000D01*
X50242Y12818D02*X52230D01*
X55000Y10048D02*X50000Y15048D01*
X55000Y32588D02*X53540Y34048D01*
X55000Y19048D02*Y32588D01*
X57000Y22048D02*Y33048D01*
X55000Y35048D01*
X52000D01*
X71000Y13548D02*Y34548D01*
X73000Y15048D02*Y33048D01*
X72500Y36048D02*X73960D01*
X72500D02*X71000Y34548D01*
X78000Y19048D02*Y32588D01*
X80000Y22048D02*Y33048D01*
X78000Y35048D01*
X75000D01*
X78000Y32588D02*X76540Y34048D01*
X75000Y35048D02*X73000Y33048D01*
X73500Y33548D01*
X80000Y16048D02*X81000Y15048D01*
X47340Y10888D02*X48000Y11548D01*
X45000Y9048D02*X50500D01*
X46000Y10888D02*X47340D01*
X48000Y11548D02*Y14048D01*
X46000Y12843D02*X44795D01*
X44500Y12548D01*
Y9548D01*
X45000Y9048D01*
X27242Y10862D02*X28186D01*
X24340Y10888D02*X25000Y11548D01*
X28186Y10862D02*X29000Y10048D01*
X28525Y11523D02*X30000Y10048D01*
X28890Y12158D02*X31000Y10048D01*
X32000D02*X27000Y15048D01*
X34000Y16048D02*X35000Y15048D01*
X27242Y11523D02*X28525D01*
X27242Y12158D02*X28890D01*
X27242Y12818D02*X29230D01*
X22000Y9048D02*X27500D01*
X25000Y11548D02*Y14048D01*
X23000Y12843D02*X21795D01*
X21500Y12548D01*
Y9548D01*
X23000Y10888D02*X24340D01*
X21500Y9548D02*X22000Y9048D01*
X32000Y10048D02*Y48D01*
X31000Y10048D02*Y48D01*
X30000Y10048D02*Y48D01*
X29000Y10048D02*Y48D01*
X28000Y8548D02*Y48D01*
X27500Y9048D02*X28000Y8548D01*
X35000Y15048D02*Y48D01*
X36000Y17048D02*Y48D01*
X37000Y17048D02*Y48D01*
X38000Y17048D02*Y48D01*
X39000Y17048D02*Y48D01*
X25000Y13548D02*Y34548D01*
X27000Y15048D02*Y33048D01*
X32000Y19048D02*Y32588D01*
X27000Y33048D02*X28000Y34048D01*
X30540D02*X32000Y32588D01*
X26500Y36048D02*X27960D01*
X34000Y22048D02*Y33048D01*
X32000Y35048D01*
X29000D01*
X27000Y33048D01*
X25000Y34548D02*X26500Y36048D01*
X55000Y10048D02*Y48D01*
X54000Y10048D02*Y48D01*
X53000Y10048D02*Y48D01*
X52000Y10048D02*Y48D01*
X51000Y8548D02*Y48D01*
X50500Y9048D02*X51000Y8548D01*
X61500Y17548D02*Y5048D01*
Y48D02*Y5548D01*
X60500Y17548D02*Y48D01*
X59500Y17548D02*Y48D01*
X58500Y17548D02*Y48D01*
X57500Y15548D02*Y48D01*
X61500Y17048D02*Y17548D01*
X73242Y10862D02*X74186D01*
X73242Y11523D02*X74525D01*
X73242Y12158D02*X74890D01*
X73242Y12818D02*X75230D01*
X74186Y10862D02*X75000Y10048D01*
X74525Y11523D02*X76000Y10048D01*
X74890Y12158D02*X77000Y10048D01*
X78000D02*X73000Y15048D01*
X73500Y9048D02*X74000Y8548D01*
X70340Y10888D02*X71000Y11548D01*
Y14048D01*
X77000Y10048D02*Y48D01*
X76000Y10048D02*Y48D01*
X75000Y10048D02*Y48D01*
X74000Y8548D02*Y48D01*
X69000Y12843D02*X67795D01*
X68000Y9048D02*X73500D01*
X67795Y12843D02*X67500Y12548D01*
Y9548D01*
X69000Y10888D02*X70340D01*
X67500Y9548D02*X68000Y9048D01*
X78000Y10048D02*Y48D01*
X81000Y15048D02*Y48D01*
X82000Y17048D02*Y48D01*
X83000Y17048D02*Y48D01*
X84000Y17048D02*Y48D01*
X85000Y17048D02*Y48D01*
X116000Y34548D02*X117500Y36048D01*
X117000Y11548D02*Y16048D01*
X116000Y17048D01*
Y34548D01*
X118000Y33048D02*Y16048D01*
X117500Y36048D02*X118960D01*
X118000Y33048D02*X118750Y33798D01*
X125000Y33048D02*X123000Y35048D01*
X120000D01*
X123000Y32588D02*X121540Y34048D01*
X120000Y35048D02*X119000Y34048D01*
X125000Y33048D02*Y23048D01*
X130500Y17548D01*
X124000Y10048D02*X118000Y16048D01*
X124000Y21048D02*Y22048D01*
X123000Y23048D01*
Y32588D01*
X148000Y24048D02*Y33048D01*
Y19048D02*Y22048D01*
X146000Y24048D01*
Y32588D01*
X146174Y34874D02*X148000Y33048D01*
X139174Y34374D02*Y16874D01*
X141000Y15048D01*
X141174Y16874D02*X142000Y16048D01*
X141000Y11548D02*Y15048D01*
X141174Y32874D02*Y16874D01*
X143000Y15048D01*
X139174Y34374D02*X140674Y35874D01*
X141174Y32874D02*X141924Y33624D01*
X140674Y35874D02*X142134D01*
X146174Y34874D02*X143174D01*
X143000D02*Y34700D01*
X142348Y34048D01*
X146000Y32588D02*X144714Y33874D01*
X94000Y11548D02*Y14048D01*
X90500Y9548D02*X91000Y9048D01*
X103000Y18253D02*X103795D01*
X104500Y17548D01*
X103000Y19548D02*X104500D01*
X100230Y18278D02*X101000Y19048D01*
Y21548D01*
X103000Y18913D02*X104135D01*
X104500Y19548D02*X106500Y17548D01*
X103000Y20208D02*X104840D01*
X98758Y20234D02*X97686D01*
X97000Y19548D01*
X98758Y18278D02*X100230D01*
X97000Y19548D02*Y17048D01*
X98000Y16048D01*
X103000D01*
X103500Y15548D01*
X116340Y10888D02*X117000Y11548D01*
X114000Y9048D02*X119500D01*
X115000Y10888D02*X116340D01*
X115000Y12843D02*X113795D01*
X113500Y12548D01*
Y9548D01*
X114000Y9048D01*
X121758Y18278D02*X123230D01*
X124000Y19048D01*
Y21548D01*
X121758Y20234D02*X120686D01*
X120000Y19548D01*
Y17048D01*
X121000Y16048D01*
X119242Y10862D02*X120186D01*
X121000Y10048D01*
X119242Y11523D02*X120525D01*
X119242Y12818D02*X121230D01*
X120525Y11523D02*X122000Y10048D01*
X119242Y12158D02*X120890D01*
X123000Y10048D01*
X127135Y18913D02*X128500Y17548D01*
X104135Y18913D02*X105500Y17548D01*
X126795Y18253D02*X127500Y17548D01*
X126000Y18913D02*X127135D01*
X127500Y19548D02*X129500Y17548D01*
X126000Y18253D02*X126795D01*
X126000Y19548D02*X127500D01*
X126000Y20208D02*X127840D01*
X121000Y16048D02*X126000D01*
X126500Y15548D01*
X150000Y18913D02*X151135D01*
X150000Y19548D02*X151500D01*
X150000Y20208D02*X151840D01*
X154500Y17548D02*X148000Y24048D01*
X150000Y18253D02*X150795D01*
X151500Y17548D01*
X151135Y18913D02*X152500Y17548D01*
X151500Y19548D02*X153500Y17548D01*
X145758Y18278D02*X147230D01*
X148000Y19048D01*
X145758Y20234D02*X144686D01*
X144000Y19548D01*
Y17048D01*
X145000Y16048D01*
X150000D01*
X150500Y15548D01*
X137500Y9548D02*X138000Y9048D01*
X137500Y12548D02*Y9548D01*
X143242Y12158D02*X144890D01*
X143242Y12818D02*X145230D01*
X145500Y12548D02*X142250Y15798D01*
X143500Y9048D02*X144000Y8548D01*
X143242Y10862D02*X144186D01*
X145000Y10048D01*
X143242Y11523D02*X144525D01*
X140340Y10888D02*X141000Y11548D01*
X139000Y10888D02*X140340D01*
X144525Y11523D02*X146000Y10048D01*
X144890Y12158D02*X147000Y10048D01*
X145230Y12818D02*X148000Y10048D01*
X139000Y12843D02*X137795D01*
X137500Y12548D01*
X138000Y9048D02*X143500D01*
X154500Y17548D02*Y5048D01*
Y48D02*Y5548D01*
X153500Y17548D02*Y48D01*
X152500Y17548D02*Y48D01*
X151500Y17548D02*Y48D01*
X150500Y15548D02*Y48D01*
X148000Y10048D02*Y48D01*
X147000Y10048D02*Y48D01*
X146000Y10048D02*Y48D01*
X145000Y10048D02*Y48D01*
X144000Y8548D02*Y48D01*
X130500Y17548D02*Y5048D01*
Y48D02*Y5548D01*
X129500Y17548D02*Y48D01*
X128500Y17548D02*Y48D01*
X127500Y17548D02*Y48D01*
X126500Y15548D02*Y48D01*
X124000Y10048D02*Y48D01*
X123000Y10048D02*Y48D01*
X122000Y10048D02*Y48D01*
X121000Y10048D02*Y48D01*
X120000Y8548D02*Y48D01*
X119500Y9048D02*X120000Y8548D01*
G54D12*X97627Y22794D02*Y21778D01*
X97957Y22794D02*X98135Y22616D01*
Y21956D01*
X97957Y21778D02*X98135Y21956D01*
X97500Y21778D02*X97957D01*
X97500Y22794D02*X97957D01*
X98440Y22286D02*X98948D01*
X91627Y15294D02*Y14278D01*
X91957Y15294D02*X92135Y15116D01*
Y14456D01*
X91957Y14278D02*X92135Y14456D01*
X91500Y14278D02*X91957D01*
X91500Y15294D02*X91957D01*
X92440Y14786D02*X92948D01*
X92694Y15040D02*Y14532D01*
X74127Y22794D02*Y21778D01*
X74457Y22794D02*X74635Y22616D01*
Y21956D01*
X74457Y21778D02*X74635Y21956D01*
X74000Y21778D02*X74457D01*
X74000Y22794D02*X74457D01*
X74940Y22286D02*X75448D01*
X68127Y15294D02*Y14278D01*
X68457Y15294D02*X68635Y15116D01*
Y14456D01*
X68457Y14278D02*X68635Y14456D01*
X68000Y14278D02*X68457D01*
X68000Y15294D02*X68457D01*
X68940Y14786D02*X69448D01*
X69194Y15040D02*Y14532D01*
X144627Y22794D02*Y21778D01*
X144957Y22794D02*X145135Y22616D01*
Y21956D01*
X144957Y21778D02*X145135Y21956D01*
X144500Y21778D02*X144957D01*
X144500Y22794D02*X144957D01*
X145440Y22286D02*X145948D01*
X138627Y15294D02*Y14278D01*
X138957Y15294D02*X139135Y15116D01*
Y14456D01*
X138957Y14278D02*X139135Y14456D01*
X138500Y14278D02*X138957D01*
X138500Y15294D02*X138957D01*
X139440Y14786D02*X139948D01*
X139694Y15040D02*Y14532D01*
X120627Y22794D02*Y21778D01*
X120957Y22794D02*X121135Y22616D01*
Y21956D01*
X120957Y21778D02*X121135Y21956D01*
X120500Y21778D02*X120957D01*
X120500Y22794D02*X120957D01*
X121440Y22286D02*X121948D01*
X114627Y15294D02*Y14278D01*
X114957Y15294D02*X115135Y15116D01*
Y14456D01*
X114957Y14278D02*X115135Y14456D01*
X114500Y14278D02*X114957D01*
X114500Y15294D02*X114957D01*
X115440Y14786D02*X115948D01*
X115694Y15040D02*Y14532D01*
X51627Y22794D02*Y21778D01*
X51957Y22794D02*X52135Y22616D01*
Y21956D01*
X51957Y21778D02*X52135Y21956D01*
X51500Y21778D02*X51957D01*
X51500Y22794D02*X51957D01*
X52440Y22286D02*X52948D01*
X45627Y15294D02*Y14278D01*
X45957Y15294D02*X46135Y15116D01*
Y14456D01*
X45957Y14278D02*X46135Y14456D01*
X45500Y14278D02*X45957D01*
X45500Y15294D02*X45957D01*
X46440Y14786D02*X46948D01*
X46694Y15040D02*Y14532D01*
X22127Y15294D02*Y14278D01*
X22457Y15294D02*X22635Y15116D01*
Y14456D01*
X22457Y14278D02*X22635Y14456D01*
X22000Y14278D02*X22457D01*
X22000Y15294D02*X22457D01*
X22940Y14786D02*X23448D01*
X23194Y15040D02*Y14532D01*
X28127Y22794D02*Y21778D01*
X28457Y22794D02*X28635Y22616D01*
Y21956D01*
X28457Y21778D02*X28635Y21956D01*
X28000Y21778D02*X28457D01*
X28000Y22794D02*X28457D01*
X28940Y22286D02*X29448D01*
G54D13*G36*
X73238Y34810D02*Y33286D01*
X74762D01*
Y34810D01*
X73238D01*
G37*
G54D14*X76540Y34048D03*
Y36080D03*
X74000D03*
G54D13*G36*
X27238Y34810D02*Y33286D01*
X28762D01*
Y34810D01*
X27238D01*
G37*
G54D14*X30540Y34048D03*
Y36080D03*
X28000D03*
G54D13*G36*
X50238Y34810D02*Y33286D01*
X51762D01*
Y34810D01*
X50238D01*
G37*
G54D14*X53540Y34048D03*
Y36080D03*
X51000D03*
G54D13*G36*
X118238Y34810D02*Y33286D01*
X119762D01*
Y34810D01*
X118238D01*
G37*
G36*
Y33286D01*
X119762D01*
Y34810D01*
X118238D01*
G37*
G54D14*X121540Y34048D03*
D03*
Y36080D03*
D03*
X119000D03*
D03*
G54D13*G36*
X141412Y34636D02*Y33112D01*
X142936D01*
Y34636D01*
X141412D01*
G37*
G54D14*X142174Y35906D03*
X144714Y33874D03*
Y35906D03*
G54D13*G36*
X96238Y34810D02*Y33286D01*
X97762D01*
Y34810D01*
X96238D01*
G37*
G36*
Y33286D01*
X97762D01*
Y34810D01*
X96238D01*
G37*
G54D14*X99540Y34048D03*
D03*
Y36080D03*
D03*
X97000D03*
D03*
G54D15*X98479Y20234D02*X99038D01*
G54D16*X98479Y19573D02*X99038D01*
X98479Y18938D02*X99038D01*
X98479Y18278D02*X99038D01*
X102721Y18253D02*X103279D01*
X102721Y18913D02*X103279D01*
X102721Y19548D02*X103279D01*
X102721Y20208D02*X103279D01*
G54D15*X91721Y12843D02*X92279D01*
G54D16*X91721Y12183D02*X92279D01*
X91721Y11548D02*X92279D01*
X91721Y10888D02*X92279D01*
X95962Y10862D02*X96521D01*
X95962Y11523D02*X96521D01*
X95962Y12158D02*X96521D01*
X95962Y12818D02*X96521D01*
X149721Y18253D02*X150279D01*
X149721Y18913D02*X150279D01*
X149721Y19548D02*X150279D01*
G54D15*X145479Y20234D02*X146038D01*
G54D16*X145479Y19573D02*X146038D01*
X145479Y18938D02*X146038D01*
X145479Y18278D02*X146038D01*
X149721Y20208D02*X150279D01*
G54D15*X138721Y12843D02*X139279D01*
G54D16*X138721Y12183D02*X139279D01*
X138721Y11548D02*X139279D01*
X138721Y10888D02*X139279D01*
X142962Y10862D02*X143521D01*
X142962Y11523D02*X143521D01*
X142962Y12158D02*X143521D01*
X142962Y12818D02*X143521D01*
G54D15*X121479Y20234D02*X122038D01*
G54D16*X121479Y19573D02*X122038D01*
X121479Y18938D02*X122038D01*
X121479Y18278D02*X122038D01*
X125721Y18253D02*X126279D01*
X125721Y18913D02*X126279D01*
X125721Y19548D02*X126279D01*
X125721Y20208D02*X126279D01*
G54D15*X114721Y12843D02*X115279D01*
G54D16*X114721Y12183D02*X115279D01*
X114721Y11548D02*X115279D01*
X114721Y10888D02*X115279D01*
X118962Y10862D02*X119521D01*
X118962Y11523D02*X119521D01*
X118962Y12158D02*X119521D01*
X118962Y12818D02*X119521D01*
G54D15*X52479Y20234D02*X53038D01*
G54D16*X52479Y19573D02*X53038D01*
X52479Y18938D02*X53038D01*
X52479Y18278D02*X53038D01*
X56721Y18253D02*X57279D01*
X56721Y18913D02*X57279D01*
X56721Y19548D02*X57279D01*
X56721Y20208D02*X57279D01*
G54D15*X45721Y12843D02*X46279D01*
G54D16*X45721Y12183D02*X46279D01*
X45721Y11548D02*X46279D01*
X45721Y10888D02*X46279D01*
X49962Y10862D02*X50521D01*
X49962Y11523D02*X50521D01*
X49962Y12158D02*X50521D01*
X49962Y12818D02*X50521D01*
G54D15*X29479Y20234D02*X30038D01*
G54D16*X29479Y19573D02*X30038D01*
X29479Y18938D02*X30038D01*
X29479Y18278D02*X30038D01*
X33721Y18253D02*X34279D01*
X33721Y18913D02*X34279D01*
X33721Y19548D02*X34279D01*
X33721Y20208D02*X34279D01*
G54D15*X22721Y12843D02*X23279D01*
G54D16*X22721Y12183D02*X23279D01*
X22721Y11548D02*X23279D01*
X22721Y10888D02*X23279D01*
X26962Y10862D02*X27521D01*
X26962Y11523D02*X27521D01*
X26962Y12158D02*X27521D01*
X26962Y12818D02*X27521D01*
G54D15*X75479Y20234D02*X76038D01*
G54D16*X75479Y19573D02*X76038D01*
X75479Y18938D02*X76038D01*
X75479Y18278D02*X76038D01*
X79721Y18253D02*X80279D01*
X79721Y18913D02*X80279D01*
X79721Y19548D02*X80279D01*
X79721Y20208D02*X80279D01*
G54D15*X68721Y12843D02*X69279D01*
G54D16*X68721Y12183D02*X69279D01*
X68721Y11548D02*X69279D01*
X68721Y10888D02*X69279D01*
X72962Y10862D02*X73521D01*
X72962Y11523D02*X73521D01*
X72962Y12158D02*X73521D01*
X72962Y12818D02*X73521D01*
G54D17*G54D18*G54D17*G54D18*G54D17*G54D18*G54D17*G54D18*G54D17*G54D18*G54D17*G54D18*G54D17*G54D18*G54D17*G54D18*G54D17*G54D18*G54D17*G54D18*G54D17*G54D18*M02*
