G04 start of page 13 for group -4062 idx -4062 *
G04 Title: (unknown), soldermask *
G04 Creator: pcb 20140316 *
G04 CreationDate: чт, 19-тра-2016 10:05:25 +0000 UTC *
G04 For: root *
G04 Format: Gerber/RS-274X *
G04 PCB-Dimensions (mm): 170.00 40.05 *
G04 PCB-Coordinate-Origin: lower left *
%MOMM*%
%FSLAX43Y43*%
%LNBOTTOMMASK*%
%ADD55C,2.438*%
%ADD54C,1.676*%
%ADD53C,0.002*%
%ADD52C,0.254*%
G54D52*X0Y40048D02*Y0D01*
Y40048D02*X170000D01*
X0Y0D02*X170000D01*
Y40048D02*Y0D01*
G54D53*G36*
X145662Y36886D02*Y35210D01*
X147338D01*
Y36886D01*
X145662D01*
G37*
G54D54*X143960Y36048D03*
Y34016D03*
X146500D03*
G54D55*X139134Y31222D03*
X151326D03*
G54D53*G36*
X75262Y36886D02*Y35210D01*
X76938D01*
Y36886D01*
X75262D01*
G37*
G54D54*X73560Y36048D03*
Y34016D03*
X73460D03*
X76100D03*
G54D55*X80926Y31222D03*
G54D54*X76000Y34016D03*
G54D55*X80826Y31222D03*
G54D53*G36*
X75162Y36886D02*Y35210D01*
X76838D01*
Y36886D01*
X75162D01*
G37*
G54D54*X73460Y36048D03*
G54D55*X68734Y31222D03*
X68634D03*
X58326D03*
X22134D03*
X34326D03*
G54D53*G36*
X52662Y36886D02*Y35210D01*
X54338D01*
Y36886D01*
X52662D01*
G37*
G54D54*X50960Y36048D03*
G54D53*G36*
X28662Y36886D02*Y35210D01*
X30338D01*
Y36886D01*
X28662D01*
G37*
G54D54*X26960Y36048D03*
Y34016D03*
X29500D03*
X50960D03*
G54D55*X46134Y31222D03*
G54D54*X53500Y34016D03*
X122500D03*
D03*
D03*
D03*
X119960D03*
D03*
D03*
D03*
G54D55*X127326Y31222D03*
D03*
D03*
D03*
G54D53*G36*
X121662Y36886D02*Y35210D01*
X123338D01*
Y36886D01*
X121662D01*
G37*
G36*
Y35210D01*
X123338D01*
Y36886D01*
X121662D01*
G37*
G36*
Y35210D01*
X123338D01*
Y36886D01*
X121662D01*
G37*
G36*
Y35210D01*
X123338D01*
Y36886D01*
X121662D01*
G37*
G54D54*X119960Y36048D03*
D03*
D03*
D03*
G54D55*X115134Y31222D03*
D03*
D03*
D03*
G54D53*G36*
X98662Y36886D02*Y35210D01*
X100338D01*
Y36886D01*
X98662D01*
G37*
G54D54*X96960Y36048D03*
Y34016D03*
X99500D03*
G54D55*X92134Y31222D03*
X104326D03*
M02*
