G04 start of page 6 for group 4 idx 4 *
G04 Title: (unknown), power *
G04 Creator: pcb 20140316 *
G04 CreationDate: чт, 19-тра-2016 10:05:25 +0000 UTC *
G04 For: root *
G04 Format: Gerber/RS-274X *
G04 PCB-Dimensions (mm): 170.00 40.05 *
G04 PCB-Coordinate-Origin: lower left *
%MOMM*%
%FSLAX43Y43*%
%LNPOWER*%
%ADD34C,2.286*%
%ADD33C,0.711*%
%ADD32C,1.524*%
%ADD31C,0.002*%
G54D31*G36*
X145738Y36810D02*Y35286D01*
X147262D01*
Y36810D01*
X145738D01*
G37*
G54D32*X143960Y36048D03*
Y34016D03*
X146500D03*
G54D31*G36*
X75338Y36810D02*Y35286D01*
X76862D01*
Y36810D01*
X75338D01*
G37*
G54D32*X73560Y36048D03*
Y34016D03*
X73460D03*
X76100D03*
X76000D03*
G54D31*G36*
X75238Y36810D02*Y35286D01*
X76762D01*
Y36810D01*
X75238D01*
G37*
G54D32*X73460Y36048D03*
G54D31*G36*
X52738Y36810D02*Y35286D01*
X54262D01*
Y36810D01*
X52738D01*
G37*
G54D32*X50960Y36048D03*
G54D31*G36*
X28738Y36810D02*Y35286D01*
X30262D01*
Y36810D01*
X28738D01*
G37*
G54D32*X26960Y36048D03*
Y34016D03*
X29500D03*
X50960D03*
X53500D03*
X122500D03*
D03*
D03*
D03*
X119960D03*
D03*
D03*
D03*
G54D31*G36*
X121738Y36810D02*Y35286D01*
X123262D01*
Y36810D01*
X121738D01*
G37*
G36*
Y35286D01*
X123262D01*
Y36810D01*
X121738D01*
G37*
G36*
Y35286D01*
X123262D01*
Y36810D01*
X121738D01*
G37*
G36*
Y35286D01*
X123262D01*
Y36810D01*
X121738D01*
G37*
G54D32*X119960Y36048D03*
D03*
D03*
D03*
G54D31*G36*
X98738Y36810D02*Y35286D01*
X100262D01*
Y36810D01*
X98738D01*
G37*
G54D32*X96960Y36048D03*
Y34016D03*
X99500D03*
G54D33*G54D34*G54D33*G54D34*G54D33*G54D34*G54D33*G54D34*G54D33*G54D34*G54D33*G54D34*G54D33*G54D34*G54D33*G54D34*M02*
