G04 start of page 16 for group -4015 idx -4015 *
G04 Title: (unknown), toppaste *
G04 Creator: pcb 20140316 *
G04 CreationDate: чт, 19-тра-2016 10:05:25 +0000 UTC *
G04 For: root *
G04 Format: Gerber/RS-274X *
G04 PCB-Dimensions (mm): 170.00 40.05 *
G04 PCB-Coordinate-Origin: lower left *
%MOMM*%
%FSLAX43Y43*%
%LNTOPPASTE*%
%ADD59R,0.406X0.406*%
%ADD58C,0.406*%
G54D58*X145479Y20234D02*X146038D01*
G54D59*X145479Y19573D02*X146038D01*
X145479Y18938D02*X146038D01*
X145479Y18278D02*X146038D01*
X149721Y18253D02*X150279D01*
X149721Y18913D02*X150279D01*
X149721Y19548D02*X150279D01*
X149721Y20208D02*X150279D01*
G54D58*X138721Y12843D02*X139279D01*
G54D59*X138721Y12183D02*X139279D01*
X138721Y11548D02*X139279D01*
X138721Y10888D02*X139279D01*
X142962Y10862D02*X143521D01*
X142962Y11523D02*X143521D01*
X142962Y12158D02*X143521D01*
X142962Y12818D02*X143521D01*
G54D58*X98479Y20234D02*X99038D01*
G54D59*X98479Y19573D02*X99038D01*
X98479Y18938D02*X99038D01*
X98479Y18278D02*X99038D01*
X102721Y18253D02*X103279D01*
X102721Y18913D02*X103279D01*
X102721Y19548D02*X103279D01*
X102721Y20208D02*X103279D01*
G54D58*X91721Y12843D02*X92279D01*
G54D59*X91721Y12183D02*X92279D01*
X91721Y11548D02*X92279D01*
X91721Y10888D02*X92279D01*
X95962Y10862D02*X96521D01*
X95962Y11523D02*X96521D01*
X95962Y12158D02*X96521D01*
X95962Y12818D02*X96521D01*
G54D58*X74979Y20234D02*X75538D01*
G54D59*X74979Y19573D02*X75538D01*
X74979Y18938D02*X75538D01*
X74979Y18278D02*X75538D01*
X79221Y18253D02*X79779D01*
X79221Y18913D02*X79779D01*
X79221Y19548D02*X79779D01*
X79221Y20208D02*X79779D01*
G54D58*X68221Y12843D02*X68779D01*
G54D59*X68221Y12183D02*X68779D01*
X68221Y11548D02*X68779D01*
X68221Y10888D02*X68779D01*
X72462Y10862D02*X73021D01*
X72462Y11523D02*X73021D01*
X72462Y12158D02*X73021D01*
X72462Y12818D02*X73021D01*
G54D58*X121479Y20234D02*X122038D01*
G54D59*X121479Y19573D02*X122038D01*
X121479Y18938D02*X122038D01*
X121479Y18278D02*X122038D01*
X125721Y18253D02*X126279D01*
X125721Y18913D02*X126279D01*
X125721Y19548D02*X126279D01*
X125721Y20208D02*X126279D01*
G54D58*X114721Y12843D02*X115279D01*
G54D59*X114721Y12183D02*X115279D01*
X114721Y11548D02*X115279D01*
X114721Y10888D02*X115279D01*
X118962Y10862D02*X119521D01*
X118962Y11523D02*X119521D01*
X118962Y12158D02*X119521D01*
X118962Y12818D02*X119521D01*
G54D58*X52479Y20234D02*X53038D01*
G54D59*X52479Y19573D02*X53038D01*
X52479Y18938D02*X53038D01*
X52479Y18278D02*X53038D01*
X56721Y18253D02*X57279D01*
X56721Y18913D02*X57279D01*
X56721Y19548D02*X57279D01*
X56721Y20208D02*X57279D01*
G54D58*X45721Y12843D02*X46279D01*
G54D59*X45721Y12183D02*X46279D01*
X45721Y11548D02*X46279D01*
X45721Y10888D02*X46279D01*
X49962Y10862D02*X50521D01*
X49962Y11523D02*X50521D01*
X49962Y12158D02*X50521D01*
X49962Y12818D02*X50521D01*
G54D58*X28479Y20234D02*X29038D01*
G54D59*X28479Y19573D02*X29038D01*
X28479Y18938D02*X29038D01*
X28479Y18278D02*X29038D01*
X32721Y18253D02*X33279D01*
X32721Y18913D02*X33279D01*
X32721Y19548D02*X33279D01*
X32721Y20208D02*X33279D01*
G54D58*X21721Y12843D02*X22279D01*
G54D59*X21721Y12183D02*X22279D01*
X21721Y11548D02*X22279D01*
X21721Y10888D02*X22279D01*
X25962Y10862D02*X26521D01*
X25962Y11523D02*X26521D01*
X25962Y12158D02*X26521D01*
X25962Y12818D02*X26521D01*
M02*
