M48
METRIC,000.000
T44C0.711
%
T44
X026960Y036048
X026960Y034016
X029500Y036048
X029500Y034016
X050960Y036048
X050960Y034016
X053500Y036048
X053500Y034016
X073460Y036048
X073460Y034016
X073560Y036048
X073560Y034016
X076000Y036048
X076000Y034016
X076100Y036048
X076100Y034016
X096960Y036048
X096960Y034016
X099500Y036048
X099500Y034016
X119960Y036048
X119960Y036048
X119960Y036048
X119960Y036048
X119960Y034016
X119960Y034016
X119960Y034016
X119960Y034016
X122500Y036048
X122500Y036048
X122500Y036048
X122500Y036048
X122500Y034016
X122500Y034016
X122500Y034016
X122500Y034016
X143960Y036048
X143960Y034016
X146500Y036048
X146500Y034016
M30
