M48
METRIC,000.000
T59C0.508
T58C0.711
%
T59
X013000Y043048
X013000Y001048
X029000Y003048
X031000Y003048
X033000Y003048
X036000Y003048
X038000Y003048
X040000Y003048
X052000Y003048
X054000Y003048
X056000Y003048
X058500Y003048
X060000Y003048
X062000Y003048
X075000Y003048
X077000Y003048
X079000Y003048
X082000Y003048
X084000Y003048
X086000Y003048
X098000Y003048
X100000Y003048
X102000Y003048
X104500Y003048
X106000Y003048
X108000Y003048
X121000Y003048
X123000Y003048
X125000Y003048
X127500Y003048
X129000Y003048
X131000Y003048
X145000Y003048
X147000Y003048
X149000Y003048
X152000Y002048
X154000Y002048
X156000Y002048
T58
X028000Y039080
X028000Y037048
X030540Y039080
X030540Y037048
X051000Y039080
X051000Y037048
X053540Y039080
X053540Y037048
X074000Y039080
X074000Y037048
X076540Y039080
X076540Y037048
X097000Y039080
X097000Y037048
X099540Y039080
X099540Y037048
X119000Y039080
X119000Y037048
X121540Y039080
X121540Y037048
X142000Y039080
X142000Y037048
X144540Y039080
X144540Y037048
M30
