M48
METRIC,000.000
T45C2.286
%
T45
X022134Y031222
X034326Y031222
X046134Y031222
X058326Y031222
X068634Y031222
X068734Y031222
X080826Y031222
X080926Y031222
X092134Y031222
X104326Y031222
X115134Y031222
X115134Y031222
X115134Y031222
X115134Y031222
X127326Y031222
X127326Y031222
X127326Y031222
X127326Y031222
X139134Y031222
X151326Y031222
M30
