G04 start of page 18 for group -3984 idx -3984 *
G04 Title: (unknown), fab *
G04 Creator: pcb 20140316 *
G04 CreationDate: пн, 30-тра-2016 12:43:38 +0000 UTC *
G04 For: root *
G04 Format: Gerber/RS-274X *
G04 PCB-Dimensions (mm): 170.00 40.05 *
G04 PCB-Coordinate-Origin: lower left *
%MOMM*%
%FSLAX43Y43*%
%LNFAB*%
%ADD62C,0.002*%
%ADD61C,0.254*%
%ADD60C,0.191*%
%ADD59C,0.152*%
%ADD58R,0.203X0.203*%
G54D58*X126366Y39280D02*Y38468D01*
X125960Y38874D02*X126772D01*
X114174Y39280D02*Y38468D01*
X113768Y38874D02*X114580D01*
X104366Y39280D02*Y38468D01*
X103960Y38874D02*X104772D01*
X92174Y39280D02*Y38468D01*
X91768Y38874D02*X92580D01*
X126366Y39280D02*Y38468D01*
X125960Y38874D02*X126772D01*
X114174Y39280D02*Y38468D01*
X113768Y38874D02*X114580D01*
X104366Y39280D02*Y38468D01*
X103960Y38874D02*X104772D01*
X92174Y39280D02*Y38468D01*
X91768Y38874D02*X92580D01*
X149540Y39106D02*Y38294D01*
X149134Y38700D02*X149946D01*
X137348Y39106D02*Y38294D01*
X136942Y38700D02*X137754D01*
X35366Y39280D02*Y38468D01*
X34960Y38874D02*X35772D01*
X23174Y39280D02*Y38468D01*
X22768Y38874D02*X23580D01*
X81366Y39280D02*Y38468D01*
X80960Y38874D02*X81772D01*
X69174Y39280D02*Y38468D01*
X68768Y38874D02*X69580D01*
X58366Y39280D02*Y38468D01*
X57960Y38874D02*X58772D01*
X46174Y39280D02*Y38468D01*
X45768Y38874D02*X46580D01*
X3810Y50932D02*Y50119D01*
X3404Y50526D02*X4216D01*
G54D59*X35560Y51097D02*Y49573D01*
Y51097D02*X36512Y49573D01*
Y51097D02*Y49573D01*
X36970Y50906D02*Y49764D01*
Y50906D02*X37160Y51097D01*
X37541D01*
X37732Y50906D01*
Y49764D01*
X37541Y49573D02*X37732Y49764D01*
X37160Y49573D02*X37541D01*
X36970Y49764D02*X37160Y49573D01*
X24892Y50792D02*X25197Y51097D01*
Y49573D01*
X24892D02*X25464D01*
X26492Y51097D02*X26683Y50906D01*
X26111Y51097D02*X26492D01*
X25921Y50906D02*X26111Y51097D01*
X25921Y50906D02*Y49764D01*
X26111Y49573D01*
X26492Y50411D02*X26683Y50221D01*
X25921Y50411D02*X26492D01*
X26111Y49573D02*X26492D01*
X26683Y49764D01*
Y50221D02*Y49764D01*
X11430D02*X11620Y49573D01*
X11430Y50906D02*Y49764D01*
Y50906D02*X11620Y51097D01*
X12002D01*
X12192Y50906D01*
Y49764D01*
X12002Y49573D02*X12192Y49764D01*
X11620Y49573D02*X12002D01*
X11430Y49954D02*X12192Y50716D01*
X12649Y49573D02*X12840D01*
X13297Y49764D02*X13487Y49573D01*
X13297Y50906D02*Y49764D01*
Y50906D02*X13487Y51097D01*
X13868D01*
X14059Y50906D01*
Y49764D01*
X13868Y49573D02*X14059Y49764D01*
X13487Y49573D02*X13868D01*
X13297Y49954D02*X14059Y50716D01*
X14707Y49573D02*X15278Y50335D01*
Y50906D02*Y50335D01*
X15088Y51097D02*X15278Y50906D01*
X14707Y51097D02*X15088D01*
X14516Y50906D02*X14707Y51097D01*
X14516Y50906D02*Y50526D01*
X14707Y50335D01*
X15278D01*
X15735Y49764D02*X15926Y49573D01*
X15735Y50906D02*Y49764D01*
Y50906D02*X15926Y51097D01*
X16307D01*
X16497Y50906D01*
Y49764D01*
X16307Y49573D02*X16497Y49764D01*
X15926Y49573D02*X16307D01*
X15735Y49954D02*X16497Y50716D01*
X119000Y34048D02*Y33642D01*
Y34048D02*X119352Y34251D01*
X119000Y34048D02*X118648Y34251D01*
X121540Y34048D02*Y33642D01*
Y34048D02*X121892Y34251D01*
X121540Y34048D02*X121188Y34251D01*
X121540Y36080D02*Y35674D01*
Y36080D02*X121892Y36283D01*
X121540Y36080D02*X121188Y36283D01*
X119000Y36080D02*Y35674D01*
Y36080D02*X119352Y36283D01*
X119000Y36080D02*X118648Y36283D01*
X97000Y34048D02*Y33642D01*
Y34048D02*X97352Y34251D01*
X97000Y34048D02*X96648Y34251D01*
X99540Y34048D02*Y33642D01*
Y34048D02*X99892Y34251D01*
X99540Y34048D02*X99188Y34251D01*
X99540Y36080D02*Y35674D01*
Y36080D02*X99892Y36283D01*
X99540Y36080D02*X99188Y36283D01*
X97000Y36080D02*Y35674D01*
Y36080D02*X97352Y36283D01*
X97000Y36080D02*X96648Y36283D01*
X119000Y34048D02*Y33642D01*
Y34048D02*X119352Y34251D01*
X119000Y34048D02*X118648Y34251D01*
X121540Y34048D02*Y33642D01*
Y34048D02*X121892Y34251D01*
X121540Y34048D02*X121188Y34251D01*
X121540Y36080D02*Y35674D01*
Y36080D02*X121892Y36283D01*
X121540Y36080D02*X121188Y36283D01*
X119000Y36080D02*Y35674D01*
Y36080D02*X119352Y36283D01*
X119000Y36080D02*X118648Y36283D01*
X97000Y34048D02*Y33642D01*
Y34048D02*X97352Y34251D01*
X97000Y34048D02*X96648Y34251D01*
X99540Y34048D02*Y33642D01*
Y34048D02*X99892Y34251D01*
X99540Y34048D02*X99188Y34251D01*
X99540Y36080D02*Y35674D01*
Y36080D02*X99892Y36283D01*
X99540Y36080D02*X99188Y36283D01*
X97000Y36080D02*Y35674D01*
Y36080D02*X97352Y36283D01*
X97000Y36080D02*X96648Y36283D01*
X142174Y33874D02*Y33468D01*
Y33874D02*X142526Y34077D01*
X142174Y33874D02*X141822Y34077D01*
X144714Y33874D02*Y33468D01*
Y33874D02*X145066Y34077D01*
X144714Y33874D02*X144362Y34077D01*
X144714Y35906D02*Y35500D01*
Y35906D02*X145066Y36109D01*
X144714Y35906D02*X144362Y36109D01*
X142174Y35906D02*Y35500D01*
Y35906D02*X142526Y36109D01*
X142174Y35906D02*X141822Y36109D01*
X28000Y34048D02*Y33642D01*
Y34048D02*X28352Y34251D01*
X28000Y34048D02*X27648Y34251D01*
X30540Y34048D02*Y33642D01*
Y34048D02*X30892Y34251D01*
X30540Y34048D02*X30188Y34251D01*
X30540Y36080D02*Y35674D01*
Y36080D02*X30892Y36283D01*
X30540Y36080D02*X30188Y36283D01*
X28000Y36080D02*Y35674D01*
Y36080D02*X28352Y36283D01*
X28000Y36080D02*X27648Y36283D01*
X74000Y34048D02*Y33642D01*
Y34048D02*X74352Y34251D01*
X74000Y34048D02*X73648Y34251D01*
X76540Y34048D02*Y33642D01*
Y34048D02*X76892Y34251D01*
X76540Y34048D02*X76188Y34251D01*
X76540Y36080D02*Y35674D01*
Y36080D02*X76892Y36283D01*
X76540Y36080D02*X76188Y36283D01*
X74000Y36080D02*Y35674D01*
Y36080D02*X74352Y36283D01*
X74000Y36080D02*X73648Y36283D01*
X51000Y34048D02*Y33642D01*
Y34048D02*X51352Y34251D01*
X51000Y34048D02*X50648Y34251D01*
X53540Y34048D02*Y33642D01*
Y34048D02*X53892Y34251D01*
X53540Y34048D02*X53188Y34251D01*
X53540Y36080D02*Y35674D01*
Y36080D02*X53892Y36283D01*
X53540Y36080D02*X53188Y36283D01*
X51000Y36080D02*Y35674D01*
Y36080D02*X51352Y36283D01*
X51000Y36080D02*X50648Y36283D01*
X3810Y54336D02*Y53929D01*
Y54336D02*X4162Y54539D01*
X3810Y54336D02*X3458Y54539D01*
X34290Y54907D02*X34671Y54145D01*
X35052Y54907D01*
X34671Y54145D02*Y53383D01*
X35509Y54221D02*X36081D01*
X35509Y53383D02*X36271D01*
X35509Y54907D02*Y53383D01*
Y54907D02*X36271D01*
X37490D02*X37681Y54716D01*
X36919Y54907D02*X37490D01*
X36728Y54716D02*X36919Y54907D01*
X36728Y54716D02*Y54336D01*
X36919Y54145D01*
X37490D01*
X37681Y53954D01*
Y53574D01*
X37490Y53383D02*X37681Y53574D01*
X36919Y53383D02*X37490D01*
X36728Y53574D02*X36919Y53383D01*
X24892Y54716D02*X25082Y54907D01*
X25464D01*
X25654Y54716D01*
X25464Y53383D02*X25654Y53574D01*
X25082Y53383D02*X25464D01*
X24892Y53574D02*X25082Y53383D01*
Y54221D02*X25464D01*
X25654Y54716D02*Y54412D01*
Y54031D02*Y53574D01*
Y54031D02*X25464Y54221D01*
X25654Y54412D02*X25464Y54221D01*
X26111Y54716D02*X26302Y54907D01*
X26873D01*
X27064Y54716D01*
Y54336D01*
X26111Y53383D02*X27064Y54336D01*
X26111Y53383D02*X27064D01*
X11430Y53574D02*X11620Y53383D01*
X11430Y54716D02*Y53574D01*
Y54716D02*X11620Y54907D01*
X12002D01*
X12192Y54716D01*
Y53574D01*
X12002Y53383D02*X12192Y53574D01*
X11620Y53383D02*X12002D01*
X11430Y53764D02*X12192Y54526D01*
X12649Y53383D02*X12840D01*
X13297Y53574D02*X13487Y53383D01*
X13297Y54716D02*Y53574D01*
Y54716D02*X13487Y54907D01*
X13868D01*
X14059Y54716D01*
Y53574D01*
X13868Y53383D02*X14059Y53574D01*
X13487Y53383D02*X13868D01*
X13297Y53764D02*X14059Y54526D01*
X14516Y54716D02*X14707Y54907D01*
X15278D01*
X15469Y54716D01*
Y54336D01*
X14516Y53383D02*X15469Y54336D01*
X14516Y53383D02*X15469D01*
X15926Y53574D02*X16116Y53383D01*
X15926Y53878D02*Y53574D01*
Y53878D02*X16193Y54145D01*
X16421D01*
X16688Y53878D01*
Y53574D01*
X16497Y53383D02*X16688Y53574D01*
X16116Y53383D02*X16497D01*
X15926Y54412D02*X16193Y54145D01*
X15926Y54716D02*Y54412D01*
Y54716D02*X16116Y54907D01*
X16497D01*
X16688Y54716D01*
Y54412D01*
X16421Y54145D02*X16688Y54412D01*
X762Y58717D02*X952Y58526D01*
X190Y58717D02*X762D01*
X0Y58526D02*X190Y58717D01*
X0Y58526D02*Y58146D01*
X190Y57955D01*
X762D01*
X952Y57764D01*
Y57384D01*
X762Y57193D02*X952Y57384D01*
X190Y57193D02*X762D01*
X0Y57384D02*X190Y57193D01*
X1410Y57955D02*Y57384D01*
X1600Y57193D01*
X2172Y57955D02*Y56812D01*
X1981Y56622D02*X2172Y56812D01*
X1600Y56622D02*X1981D01*
X1410Y56812D02*X1600Y56622D01*
Y57193D02*X1981D01*
X2172Y57384D01*
X2819Y57764D02*Y57193D01*
Y57764D02*X3010Y57955D01*
X3200D01*
X3391Y57764D01*
Y57193D01*
Y57764D02*X3581Y57955D01*
X3772D01*
X3962Y57764D01*
Y57193D01*
X2629Y57955D02*X2819Y57764D01*
X4420Y58717D02*Y57193D01*
Y57384D02*X4610Y57193D01*
X4991D01*
X5182Y57384D01*
Y57764D02*Y57384D01*
X4991Y57955D02*X5182Y57764D01*
X4610Y57955D02*X4991D01*
X4420Y57764D02*X4610Y57955D01*
X5639Y57764D02*Y57384D01*
Y57764D02*X5829Y57955D01*
X6210D01*
X6401Y57764D01*
Y57384D01*
X6210Y57193D02*X6401Y57384D01*
X5829Y57193D02*X6210D01*
X5639Y57384D02*X5829Y57193D01*
X6858Y58717D02*Y57384D01*
X7049Y57193D01*
X0Y56367D02*X7430D01*
X10604Y58717D02*Y57193D01*
X11100Y58717D02*X11366Y58450D01*
Y57460D01*
X11100Y57193D02*X11366Y57460D01*
X10414Y57193D02*X11100D01*
X10414Y58717D02*X11100D01*
G54D60*X11824Y58336D02*Y58298D01*
G54D59*Y57764D02*Y57193D01*
X12776Y57955D02*X12967Y57764D01*
X12395Y57955D02*X12776D01*
X12205Y57764D02*X12395Y57955D01*
X12205Y57764D02*Y57384D01*
X12395Y57193D01*
X12967Y57955D02*Y57384D01*
X13157Y57193D01*
X12395D02*X12776D01*
X12967Y57384D01*
X13805Y57764D02*Y57193D01*
Y57764D02*X13995Y57955D01*
X14186D01*
X14376Y57764D01*
Y57193D01*
Y57764D02*X14567Y57955D01*
X14757D01*
X14948Y57764D01*
Y57193D01*
X13614Y57955D02*X13805Y57764D01*
X15405Y57193D02*X15596D01*
X16739Y57384D02*X16929Y57193D01*
X16739Y58526D02*X16929Y58717D01*
X16739Y58526D02*Y57384D01*
X17386Y58717D02*X17767D01*
X17577D02*Y57193D01*
X17386D02*X17767D01*
X18415Y57764D02*Y57193D01*
Y57764D02*X18606Y57955D01*
X18796D01*
X18987Y57764D01*
Y57193D01*
X18225Y57955D02*X18415Y57764D01*
X19634Y57955D02*X20206D01*
X19444Y57764D02*X19634Y57955D01*
X19444Y57764D02*Y57384D01*
X19634Y57193D01*
X20206D01*
X20663Y58717D02*Y57193D01*
Y57764D02*X20853Y57955D01*
X21234D01*
X21425Y57764D01*
Y57193D01*
X21882Y58717D02*X22073Y58526D01*
Y57384D01*
X21882Y57193D02*X22073Y57384D01*
X10414Y56367D02*X22530D01*
X24397Y57193D02*X24892D01*
X24130Y57460D02*X24397Y57193D01*
X24130Y58450D02*Y57460D01*
Y58450D02*X24397Y58717D01*
X24892D01*
X25349Y57764D02*Y57384D01*
Y57764D02*X25540Y57955D01*
X25921D01*
X26111Y57764D01*
Y57384D01*
X25921Y57193D02*X26111Y57384D01*
X25540Y57193D02*X25921D01*
X25349Y57384D02*X25540Y57193D01*
X26568Y57955D02*Y57384D01*
X26759Y57193D01*
X27140D01*
X27330Y57384D01*
Y57955D02*Y57384D01*
X27978Y57764D02*Y57193D01*
Y57764D02*X28169Y57955D01*
X28359D01*
X28550Y57764D01*
Y57193D01*
X27788Y57955D02*X27978Y57764D01*
X29197Y58717D02*Y57384D01*
X29388Y57193D01*
X29007Y58146D02*X29388D01*
X24130Y56367D02*X29769D01*
X33210Y58717D02*Y57193D01*
X33020Y58717D02*X33782D01*
X33972Y58526D01*
Y58146D01*
X33782Y57955D02*X33972Y58146D01*
X33210Y57955D02*X33782D01*
X34430Y58717D02*Y57384D01*
X34620Y57193D01*
X35573Y57955D02*X35763Y57764D01*
X35192Y57955D02*X35573D01*
X35001Y57764D02*X35192Y57955D01*
X35001Y57764D02*Y57384D01*
X35192Y57193D01*
X35763Y57955D02*Y57384D01*
X35954Y57193D01*
X35192D02*X35573D01*
X35763Y57384D01*
X36601Y58717D02*Y57384D01*
X36792Y57193D01*
X36411Y58146D02*X36792D01*
X37363Y57193D02*X37935D01*
X37173Y57384D02*X37363Y57193D01*
X37173Y57764D02*Y57384D01*
Y57764D02*X37363Y57955D01*
X37744D01*
X37935Y57764D01*
X37173Y57574D02*X37935D01*
Y57764D02*Y57574D01*
X39154Y58717D02*Y57193D01*
X38964D02*X39154Y57384D01*
X38583Y57193D02*X38964D01*
X38392Y57384D02*X38583Y57193D01*
X38392Y57764D02*Y57384D01*
Y57764D02*X38583Y57955D01*
X38964D01*
X39154Y57764D01*
X39992Y57955D02*Y57764D01*
Y57384D02*Y57193D01*
X39611Y58526D02*Y58336D01*
Y58526D02*X39802Y58717D01*
X40183D01*
X40373Y58526D01*
Y58336D01*
X39992Y57955D02*X40373Y58336D01*
X33020Y56367D02*X40831D01*
X0Y62527D02*X762D01*
X381D02*Y61003D01*
X1219Y62527D02*Y61003D01*
Y61574D02*X1410Y61765D01*
X1791D01*
X1981Y61574D01*
Y61003D01*
X2629D02*X3200D01*
X2438Y61194D02*X2629Y61003D01*
X2438Y61574D02*Y61194D01*
Y61574D02*X2629Y61765D01*
X3010D01*
X3200Y61574D01*
X2438Y61384D02*X3200D01*
Y61574D02*Y61384D01*
X3848Y61574D02*Y61003D01*
Y61574D02*X4039Y61765D01*
X4420D01*
X3658D02*X3848Y61574D01*
X5067Y61003D02*X5639D01*
X4877Y61194D02*X5067Y61003D01*
X4877Y61574D02*Y61194D01*
Y61574D02*X5067Y61765D01*
X5448D01*
X5639Y61574D01*
X4877Y61384D02*X5639D01*
Y61574D02*Y61384D01*
X7353Y61765D02*X7544Y61574D01*
X6972Y61765D02*X7353D01*
X6782Y61574D02*X6972Y61765D01*
X6782Y61574D02*Y61194D01*
X6972Y61003D01*
X7544Y61765D02*Y61194D01*
X7734Y61003D01*
X6972D02*X7353D01*
X7544Y61194D01*
X8382Y61574D02*Y61003D01*
Y61574D02*X8573Y61765D01*
X8954D01*
X8192D02*X8382Y61574D01*
X9601Y61003D02*X10173D01*
X9411Y61194D02*X9601Y61003D01*
X9411Y61574D02*Y61194D01*
Y61574D02*X9601Y61765D01*
X9982D01*
X10173Y61574D01*
X9411Y61384D02*X10173D01*
Y61574D02*Y61384D01*
X11316Y62336D02*X11506Y62527D01*
X12078D01*
X12268Y62336D01*
Y61956D01*
X11316Y61003D02*X12268Y61956D01*
X11316Y61003D02*X12268D01*
X14173Y62527D02*Y61003D01*
X13983D02*X14173Y61194D01*
X13602Y61003D02*X13983D01*
X13411Y61194D02*X13602Y61003D01*
X13411Y61574D02*Y61194D01*
Y61574D02*X13602Y61765D01*
X13983D01*
X14173Y61574D01*
G54D60*X14630Y62146D02*Y62108D01*
G54D59*Y61574D02*Y61003D01*
X15202Y62336D02*Y61003D01*
Y62336D02*X15392Y62527D01*
X15583D01*
X15011Y61765D02*X15392D01*
X16154Y62336D02*Y61003D01*
Y62336D02*X16345Y62527D01*
X16535D01*
X15964Y61765D02*X16345D01*
X17107Y61003D02*X17678D01*
X16916Y61194D02*X17107Y61003D01*
X16916Y61574D02*Y61194D01*
Y61574D02*X17107Y61765D01*
X17488D01*
X17678Y61574D01*
X16916Y61384D02*X17678D01*
Y61574D02*Y61384D01*
X18326Y61574D02*Y61003D01*
Y61574D02*X18517Y61765D01*
X18898D01*
X18136D02*X18326Y61574D01*
X19545Y61003D02*X20117D01*
X19355Y61194D02*X19545Y61003D01*
X19355Y61574D02*Y61194D01*
Y61574D02*X19545Y61765D01*
X19926D01*
X20117Y61574D01*
X19355Y61384D02*X20117D01*
Y61574D02*Y61384D01*
X20765Y61574D02*Y61003D01*
Y61574D02*X20955Y61765D01*
X21146D01*
X21336Y61574D01*
Y61003D01*
X20574Y61765D02*X20765Y61574D01*
X21984Y62527D02*Y61194D01*
X22174Y61003D01*
X21793Y61956D02*X22174D01*
X24003Y62527D02*Y61003D01*
X23813D02*X24003Y61194D01*
X23432Y61003D02*X23813D01*
X23241Y61194D02*X23432Y61003D01*
X23241Y61574D02*Y61194D01*
Y61574D02*X23432Y61765D01*
X23813D01*
X24003Y61574D01*
X24651D02*Y61003D01*
Y61574D02*X24841Y61765D01*
X25222D01*
X24460D02*X24651Y61574D01*
G54D60*X25679Y62146D02*Y62108D01*
G54D59*Y61574D02*Y61003D01*
X26060Y62527D02*Y61194D01*
X26251Y61003D01*
X26632Y62527D02*Y61194D01*
X26822Y61003D01*
X28080D02*X28651D01*
X28842Y61194D01*
X28651Y61384D02*X28842Y61194D01*
X28080Y61384D02*X28651D01*
X27889Y61574D02*X28080Y61384D01*
X27889Y61574D02*X28080Y61765D01*
X28651D01*
X28842Y61574D01*
X27889Y61194D02*X28080Y61003D01*
G54D60*X29299Y62146D02*Y62108D01*
G54D59*Y61574D02*Y61003D01*
X29680Y61765D02*X30442D01*
X29680Y61003D02*X30442Y61765D01*
X29680Y61003D02*X30442D01*
X31090D02*X31661D01*
X30899Y61194D02*X31090Y61003D01*
X30899Y61574D02*Y61194D01*
Y61574D02*X31090Y61765D01*
X31471D01*
X31661Y61574D01*
X30899Y61384D02*X31661D01*
Y61574D02*Y61384D01*
X32309Y61003D02*X32880D01*
X33071Y61194D01*
X32880Y61384D02*X33071Y61194D01*
X32309Y61384D02*X32880D01*
X32118Y61574D02*X32309Y61384D01*
X32118Y61574D02*X32309Y61765D01*
X32880D01*
X33071Y61574D01*
X32118Y61194D02*X32309Y61003D01*
X34214Y61765D02*Y61194D01*
X34404Y61003D01*
X34785D01*
X34976Y61194D01*
Y61765D02*Y61194D01*
X35624Y61003D02*X36195D01*
X36386Y61194D01*
X36195Y61384D02*X36386Y61194D01*
X35624Y61384D02*X36195D01*
X35433Y61574D02*X35624Y61384D01*
X35433Y61574D02*X35624Y61765D01*
X36195D01*
X36386Y61574D01*
X35433Y61194D02*X35624Y61003D01*
X37033D02*X37605D01*
X36843Y61194D02*X37033Y61003D01*
X36843Y61574D02*Y61194D01*
Y61574D02*X37033Y61765D01*
X37414D01*
X37605Y61574D01*
X36843Y61384D02*X37605D01*
Y61574D02*Y61384D01*
X38824Y62527D02*Y61003D01*
X38633D02*X38824Y61194D01*
X38252Y61003D02*X38633D01*
X38062Y61194D02*X38252Y61003D01*
X38062Y61574D02*Y61194D01*
Y61574D02*X38252Y61765D01*
X38633D01*
X38824Y61574D01*
G54D60*X39967Y62146D02*Y62108D01*
G54D59*Y61574D02*Y61003D01*
X40538Y61574D02*Y61003D01*
Y61574D02*X40729Y61765D01*
X40919D01*
X41110Y61574D01*
Y61003D01*
X40348Y61765D02*X40538Y61574D01*
X42443Y62527D02*Y61194D01*
X42634Y61003D01*
X42253Y61956D02*X42634D01*
X43015Y62527D02*Y61003D01*
Y61574D02*X43205Y61765D01*
X43586D01*
X43777Y61574D01*
Y61003D01*
G54D60*X44234Y62146D02*Y62108D01*
G54D59*Y61574D02*Y61003D01*
X44806D02*X45377D01*
X45568Y61194D01*
X45377Y61384D02*X45568Y61194D01*
X44806Y61384D02*X45377D01*
X44615Y61574D02*X44806Y61384D01*
X44615Y61574D02*X44806Y61765D01*
X45377D01*
X45568Y61574D01*
X44615Y61194D02*X44806Y61003D01*
X46711Y62527D02*Y61194D01*
X46901Y61003D01*
X47854Y61765D02*X48044Y61574D01*
X47473Y61765D02*X47854D01*
X47282Y61574D02*X47473Y61765D01*
X47282Y61574D02*Y61194D01*
X47473Y61003D01*
X48044Y61765D02*Y61194D01*
X48235Y61003D01*
X47473D02*X47854D01*
X48044Y61194D01*
X48692Y61765D02*Y61194D01*
X48882Y61003D01*
X49454Y61765D02*Y60622D01*
X49263Y60432D02*X49454Y60622D01*
X48882Y60432D02*X49263D01*
X48692Y60622D02*X48882Y60432D01*
Y61003D02*X49263D01*
X49454Y61194D01*
X49911Y61574D02*Y61194D01*
Y61574D02*X50102Y61765D01*
X50483D01*
X50673Y61574D01*
Y61194D01*
X50483Y61003D02*X50673Y61194D01*
X50102Y61003D02*X50483D01*
X49911Y61194D02*X50102Y61003D01*
X51130Y61765D02*Y61194D01*
X51321Y61003D01*
X51702D01*
X51892Y61194D01*
Y61765D02*Y61194D01*
X52540Y62527D02*Y61194D01*
X52730Y61003D01*
X52349Y61956D02*X52730D01*
X53111Y60622D02*X53492Y61003D01*
X54635Y61574D02*X55397Y62527D01*
X54635Y61574D02*X55588D01*
X55397Y62527D02*Y61003D01*
X56045Y61194D02*X56236Y61003D01*
X56045Y61498D02*Y61194D01*
Y61498D02*X56312Y61765D01*
X56540D01*
X56807Y61498D01*
Y61194D01*
X56617Y61003D02*X56807Y61194D01*
X56236Y61003D02*X56617D01*
X56045Y62032D02*X56312Y61765D01*
X56045Y62336D02*Y62032D01*
Y62336D02*X56236Y62527D01*
X56617D01*
X56807Y62336D01*
Y62032D01*
X56540Y61765D02*X56807Y62032D01*
X57950Y62527D02*Y61003D01*
Y61574D02*X58141Y61765D01*
X58522D01*
X58712Y61574D01*
Y61003D01*
X59169Y61574D02*Y61194D01*
Y61574D02*X59360Y61765D01*
X59741D01*
X59931Y61574D01*
Y61194D01*
X59741Y61003D02*X59931Y61194D01*
X59360Y61003D02*X59741D01*
X59169Y61194D02*X59360Y61003D01*
X60389Y62527D02*Y61194D01*
X60579Y61003D01*
X61151D02*X61722D01*
X60960Y61194D02*X61151Y61003D01*
X60960Y61574D02*Y61194D01*
Y61574D02*X61151Y61765D01*
X61532D01*
X61722Y61574D01*
X60960Y61384D02*X61722D01*
Y61574D02*Y61384D01*
X62370Y61003D02*X62941D01*
X63132Y61194D01*
X62941Y61384D02*X63132Y61194D01*
X62370Y61384D02*X62941D01*
X62179Y61574D02*X62370Y61384D01*
X62179Y61574D02*X62370Y61765D01*
X62941D01*
X63132Y61574D01*
X62179Y61194D02*X62370Y61003D01*
X64465Y62527D02*Y61194D01*
X64656Y61003D01*
X64275Y61956D02*X64656D01*
X65037Y61574D02*Y61194D01*
Y61574D02*X65227Y61765D01*
X65608D01*
X65799Y61574D01*
Y61194D01*
X65608Y61003D02*X65799Y61194D01*
X65227Y61003D02*X65608D01*
X65037Y61194D02*X65227Y61003D01*
X66446Y62527D02*Y61194D01*
X66637Y61003D01*
X66256Y61956D02*X66637D01*
X67589Y61765D02*X67780Y61574D01*
X67208Y61765D02*X67589D01*
X67018Y61574D02*X67208Y61765D01*
X67018Y61574D02*Y61194D01*
X67208Y61003D01*
X67780Y61765D02*Y61194D01*
X67970Y61003D01*
X67208D02*X67589D01*
X67780Y61194D01*
X68428Y62527D02*Y61194D01*
X68618Y61003D01*
G54D61*X0Y40048D02*X170000D01*
X0D02*Y0D01*
X170000Y40048D02*Y0D01*
X0D02*X170000D01*
G54D59*X50800Y43477D02*Y41953D01*
Y43477D02*X51372Y42715D01*
X51943Y43477D01*
Y41953D01*
X52972Y42715D02*X53162Y42524D01*
X52591Y42715D02*X52972D01*
X52400Y42524D02*X52591Y42715D01*
X52400Y42524D02*Y42144D01*
X52591Y41953D01*
X53162Y42715D02*Y42144D01*
X53353Y41953D01*
X52591D02*X52972D01*
X53162Y42144D01*
X53810Y42715D02*X54572Y41953D01*
X53810D02*X54572Y42715D01*
G54D60*X55029Y43096D02*Y43058D01*
G54D59*Y42524D02*Y41953D01*
X55601Y42524D02*Y41953D01*
Y42524D02*X55791Y42715D01*
X55982D01*
X56172Y42524D01*
Y41953D01*
Y42524D02*X56363Y42715D01*
X56553D01*
X56744Y42524D01*
Y41953D01*
X55410Y42715D02*X55601Y42524D01*
X57201Y42715D02*Y42144D01*
X57391Y41953D01*
X57772D01*
X57963Y42144D01*
Y42715D02*Y42144D01*
X58611Y42524D02*Y41953D01*
Y42524D02*X58801Y42715D01*
X58992D01*
X59182Y42524D01*
Y41953D01*
Y42524D02*X59373Y42715D01*
X59563D01*
X59754Y42524D01*
Y41953D01*
X58420Y42715D02*X58611Y42524D01*
X61087Y43477D02*Y41953D01*
X61582Y43477D02*X61849Y43210D01*
Y42220D01*
X61582Y41953D02*X61849Y42220D01*
X60897Y41953D02*X61582D01*
X60897Y43477D02*X61582D01*
G54D60*X62306Y43096D02*Y43058D01*
G54D59*Y42524D02*Y41953D01*
X62878Y42524D02*Y41953D01*
Y42524D02*X63068Y42715D01*
X63259D01*
X63449Y42524D01*
Y41953D01*
Y42524D02*X63640Y42715D01*
X63830D01*
X64021Y42524D01*
Y41953D01*
X62687Y42715D02*X62878Y42524D01*
X64668Y41953D02*X65240D01*
X64478Y42144D02*X64668Y41953D01*
X64478Y42524D02*Y42144D01*
Y42524D02*X64668Y42715D01*
X65049D01*
X65240Y42524D01*
X64478Y42334D02*X65240D01*
Y42524D02*Y42334D01*
X65888Y42524D02*Y41953D01*
Y42524D02*X66078Y42715D01*
X66269D01*
X66459Y42524D01*
Y41953D01*
X65697Y42715D02*X65888Y42524D01*
X67107Y41953D02*X67678D01*
X67869Y42144D01*
X67678Y42334D02*X67869Y42144D01*
X67107Y42334D02*X67678D01*
X66916Y42524D02*X67107Y42334D01*
X66916Y42524D02*X67107Y42715D01*
X67678D01*
X67869Y42524D01*
X66916Y42144D02*X67107Y41953D01*
G54D60*X68326Y43096D02*Y43058D01*
G54D59*Y42524D02*Y41953D01*
X68707Y42524D02*Y42144D01*
Y42524D02*X68898Y42715D01*
X69279D01*
X69469Y42524D01*
Y42144D01*
X69279Y41953D02*X69469Y42144D01*
X68898Y41953D02*X69279D01*
X68707Y42144D02*X68898Y41953D01*
X70117Y42524D02*Y41953D01*
Y42524D02*X70307Y42715D01*
X70498D01*
X70688Y42524D01*
Y41953D01*
X69926Y42715D02*X70117Y42524D01*
X71336Y41953D02*X71907D01*
X72098Y42144D01*
X71907Y42334D02*X72098Y42144D01*
X71336Y42334D02*X71907D01*
X71145Y42524D02*X71336Y42334D01*
X71145Y42524D02*X71336Y42715D01*
X71907D01*
X72098Y42524D01*
X71145Y42144D02*X71336Y41953D01*
X72555Y42906D02*X72746D01*
X72555Y42524D02*X72746D01*
X74460Y43477D02*X74651Y43286D01*
X74079Y43477D02*X74460D01*
X73889Y43286D02*X74079Y43477D01*
X73889Y43286D02*Y42144D01*
X74079Y41953D01*
X74460Y42791D02*X74651Y42601D01*
X73889Y42791D02*X74460D01*
X74079Y41953D02*X74460D01*
X74651Y42144D01*
Y42601D02*Y42144D01*
X75679Y43477D02*X75870Y43286D01*
X75298Y43477D02*X75679D01*
X75108Y43286D02*X75298Y43477D01*
X75108Y43286D02*Y42144D01*
X75298Y41953D01*
X75679Y42791D02*X75870Y42601D01*
X75108Y42791D02*X75679D01*
X75298Y41953D02*X75679D01*
X75870Y42144D01*
Y42601D02*Y42144D01*
X76518Y41953D02*X77089Y42715D01*
Y43286D02*Y42715D01*
X76899Y43477D02*X77089Y43286D01*
X76518Y43477D02*X76899D01*
X76327Y43286D02*X76518Y43477D01*
X76327Y43286D02*Y42906D01*
X76518Y42715D01*
X77089D01*
X77546Y43286D02*X77737Y43477D01*
X78308D01*
X78499Y43286D01*
Y42906D01*
X77546Y41953D02*X78499Y42906D01*
X77546Y41953D02*X78499D01*
X78956D02*X79146D01*
X79794D02*X80366Y42715D01*
Y43286D02*Y42715D01*
X80175Y43477D02*X80366Y43286D01*
X79794Y43477D02*X80175D01*
X79604Y43286D02*X79794Y43477D01*
X79604Y43286D02*Y42906D01*
X79794Y42715D01*
X80366D01*
X80823Y43172D02*X81128Y43477D01*
Y41953D01*
X80823D02*X81394D01*
X81852Y43286D02*X82042Y43477D01*
X82423D01*
X82614Y43286D01*
X82423Y41953D02*X82614Y42144D01*
X82042Y41953D02*X82423D01*
X81852Y42144D02*X82042Y41953D01*
Y42791D02*X82423D01*
X82614Y43286D02*Y42982D01*
Y42601D02*Y42144D01*
Y42601D02*X82423Y42791D01*
X82614Y42982D02*X82423Y42791D01*
X83071Y43286D02*X83261Y43477D01*
X83642D01*
X83833Y43286D01*
X83642Y41953D02*X83833Y42144D01*
X83261Y41953D02*X83642D01*
X83071Y42144D02*X83261Y41953D01*
Y42791D02*X83642D01*
X83833Y43286D02*Y42982D01*
Y42601D02*Y42144D01*
Y42601D02*X83642Y42791D01*
X83833Y42982D02*X83642Y42791D01*
X84290Y42144D02*X84480Y41953D01*
X84290Y42448D02*Y42144D01*
Y42448D02*X84557Y42715D01*
X84785D01*
X85052Y42448D01*
Y42144D01*
X84861Y41953D02*X85052Y42144D01*
X84480Y41953D02*X84861D01*
X84290Y42982D02*X84557Y42715D01*
X84290Y43286D02*Y42982D01*
Y43286D02*X84480Y43477D01*
X84861D01*
X85052Y43286D01*
Y42982D01*
X84785Y42715D02*X85052Y42982D01*
X86081Y43477D02*X86271Y43286D01*
X85700Y43477D02*X86081D01*
X85509Y43286D02*X85700Y43477D01*
X85509Y43286D02*Y42144D01*
X85700Y41953D01*
X86081Y42791D02*X86271Y42601D01*
X85509Y42791D02*X86081D01*
X85700Y41953D02*X86081D01*
X86271Y42144D01*
Y42601D02*Y42144D01*
X87605Y42524D02*Y41953D01*
Y42524D02*X87795Y42715D01*
X87986D01*
X88176Y42524D01*
Y41953D01*
Y42524D02*X88367Y42715D01*
X88557D01*
X88748Y42524D01*
Y41953D01*
X87414Y42715D02*X87605Y42524D01*
G54D60*X89205Y43096D02*Y43058D01*
G54D59*Y42524D02*Y41953D01*
X89586Y43477D02*Y42144D01*
X89776Y41953D01*
X90348D02*X90919D01*
X91110Y42144D01*
X90919Y42334D02*X91110Y42144D01*
X90348Y42334D02*X90919D01*
X90157Y42524D02*X90348Y42334D01*
X90157Y42524D02*X90348Y42715D01*
X90919D01*
X91110Y42524D01*
X90157Y42144D02*X90348Y41953D01*
X92253Y42715D02*Y42144D01*
X92443Y41953D01*
X92634D01*
X92824Y42144D01*
Y42715D02*Y42144D01*
X93015Y41953D01*
X93205D01*
X93396Y42144D01*
Y42715D02*Y42144D01*
G54D60*X93853Y43096D02*Y43058D01*
G54D59*Y42524D02*Y41953D01*
X94996Y43477D02*Y41953D01*
X94806D02*X94996Y42144D01*
X94425Y41953D02*X94806D01*
X94234Y42144D02*X94425Y41953D01*
X94234Y42524D02*Y42144D01*
Y42524D02*X94425Y42715D01*
X94806D01*
X94996Y42524D01*
X95644Y41953D02*X96215D01*
X95453Y42144D02*X95644Y41953D01*
X95453Y42524D02*Y42144D01*
Y42524D02*X95644Y42715D01*
X96025D01*
X96215Y42524D01*
X95453Y42334D02*X96215D01*
Y42524D02*Y42334D01*
X96672Y41572D02*X97053Y41953D01*
X98196Y43172D02*X98501Y43477D01*
Y41953D01*
X98196D02*X98768D01*
X99225Y43477D02*X99987D01*
X99225D02*Y42715D01*
X99416Y42906D01*
X99797D01*
X99987Y42715D01*
Y42144D01*
X99797Y41953D02*X99987Y42144D01*
X99416Y41953D02*X99797D01*
X99225Y42144D02*X99416Y41953D01*
X100635D02*X101397Y43477D01*
X100444D02*X101397D01*
X102426D02*X102616Y43286D01*
X102045Y43477D02*X102426D01*
X101854Y43286D02*X102045Y43477D01*
X101854Y43286D02*Y42144D01*
X102045Y41953D01*
X102426Y42791D02*X102616Y42601D01*
X101854Y42791D02*X102426D01*
X102045Y41953D02*X102426D01*
X102616Y42144D01*
Y42601D02*Y42144D01*
X103073Y41953D02*X103264D01*
X104292Y43477D02*X104483Y43286D01*
X103911Y43477D02*X104292D01*
X103721Y43286D02*X103911Y43477D01*
X103721Y43286D02*Y42144D01*
X103911Y41953D01*
X104292Y42791D02*X104483Y42601D01*
X103721Y42791D02*X104292D01*
X103911Y41953D02*X104292D01*
X104483Y42144D01*
Y42601D02*Y42144D01*
X105131Y41953D02*X105702Y42715D01*
Y43286D02*Y42715D01*
X105512Y43477D02*X105702Y43286D01*
X105131Y43477D02*X105512D01*
X104940Y43286D02*X105131Y43477D01*
X104940Y43286D02*Y42906D01*
X105131Y42715D01*
X105702D01*
X106159Y43286D02*X106350Y43477D01*
X106921D01*
X107112Y43286D01*
Y42906D01*
X106159Y41953D02*X107112Y42906D01*
X106159Y41953D02*X107112D01*
X107760D02*X108331Y42715D01*
Y43286D02*Y42715D01*
X108141Y43477D02*X108331Y43286D01*
X107760Y43477D02*X108141D01*
X107569Y43286D02*X107760Y43477D01*
X107569Y43286D02*Y42906D01*
X107760Y42715D01*
X108331D01*
X108788Y43172D02*X109093Y43477D01*
Y41953D01*
X108788D02*X109360D01*
X109817Y43286D02*X110007Y43477D01*
X110388D01*
X110579Y43286D01*
X110388Y41953D02*X110579Y42144D01*
X110007Y41953D02*X110388D01*
X109817Y42144D02*X110007Y41953D01*
Y42791D02*X110388D01*
X110579Y43286D02*Y42982D01*
Y42601D02*Y42144D01*
Y42601D02*X110388Y42791D01*
X110579Y42982D02*X110388Y42791D01*
X111912Y42524D02*Y41953D01*
Y42524D02*X112103Y42715D01*
X112293D01*
X112484Y42524D01*
Y41953D01*
Y42524D02*X112674Y42715D01*
X112865D01*
X113055Y42524D01*
Y41953D01*
X111722Y42715D02*X111912Y42524D01*
G54D60*X113513Y43096D02*Y43058D01*
G54D59*Y42524D02*Y41953D01*
X113894Y43477D02*Y42144D01*
X114084Y41953D01*
X114656D02*X115227D01*
X115418Y42144D01*
X115227Y42334D02*X115418Y42144D01*
X114656Y42334D02*X115227D01*
X114465Y42524D02*X114656Y42334D01*
X114465Y42524D02*X114656Y42715D01*
X115227D01*
X115418Y42524D01*
X114465Y42144D02*X114656Y41953D01*
X116561Y43477D02*Y41953D01*
Y42524D02*X116751Y42715D01*
X117132D01*
X117323Y42524D01*
Y41953D01*
G54D60*X117780Y43096D02*Y43058D01*
G54D59*Y42524D02*Y41953D01*
X118732Y42715D02*X118923Y42524D01*
X118351Y42715D02*X118732D01*
X118161Y42524D02*X118351Y42715D01*
X118161Y42524D02*Y42144D01*
X118351Y41953D01*
X118732D01*
X118923Y42144D01*
X118161Y41572D02*X118351Y41382D01*
X118732D01*
X118923Y41572D01*
Y42715D02*Y41572D01*
X119380Y43477D02*Y41953D01*
Y42524D02*X119571Y42715D01*
X119952D01*
X120142Y42524D01*
Y41953D01*
X33508Y-2413D02*X34270D01*
X34460Y-2222D01*
Y-1765D02*Y-2222D01*
X34270Y-1575D02*X34460Y-1765D01*
X33698Y-1575D02*X34270D01*
X33698Y-889D02*Y-2413D01*
X33508Y-889D02*X34270D01*
X34460Y-1080D01*
Y-1384D01*
X34270Y-1575D02*X34460Y-1384D01*
X34917Y-1842D02*Y-2222D01*
Y-1842D02*X35108Y-1651D01*
X35489D01*
X35679Y-1842D01*
Y-2222D01*
X35489Y-2413D02*X35679Y-2222D01*
X35108Y-2413D02*X35489D01*
X34917Y-2222D02*X35108Y-2413D01*
X36708Y-1651D02*X36899Y-1842D01*
X36327Y-1651D02*X36708D01*
X36137Y-1842D02*X36327Y-1651D01*
X36137Y-1842D02*Y-2222D01*
X36327Y-2413D01*
X36899Y-1651D02*Y-2222D01*
X37089Y-2413D01*
X36327D02*X36708D01*
X36899Y-2222D01*
X37737Y-1842D02*Y-2413D01*
Y-1842D02*X37927Y-1651D01*
X38308D01*
X37546D02*X37737Y-1842D01*
X39528Y-889D02*Y-2413D01*
X39337D02*X39528Y-2222D01*
X38956Y-2413D02*X39337D01*
X38766Y-2222D02*X38956Y-2413D01*
X38766Y-1842D02*Y-2222D01*
Y-1842D02*X38956Y-1651D01*
X39337D01*
X39528Y-1842D01*
X40671D02*Y-2222D01*
Y-1842D02*X40861Y-1651D01*
X41242D01*
X41433Y-1842D01*
Y-2222D01*
X41242Y-2413D02*X41433Y-2222D01*
X40861Y-2413D02*X41242D01*
X40671Y-2222D02*X40861Y-2413D01*
X41890Y-1651D02*Y-2222D01*
X42080Y-2413D01*
X42461D01*
X42652Y-2222D01*
Y-1651D02*Y-2222D01*
X43299Y-889D02*Y-2222D01*
X43490Y-2413D01*
X43109Y-1460D02*X43490D01*
X43871Y-889D02*Y-2222D01*
X44061Y-2413D01*
G54D60*X44442Y-1270D02*Y-1308D01*
G54D59*Y-1842D02*Y-2413D01*
X45014Y-1842D02*Y-2413D01*
Y-1842D02*X45205Y-1651D01*
X45395D01*
X45586Y-1842D01*
Y-2413D01*
X44824Y-1651D02*X45014Y-1842D01*
X46233Y-2413D02*X46805D01*
X46043Y-2222D02*X46233Y-2413D01*
X46043Y-1842D02*Y-2222D01*
Y-1842D02*X46233Y-1651D01*
X46614D01*
X46805Y-1842D01*
X46043Y-2032D02*X46805D01*
Y-1842D02*Y-2032D01*
G54D60*X47948Y-1270D02*Y-1308D01*
G54D59*Y-1842D02*Y-2413D01*
X48519D02*X49091D01*
X49281Y-2222D01*
X49091Y-2032D02*X49281Y-2222D01*
X48519Y-2032D02*X49091D01*
X48329Y-1842D02*X48519Y-2032D01*
X48329Y-1842D02*X48519Y-1651D01*
X49091D01*
X49281Y-1842D01*
X48329Y-2222D02*X48519Y-2413D01*
X50615Y-889D02*Y-2222D01*
X50805Y-2413D01*
X50424Y-1460D02*X50805D01*
X51186Y-889D02*Y-2413D01*
Y-1842D02*X51377Y-1651D01*
X51758D01*
X51948Y-1842D01*
Y-2413D01*
X52596D02*X53167D01*
X52405Y-2222D02*X52596Y-2413D01*
X52405Y-1842D02*Y-2222D01*
Y-1842D02*X52596Y-1651D01*
X52977D01*
X53167Y-1842D01*
X52405Y-2032D02*X53167D01*
Y-1842D02*Y-2032D01*
X54501Y-1651D02*X55072D01*
X54310Y-1842D02*X54501Y-1651D01*
X54310Y-1842D02*Y-2222D01*
X54501Y-2413D01*
X55072D01*
X55720D02*X56292D01*
X55530Y-2222D02*X55720Y-2413D01*
X55530Y-1842D02*Y-2222D01*
Y-1842D02*X55720Y-1651D01*
X56101D01*
X56292Y-1842D01*
X55530Y-2032D02*X56292D01*
Y-1842D02*Y-2032D01*
X56939Y-1842D02*Y-2413D01*
Y-1842D02*X57130Y-1651D01*
X57320D01*
X57511Y-1842D01*
Y-2413D01*
X56749Y-1651D02*X56939Y-1842D01*
X58159Y-889D02*Y-2222D01*
X58349Y-2413D01*
X57968Y-1460D02*X58349D01*
X58921Y-2413D02*X59492D01*
X58730Y-2222D02*X58921Y-2413D01*
X58730Y-1842D02*Y-2222D01*
Y-1842D02*X58921Y-1651D01*
X59302D01*
X59492Y-1842D01*
X58730Y-2032D02*X59492D01*
Y-1842D02*Y-2032D01*
X60140Y-1842D02*Y-2413D01*
Y-1842D02*X60330Y-1651D01*
X60711D01*
X59949D02*X60140Y-1842D01*
X61168Y-889D02*Y-2222D01*
X61359Y-2413D01*
G54D60*X61740Y-1270D02*Y-1308D01*
G54D59*Y-1842D02*Y-2413D01*
X62311Y-1842D02*Y-2413D01*
Y-1842D02*X62502Y-1651D01*
X62692D01*
X62883Y-1842D01*
Y-2413D01*
X62121Y-1651D02*X62311Y-1842D01*
X63531Y-2413D02*X64102D01*
X63340Y-2222D02*X63531Y-2413D01*
X63340Y-1842D02*Y-2222D01*
Y-1842D02*X63531Y-1651D01*
X63912D01*
X64102Y-1842D01*
X63340Y-2032D02*X64102D01*
Y-1842D02*Y-2032D01*
X65245Y-1842D02*Y-2222D01*
Y-1842D02*X65436Y-1651D01*
X65817D01*
X66007Y-1842D01*
Y-2222D01*
X65817Y-2413D02*X66007Y-2222D01*
X65436Y-2413D02*X65817D01*
X65245Y-2222D02*X65436Y-2413D01*
X66655Y-1080D02*Y-2413D01*
Y-1080D02*X66845Y-889D01*
X67036D01*
X66464Y-1651D02*X66845D01*
X68293Y-889D02*Y-2222D01*
X68484Y-2413D01*
X68103Y-1460D02*X68484D01*
X68865Y-889D02*Y-2413D01*
Y-1842D02*X69055Y-1651D01*
X69436D01*
X69627Y-1842D01*
Y-2413D01*
G54D60*X70084Y-1270D02*Y-1308D01*
G54D59*Y-1842D02*Y-2413D01*
X70655D02*X71227D01*
X71417Y-2222D01*
X71227Y-2032D02*X71417Y-2222D01*
X70655Y-2032D02*X71227D01*
X70465Y-1842D02*X70655Y-2032D01*
X70465Y-1842D02*X70655Y-1651D01*
X71227D01*
X71417Y-1842D01*
X70465Y-2222D02*X70655Y-2413D01*
X72560Y-2222D02*X72751Y-2413D01*
X72560Y-1918D02*Y-2222D01*
Y-1918D02*X72827Y-1651D01*
X73056D01*
X73322Y-1918D01*
Y-2222D01*
X73132Y-2413D02*X73322Y-2222D01*
X72751Y-2413D02*X73132D01*
X72560Y-1384D02*X72827Y-1651D01*
X72560Y-1080D02*Y-1384D01*
Y-1080D02*X72751Y-889D01*
X73132D01*
X73322Y-1080D01*
Y-1384D01*
X73056Y-1651D02*X73322Y-1384D01*
X73780Y-2413D02*X73970D01*
X74427Y-2222D02*X74618Y-2413D01*
X74427Y-1080D02*Y-2222D01*
Y-1080D02*X74618Y-889D01*
X74999D01*
X75189Y-1080D01*
Y-2222D01*
X74999Y-2413D02*X75189Y-2222D01*
X74618Y-2413D02*X74999D01*
X74427Y-2032D02*X75189Y-1270D01*
X75646Y-2222D02*X75837Y-2413D01*
X75646Y-1080D02*Y-2222D01*
Y-1080D02*X75837Y-889D01*
X76218D01*
X76408Y-1080D01*
Y-2222D01*
X76218Y-2413D02*X76408Y-2222D01*
X75837Y-2413D02*X76218D01*
X75646Y-2032D02*X76408Y-1270D01*
X76866Y-2222D02*X77056Y-2413D01*
X76866Y-1080D02*Y-2222D01*
Y-1080D02*X77056Y-889D01*
X77437D01*
X77628Y-1080D01*
Y-2222D01*
X77437Y-2413D02*X77628Y-2222D01*
X77056Y-2413D02*X77437D01*
X76866Y-2032D02*X77628Y-1270D01*
X78085Y-2222D02*X78275Y-2413D01*
X78085Y-1080D02*Y-2222D01*
Y-1080D02*X78275Y-889D01*
X78656D01*
X78847Y-1080D01*
Y-2222D01*
X78656Y-2413D02*X78847Y-2222D01*
X78275Y-2413D02*X78656D01*
X78085Y-2032D02*X78847Y-1270D01*
X79304Y-2222D02*X79495Y-2413D01*
X79304Y-1080D02*Y-2222D01*
Y-1080D02*X79495Y-889D01*
X79876D01*
X80066Y-1080D01*
Y-2222D01*
X79876Y-2413D02*X80066Y-2222D01*
X79495Y-2413D02*X79876D01*
X79304Y-2032D02*X80066Y-1270D01*
X80523Y-2222D02*X80714Y-2413D01*
X80523Y-1080D02*Y-2222D01*
Y-1080D02*X80714Y-889D01*
X81095D01*
X81285Y-1080D01*
Y-2222D01*
X81095Y-2413D02*X81285Y-2222D01*
X80714Y-2413D02*X81095D01*
X80523Y-2032D02*X81285Y-1270D01*
X82619Y-1842D02*Y-2413D01*
Y-1842D02*X82809Y-1651D01*
X83000D01*
X83190Y-1842D01*
Y-2413D01*
Y-1842D02*X83381Y-1651D01*
X83571D01*
X83762Y-1842D01*
Y-2413D01*
X82428Y-1651D02*X82619Y-1842D01*
G54D60*X84219Y-1270D02*Y-1308D01*
G54D59*Y-1842D02*Y-2413D01*
X84600Y-889D02*Y-2222D01*
X84790Y-2413D01*
X86048Y-1842D02*Y-2413D01*
Y-1842D02*X86238Y-1651D01*
X86619D01*
X85857D02*X86048Y-1842D01*
X87267Y-2413D02*X87838D01*
X87076Y-2222D02*X87267Y-2413D01*
X87076Y-1842D02*Y-2222D01*
Y-1842D02*X87267Y-1651D01*
X87648D01*
X87838Y-1842D01*
X87076Y-2032D02*X87838D01*
Y-1842D02*Y-2032D01*
X88486Y-1651D02*X89058D01*
X88296Y-1842D02*X88486Y-1651D01*
X88296Y-1842D02*Y-2222D01*
X88486Y-2413D01*
X89058D01*
X89705Y-889D02*Y-2222D01*
X89896Y-2413D01*
X89515Y-1460D02*X89896D01*
X90848Y-1651D02*X91039Y-1842D01*
X90467Y-1651D02*X90848D01*
X90277Y-1842D02*X90467Y-1651D01*
X90277Y-1842D02*Y-2222D01*
X90467Y-2413D01*
X91039Y-1651D02*Y-2222D01*
X91229Y-2413D01*
X90467D02*X90848D01*
X91039Y-2222D01*
X91877Y-1842D02*Y-2413D01*
Y-1842D02*X92068Y-1651D01*
X92258D01*
X92449Y-1842D01*
Y-2413D01*
X91687Y-1651D02*X91877Y-1842D01*
X93477Y-1651D02*X93668Y-1842D01*
X93096Y-1651D02*X93477D01*
X92906Y-1842D02*X93096Y-1651D01*
X92906Y-1842D02*Y-2222D01*
X93096Y-2413D01*
X93477D01*
X93668Y-2222D01*
X92906Y-2794D02*X93096Y-2984D01*
X93477D01*
X93668Y-2794D01*
Y-1651D02*Y-2794D01*
X94125Y-889D02*Y-2222D01*
X94315Y-2413D01*
X94887D02*X95458D01*
X94696Y-2222D02*X94887Y-2413D01*
X94696Y-1842D02*Y-2222D01*
Y-1842D02*X94887Y-1651D01*
X95268D01*
X95458Y-1842D01*
X94696Y-2032D02*X95458D01*
Y-1842D02*Y-2032D01*
X96601Y-1651D02*X97363D01*
X98506Y-2222D02*X98697Y-2413D01*
X98506Y-1080D02*Y-2222D01*
Y-1080D02*X98697Y-889D01*
X99078D01*
X99268Y-1080D01*
Y-2222D01*
X99078Y-2413D02*X99268Y-2222D01*
X98697Y-2413D02*X99078D01*
X98506Y-2032D02*X99268Y-1270D01*
X99726Y-2794D02*X100107Y-2413D01*
X100564Y-2222D02*X100754Y-2413D01*
X100564Y-1080D02*Y-2222D01*
Y-1080D02*X100754Y-889D01*
X101135D01*
X101326Y-1080D01*
Y-2222D01*
X101135Y-2413D02*X101326Y-2222D01*
X100754Y-2413D02*X101135D01*
X100564Y-2032D02*X101326Y-1270D01*
X102659Y-889D02*Y-2222D01*
X102850Y-2413D01*
X102469Y-1460D02*X102850D01*
X103231Y-1842D02*Y-2222D01*
Y-1842D02*X103421Y-1651D01*
X103802D01*
X103993Y-1842D01*
Y-2222D01*
X103802Y-2413D02*X103993Y-2222D01*
X103421Y-2413D02*X103802D01*
X103231Y-2222D02*X103421Y-2413D01*
X105707Y-889D02*X105898Y-1080D01*
X105326Y-889D02*X105707D01*
X105136Y-1080D02*X105326Y-889D01*
X105136Y-1080D02*Y-2222D01*
X105326Y-2413D01*
X105707Y-1575D02*X105898Y-1765D01*
X105136Y-1575D02*X105707D01*
X105326Y-2413D02*X105707D01*
X105898Y-2222D01*
Y-1765D02*Y-2222D01*
X106927Y-889D02*X107117Y-1080D01*
X106546Y-889D02*X106927D01*
X106355Y-1080D02*X106546Y-889D01*
X106355Y-1080D02*Y-2222D01*
X106546Y-2413D01*
X106927Y-1575D02*X107117Y-1765D01*
X106355Y-1575D02*X106927D01*
X106546Y-2413D02*X106927D01*
X107117Y-2222D01*
Y-1765D02*Y-2222D01*
X107765Y-2413D02*X108336Y-1651D01*
Y-1080D02*Y-1651D01*
X108146Y-889D02*X108336Y-1080D01*
X107765Y-889D02*X108146D01*
X107574Y-1080D02*X107765Y-889D01*
X107574Y-1080D02*Y-1460D01*
X107765Y-1651D01*
X108336D01*
X108793Y-1080D02*X108984Y-889D01*
X109555D01*
X109746Y-1080D01*
Y-1460D01*
X108793Y-2413D02*X109746Y-1460D01*
X108793Y-2413D02*X109746D01*
X110203D02*X110394D01*
X111041D02*X111613Y-1651D01*
Y-1080D02*Y-1651D01*
X111422Y-889D02*X111613Y-1080D01*
X111041Y-889D02*X111422D01*
X110851Y-1080D02*X111041Y-889D01*
X110851Y-1080D02*Y-1460D01*
X111041Y-1651D01*
X111613D01*
X112070Y-1194D02*X112375Y-889D01*
Y-2413D01*
X112070D02*X112642D01*
X113099Y-1080D02*X113289Y-889D01*
X113670D01*
X113861Y-1080D01*
X113670Y-2413D02*X113861Y-2222D01*
X113289Y-2413D02*X113670D01*
X113099Y-2222D02*X113289Y-2413D01*
Y-1575D02*X113670D01*
X113861Y-1080D02*Y-1384D01*
Y-1765D02*Y-2222D01*
Y-1765D02*X113670Y-1575D01*
X113861Y-1384D02*X113670Y-1575D01*
X114318Y-1080D02*X114508Y-889D01*
X114889D01*
X115080Y-1080D01*
X114889Y-2413D02*X115080Y-2222D01*
X114508Y-2413D02*X114889D01*
X114318Y-2222D02*X114508Y-2413D01*
Y-1575D02*X114889D01*
X115080Y-1080D02*Y-1384D01*
Y-1765D02*Y-2222D01*
Y-1765D02*X114889Y-1575D01*
X115080Y-1384D02*X114889Y-1575D01*
X115537Y-2222D02*X115728Y-2413D01*
X115537Y-1918D02*Y-2222D01*
Y-1918D02*X115804Y-1651D01*
X116032D01*
X116299Y-1918D01*
Y-2222D01*
X116109Y-2413D02*X116299Y-2222D01*
X115728Y-2413D02*X116109D01*
X115537Y-1384D02*X115804Y-1651D01*
X115537Y-1080D02*Y-1384D01*
Y-1080D02*X115728Y-889D01*
X116109D01*
X116299Y-1080D01*
Y-1384D01*
X116032Y-1651D02*X116299Y-1384D01*
X117328Y-889D02*X117518Y-1080D01*
X116947Y-889D02*X117328D01*
X116756Y-1080D02*X116947Y-889D01*
X116756Y-1080D02*Y-2222D01*
X116947Y-2413D01*
X117328Y-1575D02*X117518Y-1765D01*
X116756Y-1575D02*X117328D01*
X116947Y-2413D02*X117328D01*
X117518Y-2222D01*
Y-1765D02*Y-2222D01*
X117976Y-2794D02*X118357Y-2413D01*
X118814Y-1194D02*X119119Y-889D01*
Y-2413D01*
X118814D02*X119385D01*
X119842Y-889D02*X120604D01*
X119842D02*Y-1651D01*
X120033Y-1460D01*
X120414D01*
X120604Y-1651D01*
Y-2222D01*
X120414Y-2413D02*X120604Y-2222D01*
X120033Y-2413D02*X120414D01*
X119842Y-2222D02*X120033Y-2413D01*
X121252D02*X122014Y-889D01*
X121062D02*X122014D01*
X123043D02*X123233Y-1080D01*
X122662Y-889D02*X123043D01*
X122471Y-1080D02*X122662Y-889D01*
X122471Y-1080D02*Y-2222D01*
X122662Y-2413D01*
X123043Y-1575D02*X123233Y-1765D01*
X122471Y-1575D02*X123043D01*
X122662Y-2413D02*X123043D01*
X123233Y-2222D01*
Y-1765D02*Y-2222D01*
X123691Y-2413D02*X123881D01*
X124910Y-889D02*X125100Y-1080D01*
X124529Y-889D02*X124910D01*
X124338Y-1080D02*X124529Y-889D01*
X124338Y-1080D02*Y-2222D01*
X124529Y-2413D01*
X124910Y-1575D02*X125100Y-1765D01*
X124338Y-1575D02*X124910D01*
X124529Y-2413D02*X124910D01*
X125100Y-2222D01*
Y-1765D02*Y-2222D01*
X125748Y-2413D02*X126320Y-1651D01*
Y-1080D02*Y-1651D01*
X126129Y-889D02*X126320Y-1080D01*
X125748Y-889D02*X126129D01*
X125558Y-1080D02*X125748Y-889D01*
X125558Y-1080D02*Y-1460D01*
X125748Y-1651D01*
X126320D01*
X126777Y-1080D02*X126967Y-889D01*
X127539D01*
X127729Y-1080D01*
Y-1460D01*
X126777Y-2413D02*X127729Y-1460D01*
X126777Y-2413D02*X127729D01*
X128377D02*X128948Y-1651D01*
Y-1080D02*Y-1651D01*
X128758Y-889D02*X128948Y-1080D01*
X128377Y-889D02*X128758D01*
X128186Y-1080D02*X128377Y-889D01*
X128186Y-1080D02*Y-1460D01*
X128377Y-1651D01*
X128948D01*
X129406Y-1194D02*X129710Y-889D01*
Y-2413D01*
X129406D02*X129977D01*
X130434Y-1080D02*X130625Y-889D01*
X131006D01*
X131196Y-1080D01*
X131006Y-2413D02*X131196Y-2222D01*
X130625Y-2413D02*X131006D01*
X130434Y-2222D02*X130625Y-2413D01*
Y-1575D02*X131006D01*
X131196Y-1080D02*Y-1384D01*
Y-1765D02*Y-2222D01*
Y-1765D02*X131006Y-1575D01*
X131196Y-1384D02*X131006Y-1575D01*
X132530Y-1842D02*Y-2413D01*
Y-1842D02*X132720Y-1651D01*
X132911D01*
X133101Y-1842D01*
Y-2413D01*
Y-1842D02*X133292Y-1651D01*
X133482D01*
X133673Y-1842D01*
Y-2413D01*
X132339Y-1651D02*X132530Y-1842D01*
G54D60*X134130Y-1270D02*Y-1308D01*
G54D59*Y-1842D02*Y-2413D01*
X134511Y-889D02*Y-2222D01*
X134702Y-2413D01*
X135273D02*X135845D01*
X136035Y-2222D01*
X135845Y-2032D02*X136035Y-2222D01*
X135273Y-2032D02*X135845D01*
X135083Y-1842D02*X135273Y-2032D01*
X135083Y-1842D02*X135273Y-1651D01*
X135845D01*
X136035Y-1842D01*
X135083Y-2222D02*X135273Y-2413D01*
X50990Y47287D02*Y45763D01*
X51486Y47287D02*X51752Y47020D01*
Y46030D01*
X51486Y45763D02*X51752Y46030D01*
X50800Y45763D02*X51486D01*
X50800Y47287D02*X51486D01*
X52781Y46525D02*X52972Y46334D01*
X52400Y46525D02*X52781D01*
X52210Y46334D02*X52400Y46525D01*
X52210Y46334D02*Y45954D01*
X52400Y45763D01*
X52972Y46525D02*Y45954D01*
X53162Y45763D01*
X52400D02*X52781D01*
X52972Y45954D01*
X53810Y47287D02*Y45954D01*
X54000Y45763D01*
X53619Y46716D02*X54000D01*
X54572Y45763D02*X55143D01*
X54381Y45954D02*X54572Y45763D01*
X54381Y46334D02*Y45954D01*
Y46334D02*X54572Y46525D01*
X54953D01*
X55143Y46334D01*
X54381Y46144D02*X55143D01*
Y46334D02*Y46144D01*
X55601Y46716D02*X55791D01*
X55601Y46334D02*X55791D01*
G54D62*G36*
X56934Y47668D02*Y45191D01*
X58839D01*
Y47668D01*
X56934D01*
G37*
G36*
X59220D02*Y45191D01*
X61125D01*
Y47668D01*
X59220D01*
G37*
G36*
X61506D02*Y45191D01*
X63411D01*
Y47668D01*
X61506D01*
G37*
G36*
X63792D02*Y45191D01*
X65697D01*
Y47668D01*
X63792D01*
G37*
G54D59*X66078Y45382D02*X66459Y45763D01*
X67602Y47096D02*X67793Y47287D01*
X68174D01*
X68364Y47096D01*
X68174Y45763D02*X68364Y45954D01*
X67793Y45763D02*X68174D01*
X67602Y45954D02*X67793Y45763D01*
Y46601D02*X68174D01*
X68364Y47096D02*Y46792D01*
Y46411D02*Y45954D01*
Y46411D02*X68174Y46601D01*
X68364Y46792D02*X68174Y46601D01*
X68821Y45954D02*X69012Y45763D01*
X68821Y47096D02*Y45954D01*
Y47096D02*X69012Y47287D01*
X69393D01*
X69583Y47096D01*
Y45954D01*
X69393Y45763D02*X69583Y45954D01*
X69012Y45763D02*X69393D01*
X68821Y46144D02*X69583Y46906D01*
X70041Y46525D02*X70803D01*
G54D62*G36*
X71260Y47668D02*Y45191D01*
X73165D01*
Y47668D01*
X71260D01*
G37*
G36*
X73546D02*Y45191D01*
X75451D01*
Y47668D01*
X73546D01*
G37*
G36*
X75832D02*Y45191D01*
X77737D01*
Y47668D01*
X75832D01*
G37*
G36*
X78118D02*Y45191D01*
X80023D01*
Y47668D01*
X78118D01*
G37*
G36*
X80404D02*Y45191D01*
X82309D01*
Y47668D01*
X80404D01*
G37*
G36*
X82690D02*Y45191D01*
X84595D01*
Y47668D01*
X82690D01*
G37*
G54D59*X84976Y46525D02*X85738D01*
X86195Y47096D02*X86385Y47287D01*
X86957D01*
X87147Y47096D01*
Y46716D01*
X86195Y45763D02*X87147Y46716D01*
X86195Y45763D02*X87147D01*
X87605Y45954D02*X87795Y45763D01*
X87605Y47096D02*Y45954D01*
Y47096D02*X87795Y47287D01*
X88176D01*
X88367Y47096D01*
Y45954D01*
X88176Y45763D02*X88367Y45954D01*
X87795Y45763D02*X88176D01*
X87605Y46144D02*X88367Y46906D01*
X88824Y46982D02*X89129Y47287D01*
Y45763D01*
X88824D02*X89395D01*
X90424Y47287D02*X90615Y47096D01*
X90043Y47287D02*X90424D01*
X89853Y47096D02*X90043Y47287D01*
X89853Y47096D02*Y45954D01*
X90043Y45763D01*
X90424Y46601D02*X90615Y46411D01*
X89853Y46601D02*X90424D01*
X90043Y45763D02*X90424D01*
X90615Y45954D01*
Y46411D02*Y45954D01*
X91758Y46982D02*X92062Y47287D01*
Y45763D01*
X91758D02*X92329D01*
X92786Y47096D02*X92977Y47287D01*
X93548D01*
X93739Y47096D01*
Y46716D01*
X92786Y45763D02*X93739Y46716D01*
X92786Y45763D02*X93739D01*
X94196Y46716D02*X94386D01*
X94196Y46334D02*X94386D01*
X94844D02*X95606Y47287D01*
X94844Y46334D02*X95796D01*
X95606Y47287D02*Y45763D01*
X96253Y47096D02*X96444Y47287D01*
X96825D01*
X97015Y47096D01*
X96825Y45763D02*X97015Y45954D01*
X96444Y45763D02*X96825D01*
X96253Y45954D02*X96444Y45763D01*
Y46601D02*X96825D01*
X97015Y47096D02*Y46792D01*
Y46411D02*Y45954D01*
Y46411D02*X96825Y46601D01*
X97015Y46792D02*X96825Y46601D01*
X97473Y46716D02*X97663D01*
X97473Y46334D02*X97663D01*
X98120Y47096D02*X98311Y47287D01*
X98692D01*
X98882Y47096D01*
X98692Y45763D02*X98882Y45954D01*
X98311Y45763D02*X98692D01*
X98120Y45954D02*X98311Y45763D01*
Y46601D02*X98692D01*
X98882Y47096D02*Y46792D01*
Y46411D02*Y45954D01*
Y46411D02*X98692Y46601D01*
X98882Y46792D02*X98692Y46601D01*
X99339Y45954D02*X99530Y45763D01*
X99339Y46258D02*Y45954D01*
Y46258D02*X99606Y46525D01*
X99835D01*
X100101Y46258D01*
Y45954D01*
X99911Y45763D02*X100101Y45954D01*
X99530Y45763D02*X99911D01*
X99339Y46792D02*X99606Y46525D01*
X99339Y47096D02*Y46792D01*
Y47096D02*X99530Y47287D01*
X99911D01*
X100101Y47096D01*
Y46792D01*
X99835Y46525D02*X100101Y46792D01*
X101244Y46525D02*X102006D01*
X101625Y46906D02*Y46144D01*
X102464Y45954D02*X102654Y45763D01*
X102464Y47096D02*Y45954D01*
Y47096D02*X102654Y47287D01*
X103035D01*
X103226Y47096D01*
Y45954D01*
X103035Y45763D02*X103226Y45954D01*
X102654Y45763D02*X103035D01*
X102464Y46144D02*X103226Y46906D01*
X103683Y45954D02*X103873Y45763D01*
X103683Y47096D02*Y45954D01*
Y47096D02*X103873Y47287D01*
X104254D01*
X104445Y47096D01*
Y45954D01*
X104254Y45763D02*X104445Y45954D01*
X103873Y45763D02*X104254D01*
X103683Y46144D02*X104445Y46906D01*
X104902Y45954D02*X105093Y45763D01*
X104902Y47096D02*Y45954D01*
Y47096D02*X105093Y47287D01*
X105474D01*
X105664Y47096D01*
Y45954D01*
X105474Y45763D02*X105664Y45954D01*
X105093Y45763D02*X105474D01*
X104902Y46144D02*X105664Y46906D01*
X106121Y45954D02*X106312Y45763D01*
X106121Y47096D02*Y45954D01*
Y47096D02*X106312Y47287D01*
X106693D01*
X106883Y47096D01*
Y45954D01*
X106693Y45763D02*X106883Y45954D01*
X106312Y45763D02*X106693D01*
X106121Y46144D02*X106883Y46906D01*
X108026Y47287D02*Y45954D01*
X108217Y45763D01*
X108598D01*
X108788Y45954D01*
Y47287D02*Y45954D01*
X109245Y47287D02*X110007D01*
X109626D02*Y45763D01*
X110731D02*X111227D01*
X110465Y46030D02*X110731Y45763D01*
X110465Y47020D02*Y46030D01*
Y47020D02*X110731Y47287D01*
X111227D01*
X50800Y50716D02*Y49573D01*
Y50716D02*X51067Y51097D01*
X51486D01*
X51752Y50716D01*
Y49573D01*
X50800Y50335D02*X51752D01*
X52210D02*Y49764D01*
X52400Y49573D01*
X52781D01*
X52972Y49764D01*
Y50335D02*Y49764D01*
X53619Y51097D02*Y49764D01*
X53810Y49573D01*
X53429Y50526D02*X53810D01*
X54191Y51097D02*Y49573D01*
Y50144D02*X54381Y50335D01*
X54762D01*
X54953Y50144D01*
Y49573D01*
X55410Y50144D02*Y49764D01*
Y50144D02*X55601Y50335D01*
X55982D01*
X56172Y50144D01*
Y49764D01*
X55982Y49573D02*X56172Y49764D01*
X55601Y49573D02*X55982D01*
X55410Y49764D02*X55601Y49573D01*
X56820Y50144D02*Y49573D01*
Y50144D02*X57010Y50335D01*
X57391D01*
X56629D02*X56820Y50144D01*
X57849Y50526D02*X58039D01*
X57849Y50144D02*X58039D01*
X59373D02*Y49573D01*
Y50144D02*X59563Y50335D01*
X59944D01*
X59182D02*X59373Y50144D01*
X60401D02*Y49764D01*
Y50144D02*X60592Y50335D01*
X60973D01*
X61163Y50144D01*
Y49764D01*
X60973Y49573D02*X61163Y49764D01*
X60592Y49573D02*X60973D01*
X60401Y49764D02*X60592Y49573D01*
X61620Y50144D02*Y49764D01*
Y50144D02*X61811Y50335D01*
X62192D01*
X62382Y50144D01*
Y49764D01*
X62192Y49573D02*X62382Y49764D01*
X61811Y49573D02*X62192D01*
X61620Y49764D02*X61811Y49573D01*
X63030Y51097D02*Y49764D01*
X63221Y49573D01*
X62840Y50526D02*X63221D01*
X50800Y54907D02*X51562D01*
X51181D02*Y53383D01*
G54D60*X52019Y54526D02*Y54488D01*
G54D59*Y53954D02*Y53383D01*
X52591Y54907D02*Y53574D01*
X52781Y53383D01*
X52400Y54336D02*X52781D01*
X53162Y54907D02*Y53574D01*
X53353Y53383D01*
X53924D02*X54496D01*
X53734Y53574D02*X53924Y53383D01*
X53734Y53954D02*Y53574D01*
Y53954D02*X53924Y54145D01*
X54305D01*
X54496Y53954D01*
X53734Y53764D02*X54496D01*
Y53954D02*Y53764D01*
X54953Y54336D02*X55143D01*
X54953Y53954D02*X55143D01*
X56286Y53574D02*X56477Y53383D01*
X56286Y54716D02*X56477Y54907D01*
X56286Y54716D02*Y53574D01*
X56934Y54145D02*Y53574D01*
X57125Y53383D01*
X57506D01*
X57696Y53574D01*
Y54145D02*Y53574D01*
X58344Y53954D02*Y53383D01*
Y53954D02*X58534Y54145D01*
X58725D01*
X58915Y53954D01*
Y53383D01*
X58153Y54145D02*X58344Y53954D01*
X59373Y54907D02*Y53383D01*
Y53954D02*X59944Y53383D01*
X59373Y53954D02*X59754Y54336D01*
X60592Y53954D02*Y53383D01*
Y53954D02*X60782Y54145D01*
X60973D01*
X61163Y53954D01*
Y53383D01*
X60401Y54145D02*X60592Y53954D01*
X61620D02*Y53574D01*
Y53954D02*X61811Y54145D01*
X62192D01*
X62382Y53954D01*
Y53574D01*
X62192Y53383D02*X62382Y53574D01*
X61811Y53383D02*X62192D01*
X61620Y53574D02*X61811Y53383D01*
X62840Y54145D02*Y53574D01*
X63030Y53383D01*
X63221D01*
X63411Y53574D01*
Y54145D02*Y53574D01*
X63602Y53383D01*
X63792D01*
X63983Y53574D01*
Y54145D02*Y53574D01*
X64630Y53954D02*Y53383D01*
Y53954D02*X64821Y54145D01*
X65011D01*
X65202Y53954D01*
Y53383D01*
X64440Y54145D02*X64630Y53954D01*
X65659Y54907D02*X65850Y54716D01*
Y53574D01*
X65659Y53383D02*X65850Y53574D01*
X66993Y54145D02*X67755D01*
X68898Y54907D02*Y53383D01*
Y54907D02*X69660D01*
X68898Y54221D02*X69469D01*
X70688Y54145D02*X70879Y53954D01*
X70307Y54145D02*X70688D01*
X70117Y53954D02*X70307Y54145D01*
X70117Y53954D02*Y53574D01*
X70307Y53383D01*
X70879Y54145D02*Y53574D01*
X71069Y53383D01*
X70307D02*X70688D01*
X70879Y53574D01*
X71526Y54907D02*Y53383D01*
Y53574D02*X71717Y53383D01*
X72098D01*
X72288Y53574D01*
Y53954D02*Y53574D01*
X72098Y54145D02*X72288Y53954D01*
X71717Y54145D02*X72098D01*
X71526Y53954D02*X71717Y54145D01*
X72936Y53954D02*Y53383D01*
Y53954D02*X73127Y54145D01*
X73508D01*
X72746D02*X72936Y53954D01*
G54D60*X73965Y54526D02*Y54488D01*
G54D59*Y53954D02*Y53383D01*
X74536Y54145D02*X75108D01*
X74346Y53954D02*X74536Y54145D01*
X74346Y53954D02*Y53574D01*
X74536Y53383D01*
X75108D01*
X76137Y54145D02*X76327Y53954D01*
X75756Y54145D02*X76137D01*
X75565Y53954D02*X75756Y54145D01*
X75565Y53954D02*Y53574D01*
X75756Y53383D01*
X76327Y54145D02*Y53574D01*
X76518Y53383D01*
X75756D02*X76137D01*
X76327Y53574D01*
X77165Y54907D02*Y53574D01*
X77356Y53383D01*
X76975Y54336D02*X77356D01*
G54D60*X77737Y54526D02*Y54488D01*
G54D59*Y53954D02*Y53383D01*
X78118Y53954D02*Y53574D01*
Y53954D02*X78308Y54145D01*
X78689D01*
X78880Y53954D01*
Y53574D01*
X78689Y53383D02*X78880Y53574D01*
X78308Y53383D02*X78689D01*
X78118Y53574D02*X78308Y53383D01*
X79527Y53954D02*Y53383D01*
Y53954D02*X79718Y54145D01*
X79908D01*
X80099Y53954D01*
Y53383D01*
X79337Y54145D02*X79527Y53954D01*
X81432Y54907D02*Y53383D01*
X81928Y54907D02*X82194Y54640D01*
Y53650D01*
X81928Y53383D02*X82194Y53650D01*
X81242Y53383D02*X81928D01*
X81242Y54907D02*X81928D01*
X82842Y53954D02*Y53383D01*
Y53954D02*X83033Y54145D01*
X83414D01*
X82652D02*X82842Y53954D01*
X84442Y54145D02*X84633Y53954D01*
X84061Y54145D02*X84442D01*
X83871Y53954D02*X84061Y54145D01*
X83871Y53954D02*Y53574D01*
X84061Y53383D01*
X84633Y54145D02*Y53574D01*
X84823Y53383D01*
X84061D02*X84442D01*
X84633Y53574D01*
X85281Y54145D02*Y53574D01*
X85471Y53383D01*
X85662D01*
X85852Y53574D01*
Y54145D02*Y53574D01*
X86043Y53383D01*
X86233D01*
X86424Y53574D01*
Y54145D02*Y53574D01*
G54D60*X86881Y54526D02*Y54488D01*
G54D59*Y53954D02*Y53383D01*
X87452Y53954D02*Y53383D01*
Y53954D02*X87643Y54145D01*
X87833D01*
X88024Y53954D01*
Y53383D01*
X87262Y54145D02*X87452Y53954D01*
X89052Y54145D02*X89243Y53954D01*
X88671Y54145D02*X89052D01*
X88481Y53954D02*X88671Y54145D01*
X88481Y53954D02*Y53574D01*
X88671Y53383D01*
X89052D01*
X89243Y53574D01*
X88481Y53002D02*X88671Y52812D01*
X89052D01*
X89243Y53002D01*
Y54145D02*Y53002D01*
M02*
