G04 start of page 9 for group 7 idx 7 *
G04 Title: (unknown), spare *
G04 Creator: pcb 20140316 *
G04 CreationDate: пн, 30-тра-2016 12:43:38 +0000 UTC *
G04 For: root *
G04 Format: Gerber/RS-274X *
G04 PCB-Dimensions (mm): 170.00 40.05 *
G04 PCB-Coordinate-Origin: lower left *
%MOMM*%
%FSLAX43Y43*%
%LNGROUP7*%
%ADD43C,0.711*%
%ADD42C,2.286*%
%ADD41C,1.524*%
%ADD40C,0.002*%
G54D40*G36*
X73238Y34810D02*Y33286D01*
X74762D01*
Y34810D01*
X73238D01*
G37*
G54D41*X76540Y34048D03*
Y36080D03*
X74000D03*
G54D40*G36*
X27238Y34810D02*Y33286D01*
X28762D01*
Y34810D01*
X27238D01*
G37*
G54D41*X30540Y34048D03*
Y36080D03*
X28000D03*
G54D40*G36*
X50238Y34810D02*Y33286D01*
X51762D01*
Y34810D01*
X50238D01*
G37*
G54D41*X53540Y34048D03*
Y36080D03*
X51000D03*
G54D40*G36*
X118238Y34810D02*Y33286D01*
X119762D01*
Y34810D01*
X118238D01*
G37*
G36*
Y33286D01*
X119762D01*
Y34810D01*
X118238D01*
G37*
G54D41*X121540Y34048D03*
D03*
Y36080D03*
D03*
X119000D03*
D03*
G54D40*G36*
X141412Y34636D02*Y33112D01*
X142936D01*
Y34636D01*
X141412D01*
G37*
G54D41*X142174Y35906D03*
X144714Y33874D03*
Y35906D03*
G54D40*G36*
X96238Y34810D02*Y33286D01*
X97762D01*
Y34810D01*
X96238D01*
G37*
G36*
Y33286D01*
X97762D01*
Y34810D01*
X96238D01*
G37*
G54D41*X99540Y34048D03*
D03*
Y36080D03*
D03*
X97000D03*
D03*
G54D42*G54D43*G54D42*G54D43*G54D42*G54D43*G54D42*G54D43*G54D42*G54D43*G54D42*G54D43*G54D42*G54D43*G54D42*G54D43*G54D42*G54D43*G54D42*G54D43*G54D42*G54D43*M02*
