G04 start of page 16 for group -4015 idx -4015 *
G04 Title: (unknown), toppaste *
G04 Creator: pcb 20140316 *
G04 CreationDate: пт, 03-чер-2016 10:25:04 +0000 UTC *
G04 For: root *
G04 Format: Gerber/RS-274X *
G04 PCB-Dimensions (mm): 170.00 45.05 *
G04 PCB-Coordinate-Origin: lower left *
%MOMM*%
%FSLAX43Y43*%
%LNTOPPASTE*%
%ADD72R,0.406X0.406*%
%ADD71C,0.406*%
G54D71*X68721Y15843D02*X69279D01*
G54D72*X68721Y15183D02*X69279D01*
X68721Y14548D02*X69279D01*
X68721Y13888D02*X69279D01*
X72962Y13862D02*X73521D01*
X72962Y14523D02*X73521D01*
X72962Y15158D02*X73521D01*
X72962Y15818D02*X73521D01*
G54D71*X75479Y23234D02*X76038D01*
G54D72*X75479Y22573D02*X76038D01*
X75479Y21938D02*X76038D01*
X75479Y21278D02*X76038D01*
X79721Y21253D02*X80279D01*
X79721Y21913D02*X80279D01*
X79721Y22548D02*X80279D01*
X79721Y23208D02*X80279D01*
G54D71*X22721Y15843D02*X23279D01*
G54D72*X22721Y15183D02*X23279D01*
X22721Y14548D02*X23279D01*
X22721Y13888D02*X23279D01*
X26962Y13862D02*X27521D01*
X26962Y14523D02*X27521D01*
X26962Y15158D02*X27521D01*
X26962Y15818D02*X27521D01*
G54D71*X29479Y23234D02*X30038D01*
G54D72*X29479Y22573D02*X30038D01*
X29479Y21938D02*X30038D01*
X29479Y21278D02*X30038D01*
X33721Y21253D02*X34279D01*
X33721Y21913D02*X34279D01*
X33721Y22548D02*X34279D01*
X33721Y23208D02*X34279D01*
G54D71*X45721Y15843D02*X46279D01*
G54D72*X45721Y15183D02*X46279D01*
X45721Y14548D02*X46279D01*
X45721Y13888D02*X46279D01*
X49962Y13862D02*X50521D01*
X49962Y14523D02*X50521D01*
X49962Y15158D02*X50521D01*
X49962Y15818D02*X50521D01*
G54D71*X52479Y23234D02*X53038D01*
G54D72*X52479Y22573D02*X53038D01*
X52479Y21938D02*X53038D01*
X52479Y21278D02*X53038D01*
X56721Y21253D02*X57279D01*
X56721Y21913D02*X57279D01*
X56721Y22548D02*X57279D01*
X56721Y23208D02*X57279D01*
G54D71*X114721Y15843D02*X115279D01*
G54D72*X114721Y15183D02*X115279D01*
X114721Y14548D02*X115279D01*
X114721Y13888D02*X115279D01*
X118962Y13862D02*X119521D01*
X118962Y14523D02*X119521D01*
X118962Y15158D02*X119521D01*
X118962Y15818D02*X119521D01*
G54D71*X121479Y23234D02*X122038D01*
G54D72*X121479Y22573D02*X122038D01*
X121479Y21938D02*X122038D01*
X121479Y21278D02*X122038D01*
X125721Y21253D02*X126279D01*
X125721Y21913D02*X126279D01*
X125721Y22548D02*X126279D01*
X125721Y23208D02*X126279D01*
G54D71*X91721Y15843D02*X92279D01*
G54D72*X91721Y15183D02*X92279D01*
X91721Y14548D02*X92279D01*
X91721Y13888D02*X92279D01*
X95962Y13862D02*X96521D01*
X95962Y14523D02*X96521D01*
X95962Y15158D02*X96521D01*
X95962Y15818D02*X96521D01*
G54D71*X98479Y23234D02*X99038D01*
G54D72*X98479Y22573D02*X99038D01*
X98479Y21938D02*X99038D01*
X98479Y21278D02*X99038D01*
X102721Y21253D02*X103279D01*
X102721Y21913D02*X103279D01*
X102721Y22548D02*X103279D01*
X102721Y23208D02*X103279D01*
G54D71*X138721Y15843D02*X139279D01*
G54D72*X138721Y15183D02*X139279D01*
X138721Y14548D02*X139279D01*
X138721Y13888D02*X139279D01*
X142962Y13862D02*X143521D01*
X142962Y14523D02*X143521D01*
X142962Y15158D02*X143521D01*
X142962Y15818D02*X143521D01*
G54D71*X145479Y23234D02*X146038D01*
G54D72*X145479Y22573D02*X146038D01*
X145479Y21938D02*X146038D01*
X145479Y21278D02*X146038D01*
X149721Y21253D02*X150279D01*
X149721Y21913D02*X150279D01*
X149721Y22548D02*X150279D01*
X149721Y23208D02*X150279D01*
M02*
