M48
METRIC,000.000
T44C0.711
%
T44
X028000Y036080
X028000Y034048
X030540Y036080
X030540Y034048
X051000Y036080
X051000Y034048
X053540Y036080
X053540Y034048
X074000Y036080
X074000Y034048
X076540Y036080
X076540Y034048
X097000Y036080
X097000Y036080
X097000Y034048
X097000Y034048
X099540Y036080
X099540Y036080
X099540Y034048
X099540Y034048
X119000Y036080
X119000Y036080
X119000Y034048
X119000Y034048
X121540Y036080
X121540Y036080
X121540Y034048
X121540Y034048
X142174Y035906
X142174Y033874
X144714Y035906
X144714Y033874
M30
