G04 start of page 13 for group -4062 idx -4062 *
G04 Title: (unknown), soldermask *
G04 Creator: pcb 20140316 *
G04 CreationDate: пн, 30-тра-2016 12:43:38 +0000 UTC *
G04 For: root *
G04 Format: Gerber/RS-274X *
G04 PCB-Dimensions (mm): 170.00 40.05 *
G04 PCB-Coordinate-Origin: lower left *
%MOMM*%
%FSLAX43Y43*%
%LNBOTTOMMASK*%
%ADD53C,1.676*%
%ADD52C,0.002*%
%ADD51C,2.438*%
G54D51*X69174Y38874D03*
G54D52*G36*
X73162Y34886D02*Y33210D01*
X74838D01*
Y34886D01*
X73162D01*
G37*
G54D53*X76540Y34048D03*
Y36080D03*
X74000D03*
G54D51*X81366Y38874D03*
G54D52*G36*
X27162Y34886D02*Y33210D01*
X28838D01*
Y34886D01*
X27162D01*
G37*
G54D53*X30540Y34048D03*
Y36080D03*
X28000D03*
G54D51*X35366Y38874D03*
X46174D03*
G54D52*G36*
X50162Y34886D02*Y33210D01*
X51838D01*
Y34886D01*
X50162D01*
G37*
G54D53*X53540Y34048D03*
Y36080D03*
X51000D03*
G54D51*X58366Y38874D03*
X23174D03*
G54D52*G36*
X118162Y34886D02*Y33210D01*
X119838D01*
Y34886D01*
X118162D01*
G37*
G36*
Y33210D01*
X119838D01*
Y34886D01*
X118162D01*
G37*
G54D53*X121540Y34048D03*
D03*
Y36080D03*
G54D51*X126366Y38874D03*
G54D53*X121540Y36080D03*
G54D51*X126366Y38874D03*
G54D53*X119000Y36080D03*
G54D51*X114174Y38874D03*
G54D53*X119000Y36080D03*
G54D51*X114174Y38874D03*
G54D52*G36*
X141336Y34712D02*Y33036D01*
X143012D01*
Y34712D01*
X141336D01*
G37*
G54D53*X142174Y35906D03*
G54D51*X137348Y38700D03*
G54D53*X144714Y33874D03*
Y35906D03*
G54D51*X149540Y38700D03*
G54D52*G36*
X96162Y34886D02*Y33210D01*
X97838D01*
Y34886D01*
X96162D01*
G37*
G36*
Y33210D01*
X97838D01*
Y34886D01*
X96162D01*
G37*
G54D51*X92174Y38874D03*
D03*
X104366D03*
D03*
G54D53*X99540Y34048D03*
D03*
Y36080D03*
D03*
X97000D03*
D03*
M02*
