G04 start of page 18 for group -3984 idx -3984 *
G04 Title: (unknown), fab *
G04 Creator: pcb 20140316 *
G04 CreationDate: пт, 03-чер-2016 10:25:04 +0000 UTC *
G04 For: root *
G04 Format: Gerber/RS-274X *
G04 PCB-Dimensions (mm): 170.00 45.05 *
G04 PCB-Coordinate-Origin: lower left *
%MOMM*%
%FSLAX43Y43*%
%LNFAB*%
%ADD76C,0.254*%
%ADD75C,0.191*%
%ADD74C,0.152*%
%ADD73C,0.002*%
G54D73*G36*
X149061Y42322D02*X149814Y41569D01*
X149671Y41426D01*
X148918Y42179D01*
X149061Y42322D01*
G37*
G36*
X148918Y41569D02*X149671Y42322D01*
X149814Y42179D01*
X149061Y41426D01*
X148918Y41569D01*
G37*
G36*
X136869Y42322D02*X137622Y41569D01*
X137479Y41426D01*
X136726Y42179D01*
X136869Y42322D01*
G37*
G36*
X136726Y41569D02*X137479Y42322D01*
X137622Y42179D01*
X136869Y41426D01*
X136726Y41569D01*
G37*
G36*
X81061Y42322D02*X81814Y41569D01*
X81671Y41426D01*
X80918Y42179D01*
X81061Y42322D01*
G37*
G36*
X80918Y41569D02*X81671Y42322D01*
X81814Y42179D01*
X81061Y41426D01*
X80918Y41569D01*
G37*
G36*
X68869Y42322D02*X69622Y41569D01*
X69479Y41426D01*
X68726Y42179D01*
X68869Y42322D01*
G37*
G36*
X68726Y41569D02*X69479Y42322D01*
X69622Y42179D01*
X68869Y41426D01*
X68726Y41569D01*
G37*
G36*
X104061Y42322D02*X104814Y41569D01*
X104671Y41426D01*
X103918Y42179D01*
X104061Y42322D01*
G37*
G36*
X103918Y41569D02*X104671Y42322D01*
X104814Y42179D01*
X104061Y41426D01*
X103918Y41569D01*
G37*
G36*
X91869Y42322D02*X92622Y41569D01*
X92479Y41426D01*
X91726Y42179D01*
X91869Y42322D01*
G37*
G36*
X91726Y41569D02*X92479Y42322D01*
X92622Y42179D01*
X91869Y41426D01*
X91726Y41569D01*
G37*
G36*
X126061Y42322D02*X126814Y41569D01*
X126671Y41426D01*
X125918Y42179D01*
X126061Y42322D01*
G37*
G36*
X125918Y41569D02*X126671Y42322D01*
X126814Y42179D01*
X126061Y41426D01*
X125918Y41569D01*
G37*
G36*
X113869Y42322D02*X114622Y41569D01*
X114479Y41426D01*
X113726Y42179D01*
X113869Y42322D01*
G37*
G36*
X113726Y41569D02*X114479Y42322D01*
X114622Y42179D01*
X113869Y41426D01*
X113726Y41569D01*
G37*
G36*
X35061Y42322D02*X35814Y41569D01*
X35671Y41426D01*
X34918Y42179D01*
X35061Y42322D01*
G37*
G36*
X34918Y41569D02*X35671Y42322D01*
X35814Y42179D01*
X35061Y41426D01*
X34918Y41569D01*
G37*
G36*
X22869Y42322D02*X23622Y41569D01*
X23479Y41426D01*
X22726Y42179D01*
X22869Y42322D01*
G37*
G36*
X22726Y41569D02*X23479Y42322D01*
X23622Y42179D01*
X22869Y41426D01*
X22726Y41569D01*
G37*
G36*
X58061Y42322D02*X58814Y41569D01*
X58671Y41426D01*
X57918Y42179D01*
X58061Y42322D01*
G37*
G36*
X57918Y41569D02*X58671Y42322D01*
X58814Y42179D01*
X58061Y41426D01*
X57918Y41569D01*
G37*
G36*
X45869Y42322D02*X46622Y41569D01*
X46479Y41426D01*
X45726Y42179D01*
X45869Y42322D01*
G37*
G36*
X45726Y41569D02*X46479Y42322D01*
X46622Y42179D01*
X45869Y41426D01*
X45726Y41569D01*
G37*
G36*
X3505Y52164D02*X4258Y51411D01*
X4115Y51267D01*
X3362Y52020D01*
X3505Y52164D01*
G37*
G36*
X3362Y51411D02*X4115Y52164D01*
X4258Y52020D01*
X3505Y51267D01*
X3362Y51411D01*
G37*
G54D74*X35560Y52287D02*Y50763D01*
Y52287D02*X36512Y50763D01*
Y52287D02*Y50763D01*
X36970Y52096D02*Y50954D01*
Y52096D02*X37160Y52287D01*
X37541D01*
X37732Y52096D01*
Y50954D01*
X37541Y50763D02*X37732Y50954D01*
X37160Y50763D02*X37541D01*
X36970Y50954D02*X37160Y50763D01*
X24892Y51982D02*X25197Y52287D01*
Y50763D01*
X24892D02*X25464D01*
X25921Y52096D02*X26111Y52287D01*
X26683D01*
X26873Y52096D01*
Y51716D01*
X25921Y50763D02*X26873Y51716D01*
X25921Y50763D02*X26873D01*
X11430Y50954D02*X11620Y50763D01*
X11430Y52096D02*Y50954D01*
Y52096D02*X11620Y52287D01*
X12002D01*
X12192Y52096D01*
Y50954D01*
X12002Y50763D02*X12192Y50954D01*
X11620Y50763D02*X12002D01*
X11430Y51144D02*X12192Y51906D01*
X12649Y50763D02*X12840D01*
X13297Y50954D02*X13487Y50763D01*
X13297Y52096D02*Y50954D01*
Y52096D02*X13487Y52287D01*
X13868D01*
X14059Y52096D01*
Y50954D01*
X13868Y50763D02*X14059Y50954D01*
X13487Y50763D02*X13868D01*
X13297Y51144D02*X14059Y51906D01*
X14707Y50763D02*X15278Y51525D01*
Y52096D02*Y51525D01*
X15088Y52287D02*X15278Y52096D01*
X14707Y52287D02*X15088D01*
X14516Y52096D02*X14707Y52287D01*
X14516Y52096D02*Y51716D01*
X14707Y51525D01*
X15278D01*
X15735Y50954D02*X15926Y50763D01*
X15735Y52096D02*Y50954D01*
Y52096D02*X15926Y52287D01*
X16307D01*
X16497Y52096D01*
Y50954D01*
X16307Y50763D02*X16497Y50954D01*
X15926Y50763D02*X16307D01*
X15735Y51144D02*X16497Y51906D01*
X142000Y37454D02*Y36642D01*
X141594Y37048D02*X142406D01*
X144540Y37454D02*Y36642D01*
X144134Y37048D02*X144946D01*
X144540Y39486D02*Y38674D01*
X144134Y39080D02*X144946D01*
X142000Y39486D02*Y38674D01*
X141594Y39080D02*X142406D01*
X74000Y37454D02*Y36642D01*
X73594Y37048D02*X74406D01*
X76540Y37454D02*Y36642D01*
X76134Y37048D02*X76946D01*
X76540Y39486D02*Y38674D01*
X76134Y39080D02*X76946D01*
X74000Y39486D02*Y38674D01*
X73594Y39080D02*X74406D01*
X97000Y37454D02*Y36642D01*
X96594Y37048D02*X97406D01*
X99540Y37454D02*Y36642D01*
X99134Y37048D02*X99946D01*
X99540Y39486D02*Y38674D01*
X99134Y39080D02*X99946D01*
X97000Y39486D02*Y38674D01*
X96594Y39080D02*X97406D01*
X119000Y37454D02*Y36642D01*
X118594Y37048D02*X119406D01*
X121540Y37454D02*Y36642D01*
X121134Y37048D02*X121946D01*
X121540Y39486D02*Y38674D01*
X121134Y39080D02*X121946D01*
X119000Y39486D02*Y38674D01*
X118594Y39080D02*X119406D01*
X28000Y37454D02*Y36642D01*
X27594Y37048D02*X28406D01*
X30540Y37454D02*Y36642D01*
X30134Y37048D02*X30946D01*
X30540Y39486D02*Y38674D01*
X30134Y39080D02*X30946D01*
X28000Y39486D02*Y38674D01*
X27594Y39080D02*X28406D01*
X51000Y37454D02*Y36642D01*
X50594Y37048D02*X51406D01*
X53540Y37454D02*Y36642D01*
X53134Y37048D02*X53946D01*
X53540Y39486D02*Y38674D01*
X53134Y39080D02*X53946D01*
X51000Y39486D02*Y38674D01*
X50594Y39080D02*X51406D01*
X3810Y55932D02*Y55119D01*
X3404Y55526D02*X4216D01*
X34290Y56097D02*X34671Y55335D01*
X35052Y56097D01*
X34671Y55335D02*Y54573D01*
X35509Y55411D02*X36081D01*
X35509Y54573D02*X36271D01*
X35509Y56097D02*Y54573D01*
Y56097D02*X36271D01*
X37490D02*X37681Y55906D01*
X36919Y56097D02*X37490D01*
X36728Y55906D02*X36919Y56097D01*
X36728Y55906D02*Y55526D01*
X36919Y55335D01*
X37490D01*
X37681Y55144D01*
Y54764D01*
X37490Y54573D02*X37681Y54764D01*
X36919Y54573D02*X37490D01*
X36728Y54764D02*X36919Y54573D01*
X24892Y55906D02*X25082Y56097D01*
X25654D01*
X25844Y55906D01*
Y55526D01*
X24892Y54573D02*X25844Y55526D01*
X24892Y54573D02*X25844D01*
X26302Y55144D02*X27064Y56097D01*
X26302Y55144D02*X27254D01*
X27064Y56097D02*Y54573D01*
X11430Y54764D02*X11620Y54573D01*
X11430Y55906D02*Y54764D01*
Y55906D02*X11620Y56097D01*
X12002D01*
X12192Y55906D01*
Y54764D01*
X12002Y54573D02*X12192Y54764D01*
X11620Y54573D02*X12002D01*
X11430Y54954D02*X12192Y55716D01*
X12649Y54573D02*X12840D01*
X13297Y54764D02*X13487Y54573D01*
X13297Y55906D02*Y54764D01*
Y55906D02*X13487Y56097D01*
X13868D01*
X14059Y55906D01*
Y54764D01*
X13868Y54573D02*X14059Y54764D01*
X13487Y54573D02*X13868D01*
X13297Y54954D02*X14059Y55716D01*
X14516Y55906D02*X14707Y56097D01*
X15278D01*
X15469Y55906D01*
Y55526D01*
X14516Y54573D02*X15469Y55526D01*
X14516Y54573D02*X15469D01*
X15926Y54764D02*X16116Y54573D01*
X15926Y55068D02*Y54764D01*
Y55068D02*X16193Y55335D01*
X16421D01*
X16688Y55068D01*
Y54764D01*
X16497Y54573D02*X16688Y54764D01*
X16116Y54573D02*X16497D01*
X15926Y55602D02*X16193Y55335D01*
X15926Y55906D02*Y55602D01*
Y55906D02*X16116Y56097D01*
X16497D01*
X16688Y55906D01*
Y55602D01*
X16421Y55335D02*X16688Y55602D01*
X29000Y3048D02*Y2642D01*
Y3048D02*X29352Y3251D01*
X29000Y3048D02*X28648Y3251D01*
X36000Y3048D02*Y2642D01*
Y3048D02*X36352Y3251D01*
X36000Y3048D02*X35648Y3251D01*
X52000Y3048D02*Y2642D01*
Y3048D02*X52352Y3251D01*
X52000Y3048D02*X51648Y3251D01*
X58500Y3048D02*Y2642D01*
Y3048D02*X58852Y3251D01*
X58500Y3048D02*X58148Y3251D01*
X82000Y3048D02*Y2642D01*
Y3048D02*X82352Y3251D01*
X82000Y3048D02*X81648Y3251D01*
X98000Y3048D02*Y2642D01*
Y3048D02*X98352Y3251D01*
X98000Y3048D02*X97648Y3251D01*
X104500Y3048D02*Y2642D01*
Y3048D02*X104852Y3251D01*
X104500Y3048D02*X104148Y3251D01*
X121000Y3048D02*Y2642D01*
Y3048D02*X121352Y3251D01*
X121000Y3048D02*X120648Y3251D01*
X127500Y3048D02*Y2642D01*
Y3048D02*X127852Y3251D01*
X127500Y3048D02*X127148Y3251D01*
X145000Y3048D02*Y2642D01*
Y3048D02*X145352Y3251D01*
X145000Y3048D02*X144648Y3251D01*
X13000Y1048D02*Y642D01*
Y1048D02*X13352Y1251D01*
X13000Y1048D02*X12648Y1251D01*
X13000Y43048D02*Y42642D01*
Y43048D02*X13352Y43251D01*
X13000Y43048D02*X12648Y43251D01*
X75000Y3048D02*Y2642D01*
Y3048D02*X75352Y3251D01*
X75000Y3048D02*X74648Y3251D01*
X147000Y3048D02*Y2642D01*
Y3048D02*X147352Y3251D01*
X147000Y3048D02*X146648Y3251D01*
X149000Y3048D02*Y2642D01*
Y3048D02*X149352Y3251D01*
X149000Y3048D02*X148648Y3251D01*
X129000Y3048D02*Y2642D01*
Y3048D02*X129352Y3251D01*
X129000Y3048D02*X128648Y3251D01*
X131000Y3048D02*Y2642D01*
Y3048D02*X131352Y3251D01*
X131000Y3048D02*X130648Y3251D01*
X123000Y3048D02*Y2642D01*
Y3048D02*X123352Y3251D01*
X123000Y3048D02*X122648Y3251D01*
X125000Y3048D02*Y2642D01*
Y3048D02*X125352Y3251D01*
X125000Y3048D02*X124648Y3251D01*
X106000Y3048D02*Y2642D01*
Y3048D02*X106352Y3251D01*
X106000Y3048D02*X105648Y3251D01*
X108000Y3048D02*Y2642D01*
Y3048D02*X108352Y3251D01*
X108000Y3048D02*X107648Y3251D01*
X86000Y3048D02*Y2642D01*
Y3048D02*X86352Y3251D01*
X86000Y3048D02*X85648Y3251D01*
X84000Y3048D02*Y2642D01*
Y3048D02*X84352Y3251D01*
X84000Y3048D02*X83648Y3251D01*
X79000Y3048D02*Y2642D01*
Y3048D02*X79352Y3251D01*
X79000Y3048D02*X78648Y3251D01*
X77000Y3048D02*Y2642D01*
Y3048D02*X77352Y3251D01*
X77000Y3048D02*X76648Y3251D01*
X62000Y3048D02*Y2642D01*
Y3048D02*X62352Y3251D01*
X62000Y3048D02*X61648Y3251D01*
X60000Y3048D02*Y2642D01*
Y3048D02*X60352Y3251D01*
X60000Y3048D02*X59648Y3251D01*
X40000Y3048D02*Y2642D01*
Y3048D02*X40352Y3251D01*
X40000Y3048D02*X39648Y3251D01*
X38000Y3048D02*Y2642D01*
Y3048D02*X38352Y3251D01*
X38000Y3048D02*X37648Y3251D01*
X31000Y3048D02*Y2642D01*
Y3048D02*X31352Y3251D01*
X31000Y3048D02*X30648Y3251D01*
X33000Y3048D02*Y2642D01*
Y3048D02*X33352Y3251D01*
X33000Y3048D02*X32648Y3251D01*
X54000Y3048D02*Y2642D01*
Y3048D02*X54352Y3251D01*
X54000Y3048D02*X53648Y3251D01*
X56000Y3048D02*Y2642D01*
Y3048D02*X56352Y3251D01*
X56000Y3048D02*X55648Y3251D01*
X152000Y2048D02*Y1642D01*
Y2048D02*X152352Y2251D01*
X152000Y2048D02*X151648Y2251D01*
X154000Y2048D02*Y1642D01*
Y2048D02*X154352Y2251D01*
X154000Y2048D02*X153648Y2251D01*
X156000Y2048D02*Y1642D01*
Y2048D02*X156352Y2251D01*
X156000Y2048D02*X155648Y2251D01*
X100000Y3048D02*Y2642D01*
Y3048D02*X100352Y3251D01*
X100000Y3048D02*X99648Y3251D01*
X102000Y3048D02*Y2642D01*
Y3048D02*X102352Y3251D01*
X102000Y3048D02*X101648Y3251D01*
X3810Y59336D02*Y58929D01*
Y59336D02*X4162Y59539D01*
X3810Y59336D02*X3458Y59539D01*
X34290Y59907D02*X34671Y59145D01*
X35052Y59907D01*
X34671Y59145D02*Y58383D01*
X35509Y59221D02*X36081D01*
X35509Y58383D02*X36271D01*
X35509Y59907D02*Y58383D01*
Y59907D02*X36271D01*
X37490D02*X37681Y59716D01*
X36919Y59907D02*X37490D01*
X36728Y59716D02*X36919Y59907D01*
X36728Y59716D02*Y59336D01*
X36919Y59145D01*
X37490D01*
X37681Y58954D01*
Y58574D01*
X37490Y58383D02*X37681Y58574D01*
X36919Y58383D02*X37490D01*
X36728Y58574D02*X36919Y58383D01*
X24892Y59716D02*X25082Y59907D01*
X25464D01*
X25654Y59716D01*
X25464Y58383D02*X25654Y58574D01*
X25082Y58383D02*X25464D01*
X24892Y58574D02*X25082Y58383D01*
Y59221D02*X25464D01*
X25654Y59716D02*Y59412D01*
Y59031D02*Y58574D01*
Y59031D02*X25464Y59221D01*
X25654Y59412D02*X25464Y59221D01*
X26111Y58574D02*X26302Y58383D01*
X26111Y58878D02*Y58574D01*
Y58878D02*X26378Y59145D01*
X26607D01*
X26873Y58878D01*
Y58574D01*
X26683Y58383D02*X26873Y58574D01*
X26302Y58383D02*X26683D01*
X26111Y59412D02*X26378Y59145D01*
X26111Y59716D02*Y59412D01*
Y59716D02*X26302Y59907D01*
X26683D01*
X26873Y59716D01*
Y59412D01*
X26607Y59145D02*X26873Y59412D01*
X11430Y58574D02*X11620Y58383D01*
X11430Y59716D02*Y58574D01*
Y59716D02*X11620Y59907D01*
X12002D01*
X12192Y59716D01*
Y58574D01*
X12002Y58383D02*X12192Y58574D01*
X11620Y58383D02*X12002D01*
X11430Y58764D02*X12192Y59526D01*
X12649Y58383D02*X12840D01*
X13297Y58574D02*X13487Y58383D01*
X13297Y59716D02*Y58574D01*
Y59716D02*X13487Y59907D01*
X13868D01*
X14059Y59716D01*
Y58574D01*
X13868Y58383D02*X14059Y58574D01*
X13487Y58383D02*X13868D01*
X13297Y58764D02*X14059Y59526D01*
X14516Y59716D02*X14707Y59907D01*
X15278D01*
X15469Y59716D01*
Y59336D01*
X14516Y58383D02*X15469Y59336D01*
X14516Y58383D02*X15469D01*
X15926Y58574D02*X16116Y58383D01*
X15926Y59716D02*Y58574D01*
Y59716D02*X16116Y59907D01*
X16497D01*
X16688Y59716D01*
Y58574D01*
X16497Y58383D02*X16688Y58574D01*
X16116Y58383D02*X16497D01*
X15926Y58764D02*X16688Y59526D01*
X762Y63717D02*X952Y63526D01*
X190Y63717D02*X762D01*
X0Y63526D02*X190Y63717D01*
X0Y63526D02*Y63146D01*
X190Y62955D01*
X762D01*
X952Y62764D01*
Y62384D01*
X762Y62193D02*X952Y62384D01*
X190Y62193D02*X762D01*
X0Y62384D02*X190Y62193D01*
X1410Y62955D02*Y62384D01*
X1600Y62193D01*
X2172Y62955D02*Y61812D01*
X1981Y61622D02*X2172Y61812D01*
X1600Y61622D02*X1981D01*
X1410Y61812D02*X1600Y61622D01*
Y62193D02*X1981D01*
X2172Y62384D01*
X2819Y62764D02*Y62193D01*
Y62764D02*X3010Y62955D01*
X3200D01*
X3391Y62764D01*
Y62193D01*
Y62764D02*X3581Y62955D01*
X3772D01*
X3962Y62764D01*
Y62193D01*
X2629Y62955D02*X2819Y62764D01*
X4420Y63717D02*Y62193D01*
Y62384D02*X4610Y62193D01*
X4991D01*
X5182Y62384D01*
Y62764D02*Y62384D01*
X4991Y62955D02*X5182Y62764D01*
X4610Y62955D02*X4991D01*
X4420Y62764D02*X4610Y62955D01*
X5639Y62764D02*Y62384D01*
Y62764D02*X5829Y62955D01*
X6210D01*
X6401Y62764D01*
Y62384D01*
X6210Y62193D02*X6401Y62384D01*
X5829Y62193D02*X6210D01*
X5639Y62384D02*X5829Y62193D01*
X6858Y63717D02*Y62384D01*
X7049Y62193D01*
X0Y61367D02*X7430D01*
X10604Y63717D02*Y62193D01*
X11100Y63717D02*X11366Y63450D01*
Y62460D01*
X11100Y62193D02*X11366Y62460D01*
X10414Y62193D02*X11100D01*
X10414Y63717D02*X11100D01*
G54D75*X11824Y63336D02*Y63298D01*
G54D74*Y62764D02*Y62193D01*
X12776Y62955D02*X12967Y62764D01*
X12395Y62955D02*X12776D01*
X12205Y62764D02*X12395Y62955D01*
X12205Y62764D02*Y62384D01*
X12395Y62193D01*
X12967Y62955D02*Y62384D01*
X13157Y62193D01*
X12395D02*X12776D01*
X12967Y62384D01*
X13805Y62764D02*Y62193D01*
Y62764D02*X13995Y62955D01*
X14186D01*
X14376Y62764D01*
Y62193D01*
Y62764D02*X14567Y62955D01*
X14757D01*
X14948Y62764D01*
Y62193D01*
X13614Y62955D02*X13805Y62764D01*
X15405Y62193D02*X15596D01*
X16739Y62384D02*X16929Y62193D01*
X16739Y63526D02*X16929Y63717D01*
X16739Y63526D02*Y62384D01*
X17386Y63717D02*X17767D01*
X17577D02*Y62193D01*
X17386D02*X17767D01*
X18415Y62764D02*Y62193D01*
Y62764D02*X18606Y62955D01*
X18796D01*
X18987Y62764D01*
Y62193D01*
X18225Y62955D02*X18415Y62764D01*
X19634Y62955D02*X20206D01*
X19444Y62764D02*X19634Y62955D01*
X19444Y62764D02*Y62384D01*
X19634Y62193D01*
X20206D01*
X20663Y63717D02*Y62193D01*
Y62764D02*X20853Y62955D01*
X21234D01*
X21425Y62764D01*
Y62193D01*
X21882Y63717D02*X22073Y63526D01*
Y62384D01*
X21882Y62193D02*X22073Y62384D01*
X10414Y61367D02*X22530D01*
X24397Y62193D02*X24892D01*
X24130Y62460D02*X24397Y62193D01*
X24130Y63450D02*Y62460D01*
Y63450D02*X24397Y63717D01*
X24892D01*
X25349Y62764D02*Y62384D01*
Y62764D02*X25540Y62955D01*
X25921D01*
X26111Y62764D01*
Y62384D01*
X25921Y62193D02*X26111Y62384D01*
X25540Y62193D02*X25921D01*
X25349Y62384D02*X25540Y62193D01*
X26568Y62955D02*Y62384D01*
X26759Y62193D01*
X27140D01*
X27330Y62384D01*
Y62955D02*Y62384D01*
X27978Y62764D02*Y62193D01*
Y62764D02*X28169Y62955D01*
X28359D01*
X28550Y62764D01*
Y62193D01*
X27788Y62955D02*X27978Y62764D01*
X29197Y63717D02*Y62384D01*
X29388Y62193D01*
X29007Y63146D02*X29388D01*
X24130Y61367D02*X29769D01*
X33210Y63717D02*Y62193D01*
X33020Y63717D02*X33782D01*
X33972Y63526D01*
Y63146D01*
X33782Y62955D02*X33972Y63146D01*
X33210Y62955D02*X33782D01*
X34430Y63717D02*Y62384D01*
X34620Y62193D01*
X35573Y62955D02*X35763Y62764D01*
X35192Y62955D02*X35573D01*
X35001Y62764D02*X35192Y62955D01*
X35001Y62764D02*Y62384D01*
X35192Y62193D01*
X35763Y62955D02*Y62384D01*
X35954Y62193D01*
X35192D02*X35573D01*
X35763Y62384D01*
X36601Y63717D02*Y62384D01*
X36792Y62193D01*
X36411Y63146D02*X36792D01*
X37363Y62193D02*X37935D01*
X37173Y62384D02*X37363Y62193D01*
X37173Y62764D02*Y62384D01*
Y62764D02*X37363Y62955D01*
X37744D01*
X37935Y62764D01*
X37173Y62574D02*X37935D01*
Y62764D02*Y62574D01*
X39154Y63717D02*Y62193D01*
X38964D02*X39154Y62384D01*
X38583Y62193D02*X38964D01*
X38392Y62384D02*X38583Y62193D01*
X38392Y62764D02*Y62384D01*
Y62764D02*X38583Y62955D01*
X38964D01*
X39154Y62764D01*
X39992Y62955D02*Y62764D01*
Y62384D02*Y62193D01*
X39611Y63526D02*Y63336D01*
Y63526D02*X39802Y63717D01*
X40183D01*
X40373Y63526D01*
Y63336D01*
X39992Y62955D02*X40373Y63336D01*
X33020Y61367D02*X40831D01*
X0Y67527D02*X762D01*
X381D02*Y66003D01*
X1219Y67527D02*Y66003D01*
Y66574D02*X1410Y66765D01*
X1791D01*
X1981Y66574D01*
Y66003D01*
X2629D02*X3200D01*
X2438Y66194D02*X2629Y66003D01*
X2438Y66574D02*Y66194D01*
Y66574D02*X2629Y66765D01*
X3010D01*
X3200Y66574D01*
X2438Y66384D02*X3200D01*
Y66574D02*Y66384D01*
X3848Y66574D02*Y66003D01*
Y66574D02*X4039Y66765D01*
X4420D01*
X3658D02*X3848Y66574D01*
X5067Y66003D02*X5639D01*
X4877Y66194D02*X5067Y66003D01*
X4877Y66574D02*Y66194D01*
Y66574D02*X5067Y66765D01*
X5448D01*
X5639Y66574D01*
X4877Y66384D02*X5639D01*
Y66574D02*Y66384D01*
X7353Y66765D02*X7544Y66574D01*
X6972Y66765D02*X7353D01*
X6782Y66574D02*X6972Y66765D01*
X6782Y66574D02*Y66194D01*
X6972Y66003D01*
X7544Y66765D02*Y66194D01*
X7734Y66003D01*
X6972D02*X7353D01*
X7544Y66194D01*
X8382Y66574D02*Y66003D01*
Y66574D02*X8573Y66765D01*
X8954D01*
X8192D02*X8382Y66574D01*
X9601Y66003D02*X10173D01*
X9411Y66194D02*X9601Y66003D01*
X9411Y66574D02*Y66194D01*
Y66574D02*X9601Y66765D01*
X9982D01*
X10173Y66574D01*
X9411Y66384D02*X10173D01*
Y66574D02*Y66384D01*
X11316Y67336D02*X11506Y67527D01*
X11887D01*
X12078Y67336D01*
X11887Y66003D02*X12078Y66194D01*
X11506Y66003D02*X11887D01*
X11316Y66194D02*X11506Y66003D01*
Y66841D02*X11887D01*
X12078Y67336D02*Y67032D01*
Y66651D02*Y66194D01*
Y66651D02*X11887Y66841D01*
X12078Y67032D02*X11887Y66841D01*
X13983Y67527D02*Y66003D01*
X13792D02*X13983Y66194D01*
X13411Y66003D02*X13792D01*
X13221Y66194D02*X13411Y66003D01*
X13221Y66574D02*Y66194D01*
Y66574D02*X13411Y66765D01*
X13792D01*
X13983Y66574D01*
G54D75*X14440Y67146D02*Y67108D01*
G54D74*Y66574D02*Y66003D01*
X15011Y67336D02*Y66003D01*
Y67336D02*X15202Y67527D01*
X15392D01*
X14821Y66765D02*X15202D01*
X15964Y67336D02*Y66003D01*
Y67336D02*X16154Y67527D01*
X16345D01*
X15773Y66765D02*X16154D01*
X16916Y66003D02*X17488D01*
X16726Y66194D02*X16916Y66003D01*
X16726Y66574D02*Y66194D01*
Y66574D02*X16916Y66765D01*
X17297D01*
X17488Y66574D01*
X16726Y66384D02*X17488D01*
Y66574D02*Y66384D01*
X18136Y66574D02*Y66003D01*
Y66574D02*X18326Y66765D01*
X18707D01*
X17945D02*X18136Y66574D01*
X19355Y66003D02*X19926D01*
X19164Y66194D02*X19355Y66003D01*
X19164Y66574D02*Y66194D01*
Y66574D02*X19355Y66765D01*
X19736D01*
X19926Y66574D01*
X19164Y66384D02*X19926D01*
Y66574D02*Y66384D01*
X20574Y66574D02*Y66003D01*
Y66574D02*X20765Y66765D01*
X20955D01*
X21146Y66574D01*
Y66003D01*
X20384Y66765D02*X20574Y66574D01*
X21793Y67527D02*Y66194D01*
X21984Y66003D01*
X21603Y66956D02*X21984D01*
X23813Y67527D02*Y66003D01*
X23622D02*X23813Y66194D01*
X23241Y66003D02*X23622D01*
X23051Y66194D02*X23241Y66003D01*
X23051Y66574D02*Y66194D01*
Y66574D02*X23241Y66765D01*
X23622D01*
X23813Y66574D01*
X24460D02*Y66003D01*
Y66574D02*X24651Y66765D01*
X25032D01*
X24270D02*X24460Y66574D01*
G54D75*X25489Y67146D02*Y67108D01*
G54D74*Y66574D02*Y66003D01*
X25870Y67527D02*Y66194D01*
X26060Y66003D01*
X26441Y67527D02*Y66194D01*
X26632Y66003D01*
X27889D02*X28461D01*
X28651Y66194D01*
X28461Y66384D02*X28651Y66194D01*
X27889Y66384D02*X28461D01*
X27699Y66574D02*X27889Y66384D01*
X27699Y66574D02*X27889Y66765D01*
X28461D01*
X28651Y66574D01*
X27699Y66194D02*X27889Y66003D01*
G54D75*X29108Y67146D02*Y67108D01*
G54D74*Y66574D02*Y66003D01*
X29489Y66765D02*X30251D01*
X29489Y66003D02*X30251Y66765D01*
X29489Y66003D02*X30251D01*
X30899D02*X31471D01*
X30709Y66194D02*X30899Y66003D01*
X30709Y66574D02*Y66194D01*
Y66574D02*X30899Y66765D01*
X31280D01*
X31471Y66574D01*
X30709Y66384D02*X31471D01*
Y66574D02*Y66384D01*
X32118Y66003D02*X32690D01*
X32880Y66194D01*
X32690Y66384D02*X32880Y66194D01*
X32118Y66384D02*X32690D01*
X31928Y66574D02*X32118Y66384D01*
X31928Y66574D02*X32118Y66765D01*
X32690D01*
X32880Y66574D01*
X31928Y66194D02*X32118Y66003D01*
X34023Y66765D02*Y66194D01*
X34214Y66003D01*
X34595D01*
X34785Y66194D01*
Y66765D02*Y66194D01*
X35433Y66003D02*X36005D01*
X36195Y66194D01*
X36005Y66384D02*X36195Y66194D01*
X35433Y66384D02*X36005D01*
X35243Y66574D02*X35433Y66384D01*
X35243Y66574D02*X35433Y66765D01*
X36005D01*
X36195Y66574D01*
X35243Y66194D02*X35433Y66003D01*
X36843D02*X37414D01*
X36652Y66194D02*X36843Y66003D01*
X36652Y66574D02*Y66194D01*
Y66574D02*X36843Y66765D01*
X37224D01*
X37414Y66574D01*
X36652Y66384D02*X37414D01*
Y66574D02*Y66384D01*
X38633Y67527D02*Y66003D01*
X38443D02*X38633Y66194D01*
X38062Y66003D02*X38443D01*
X37871Y66194D02*X38062Y66003D01*
X37871Y66574D02*Y66194D01*
Y66574D02*X38062Y66765D01*
X38443D01*
X38633Y66574D01*
G54D75*X39776Y67146D02*Y67108D01*
G54D74*Y66574D02*Y66003D01*
X40348Y66574D02*Y66003D01*
Y66574D02*X40538Y66765D01*
X40729D01*
X40919Y66574D01*
Y66003D01*
X40157Y66765D02*X40348Y66574D01*
X42253Y67527D02*Y66194D01*
X42443Y66003D01*
X42062Y66956D02*X42443D01*
X42824Y67527D02*Y66003D01*
Y66574D02*X43015Y66765D01*
X43396D01*
X43586Y66574D01*
Y66003D01*
G54D75*X44044Y67146D02*Y67108D01*
G54D74*Y66574D02*Y66003D01*
X44615D02*X45187D01*
X45377Y66194D01*
X45187Y66384D02*X45377Y66194D01*
X44615Y66384D02*X45187D01*
X44425Y66574D02*X44615Y66384D01*
X44425Y66574D02*X44615Y66765D01*
X45187D01*
X45377Y66574D01*
X44425Y66194D02*X44615Y66003D01*
X46520Y67527D02*Y66194D01*
X46711Y66003D01*
X47663Y66765D02*X47854Y66574D01*
X47282Y66765D02*X47663D01*
X47092Y66574D02*X47282Y66765D01*
X47092Y66574D02*Y66194D01*
X47282Y66003D01*
X47854Y66765D02*Y66194D01*
X48044Y66003D01*
X47282D02*X47663D01*
X47854Y66194D01*
X48501Y66765D02*Y66194D01*
X48692Y66003D01*
X49263Y66765D02*Y65622D01*
X49073Y65432D02*X49263Y65622D01*
X48692Y65432D02*X49073D01*
X48501Y65622D02*X48692Y65432D01*
Y66003D02*X49073D01*
X49263Y66194D01*
X49721Y66574D02*Y66194D01*
Y66574D02*X49911Y66765D01*
X50292D01*
X50483Y66574D01*
Y66194D01*
X50292Y66003D02*X50483Y66194D01*
X49911Y66003D02*X50292D01*
X49721Y66194D02*X49911Y66003D01*
X50940Y66765D02*Y66194D01*
X51130Y66003D01*
X51511D01*
X51702Y66194D01*
Y66765D02*Y66194D01*
X52349Y67527D02*Y66194D01*
X52540Y66003D01*
X52159Y66956D02*X52540D01*
X52921Y65622D02*X53302Y66003D01*
X54635D02*X55397Y67527D01*
X54445D02*X55397D01*
X55855Y66574D02*X56617Y67527D01*
X55855Y66574D02*X56807D01*
X56617Y67527D02*Y66003D01*
X57950Y67527D02*Y66003D01*
Y66574D02*X58141Y66765D01*
X58522D01*
X58712Y66574D01*
Y66003D01*
X59169Y66574D02*Y66194D01*
Y66574D02*X59360Y66765D01*
X59741D01*
X59931Y66574D01*
Y66194D01*
X59741Y66003D02*X59931Y66194D01*
X59360Y66003D02*X59741D01*
X59169Y66194D02*X59360Y66003D01*
X60389Y67527D02*Y66194D01*
X60579Y66003D01*
X61151D02*X61722D01*
X60960Y66194D02*X61151Y66003D01*
X60960Y66574D02*Y66194D01*
Y66574D02*X61151Y66765D01*
X61532D01*
X61722Y66574D01*
X60960Y66384D02*X61722D01*
Y66574D02*Y66384D01*
X62370Y66003D02*X62941D01*
X63132Y66194D01*
X62941Y66384D02*X63132Y66194D01*
X62370Y66384D02*X62941D01*
X62179Y66574D02*X62370Y66384D01*
X62179Y66574D02*X62370Y66765D01*
X62941D01*
X63132Y66574D01*
X62179Y66194D02*X62370Y66003D01*
X64465Y67527D02*Y66194D01*
X64656Y66003D01*
X64275Y66956D02*X64656D01*
X65037Y66574D02*Y66194D01*
Y66574D02*X65227Y66765D01*
X65608D01*
X65799Y66574D01*
Y66194D01*
X65608Y66003D02*X65799Y66194D01*
X65227Y66003D02*X65608D01*
X65037Y66194D02*X65227Y66003D01*
X66446Y67527D02*Y66194D01*
X66637Y66003D01*
X66256Y66956D02*X66637D01*
X67589Y66765D02*X67780Y66574D01*
X67208Y66765D02*X67589D01*
X67018Y66574D02*X67208Y66765D01*
X67018Y66574D02*Y66194D01*
X67208Y66003D01*
X67780Y66765D02*Y66194D01*
X67970Y66003D01*
X67208D02*X67589D01*
X67780Y66194D01*
X68428Y67527D02*Y66194D01*
X68618Y66003D01*
G54D76*X0Y45048D02*X170000D01*
X0D02*Y0D01*
X170000Y45048D02*Y0D01*
X0D02*X170000D01*
G54D74*X50800Y48477D02*Y46953D01*
Y48477D02*X51372Y47715D01*
X51943Y48477D01*
Y46953D01*
X52972Y47715D02*X53162Y47524D01*
X52591Y47715D02*X52972D01*
X52400Y47524D02*X52591Y47715D01*
X52400Y47524D02*Y47144D01*
X52591Y46953D01*
X53162Y47715D02*Y47144D01*
X53353Y46953D01*
X52591D02*X52972D01*
X53162Y47144D01*
X53810Y47715D02*X54572Y46953D01*
X53810D02*X54572Y47715D01*
G54D75*X55029Y48096D02*Y48058D01*
G54D74*Y47524D02*Y46953D01*
X55601Y47524D02*Y46953D01*
Y47524D02*X55791Y47715D01*
X55982D01*
X56172Y47524D01*
Y46953D01*
Y47524D02*X56363Y47715D01*
X56553D01*
X56744Y47524D01*
Y46953D01*
X55410Y47715D02*X55601Y47524D01*
X57201Y47715D02*Y47144D01*
X57391Y46953D01*
X57772D01*
X57963Y47144D01*
Y47715D02*Y47144D01*
X58611Y47524D02*Y46953D01*
Y47524D02*X58801Y47715D01*
X58992D01*
X59182Y47524D01*
Y46953D01*
Y47524D02*X59373Y47715D01*
X59563D01*
X59754Y47524D01*
Y46953D01*
X58420Y47715D02*X58611Y47524D01*
X61087Y48477D02*Y46953D01*
X61582Y48477D02*X61849Y48210D01*
Y47220D01*
X61582Y46953D02*X61849Y47220D01*
X60897Y46953D02*X61582D01*
X60897Y48477D02*X61582D01*
G54D75*X62306Y48096D02*Y48058D01*
G54D74*Y47524D02*Y46953D01*
X62878Y47524D02*Y46953D01*
Y47524D02*X63068Y47715D01*
X63259D01*
X63449Y47524D01*
Y46953D01*
Y47524D02*X63640Y47715D01*
X63830D01*
X64021Y47524D01*
Y46953D01*
X62687Y47715D02*X62878Y47524D01*
X64668Y46953D02*X65240D01*
X64478Y47144D02*X64668Y46953D01*
X64478Y47524D02*Y47144D01*
Y47524D02*X64668Y47715D01*
X65049D01*
X65240Y47524D01*
X64478Y47334D02*X65240D01*
Y47524D02*Y47334D01*
X65888Y47524D02*Y46953D01*
Y47524D02*X66078Y47715D01*
X66269D01*
X66459Y47524D01*
Y46953D01*
X65697Y47715D02*X65888Y47524D01*
X67107Y46953D02*X67678D01*
X67869Y47144D01*
X67678Y47334D02*X67869Y47144D01*
X67107Y47334D02*X67678D01*
X66916Y47524D02*X67107Y47334D01*
X66916Y47524D02*X67107Y47715D01*
X67678D01*
X67869Y47524D01*
X66916Y47144D02*X67107Y46953D01*
G54D75*X68326Y48096D02*Y48058D01*
G54D74*Y47524D02*Y46953D01*
X68707Y47524D02*Y47144D01*
Y47524D02*X68898Y47715D01*
X69279D01*
X69469Y47524D01*
Y47144D01*
X69279Y46953D02*X69469Y47144D01*
X68898Y46953D02*X69279D01*
X68707Y47144D02*X68898Y46953D01*
X70117Y47524D02*Y46953D01*
Y47524D02*X70307Y47715D01*
X70498D01*
X70688Y47524D01*
Y46953D01*
X69926Y47715D02*X70117Y47524D01*
X71336Y46953D02*X71907D01*
X72098Y47144D01*
X71907Y47334D02*X72098Y47144D01*
X71336Y47334D02*X71907D01*
X71145Y47524D02*X71336Y47334D01*
X71145Y47524D02*X71336Y47715D01*
X71907D01*
X72098Y47524D01*
X71145Y47144D02*X71336Y46953D01*
X72555Y47906D02*X72746D01*
X72555Y47524D02*X72746D01*
X74460Y48477D02*X74651Y48286D01*
X74079Y48477D02*X74460D01*
X73889Y48286D02*X74079Y48477D01*
X73889Y48286D02*Y47144D01*
X74079Y46953D01*
X74460Y47791D02*X74651Y47601D01*
X73889Y47791D02*X74460D01*
X74079Y46953D02*X74460D01*
X74651Y47144D01*
Y47601D02*Y47144D01*
X75679Y48477D02*X75870Y48286D01*
X75298Y48477D02*X75679D01*
X75108Y48286D02*X75298Y48477D01*
X75108Y48286D02*Y47144D01*
X75298Y46953D01*
X75679Y47791D02*X75870Y47601D01*
X75108Y47791D02*X75679D01*
X75298Y46953D02*X75679D01*
X75870Y47144D01*
Y47601D02*Y47144D01*
X76518Y46953D02*X77089Y47715D01*
Y48286D02*Y47715D01*
X76899Y48477D02*X77089Y48286D01*
X76518Y48477D02*X76899D01*
X76327Y48286D02*X76518Y48477D01*
X76327Y48286D02*Y47906D01*
X76518Y47715D01*
X77089D01*
X77546Y48286D02*X77737Y48477D01*
X78308D01*
X78499Y48286D01*
Y47906D01*
X77546Y46953D02*X78499Y47906D01*
X77546Y46953D02*X78499D01*
X78956D02*X79146D01*
X79794D02*X80366Y47715D01*
Y48286D02*Y47715D01*
X80175Y48477D02*X80366Y48286D01*
X79794Y48477D02*X80175D01*
X79604Y48286D02*X79794Y48477D01*
X79604Y48286D02*Y47906D01*
X79794Y47715D01*
X80366D01*
X80823Y48172D02*X81128Y48477D01*
Y46953D01*
X80823D02*X81394D01*
X81852Y48286D02*X82042Y48477D01*
X82423D01*
X82614Y48286D01*
X82423Y46953D02*X82614Y47144D01*
X82042Y46953D02*X82423D01*
X81852Y47144D02*X82042Y46953D01*
Y47791D02*X82423D01*
X82614Y48286D02*Y47982D01*
Y47601D02*Y47144D01*
Y47601D02*X82423Y47791D01*
X82614Y47982D02*X82423Y47791D01*
X83071Y48286D02*X83261Y48477D01*
X83642D01*
X83833Y48286D01*
X83642Y46953D02*X83833Y47144D01*
X83261Y46953D02*X83642D01*
X83071Y47144D02*X83261Y46953D01*
Y47791D02*X83642D01*
X83833Y48286D02*Y47982D01*
Y47601D02*Y47144D01*
Y47601D02*X83642Y47791D01*
X83833Y47982D02*X83642Y47791D01*
X84290Y47144D02*X84480Y46953D01*
X84290Y47448D02*Y47144D01*
Y47448D02*X84557Y47715D01*
X84785D01*
X85052Y47448D01*
Y47144D01*
X84861Y46953D02*X85052Y47144D01*
X84480Y46953D02*X84861D01*
X84290Y47982D02*X84557Y47715D01*
X84290Y48286D02*Y47982D01*
Y48286D02*X84480Y48477D01*
X84861D01*
X85052Y48286D01*
Y47982D01*
X84785Y47715D02*X85052Y47982D01*
X86081Y48477D02*X86271Y48286D01*
X85700Y48477D02*X86081D01*
X85509Y48286D02*X85700Y48477D01*
X85509Y48286D02*Y47144D01*
X85700Y46953D01*
X86081Y47791D02*X86271Y47601D01*
X85509Y47791D02*X86081D01*
X85700Y46953D02*X86081D01*
X86271Y47144D01*
Y47601D02*Y47144D01*
X87605Y47524D02*Y46953D01*
Y47524D02*X87795Y47715D01*
X87986D01*
X88176Y47524D01*
Y46953D01*
Y47524D02*X88367Y47715D01*
X88557D01*
X88748Y47524D01*
Y46953D01*
X87414Y47715D02*X87605Y47524D01*
G54D75*X89205Y48096D02*Y48058D01*
G54D74*Y47524D02*Y46953D01*
X89586Y48477D02*Y47144D01*
X89776Y46953D01*
X90348D02*X90919D01*
X91110Y47144D01*
X90919Y47334D02*X91110Y47144D01*
X90348Y47334D02*X90919D01*
X90157Y47524D02*X90348Y47334D01*
X90157Y47524D02*X90348Y47715D01*
X90919D01*
X91110Y47524D01*
X90157Y47144D02*X90348Y46953D01*
X92253Y47715D02*Y47144D01*
X92443Y46953D01*
X92634D01*
X92824Y47144D01*
Y47715D02*Y47144D01*
X93015Y46953D01*
X93205D01*
X93396Y47144D01*
Y47715D02*Y47144D01*
G54D75*X93853Y48096D02*Y48058D01*
G54D74*Y47524D02*Y46953D01*
X94996Y48477D02*Y46953D01*
X94806D02*X94996Y47144D01*
X94425Y46953D02*X94806D01*
X94234Y47144D02*X94425Y46953D01*
X94234Y47524D02*Y47144D01*
Y47524D02*X94425Y47715D01*
X94806D01*
X94996Y47524D01*
X95644Y46953D02*X96215D01*
X95453Y47144D02*X95644Y46953D01*
X95453Y47524D02*Y47144D01*
Y47524D02*X95644Y47715D01*
X96025D01*
X96215Y47524D01*
X95453Y47334D02*X96215D01*
Y47524D02*Y47334D01*
X96672Y46572D02*X97053Y46953D01*
X98196Y48172D02*X98501Y48477D01*
Y46953D01*
X98196D02*X98768D01*
X99416D02*X100178Y48477D01*
X99225D02*X100178D01*
X100825Y46953D02*X101587Y48477D01*
X100635D02*X101587D01*
X102045Y48286D02*X102235Y48477D01*
X102616D01*
X102807Y48286D01*
X102616Y46953D02*X102807Y47144D01*
X102235Y46953D02*X102616D01*
X102045Y47144D02*X102235Y46953D01*
Y47791D02*X102616D01*
X102807Y48286D02*Y47982D01*
Y47601D02*Y47144D01*
Y47601D02*X102616Y47791D01*
X102807Y47982D02*X102616Y47791D01*
X103264Y46953D02*X103454D01*
X103911Y48477D02*X104673D01*
X103911D02*Y47715D01*
X104102Y47906D01*
X104483D01*
X104673Y47715D01*
Y47144D01*
X104483Y46953D02*X104673Y47144D01*
X104102Y46953D02*X104483D01*
X103911Y47144D02*X104102Y46953D01*
X105131Y47524D02*X105893Y48477D01*
X105131Y47524D02*X106083D01*
X105893Y48477D02*Y46953D01*
X106540Y48286D02*X106731Y48477D01*
X107112D01*
X107302Y48286D01*
X107112Y46953D02*X107302Y47144D01*
X106731Y46953D02*X107112D01*
X106540Y47144D02*X106731Y46953D01*
Y47791D02*X107112D01*
X107302Y48286D02*Y47982D01*
Y47601D02*Y47144D01*
Y47601D02*X107112Y47791D01*
X107302Y47982D02*X107112Y47791D01*
X107760Y48286D02*X107950Y48477D01*
X108331D01*
X108522Y48286D01*
X108331Y46953D02*X108522Y47144D01*
X107950Y46953D02*X108331D01*
X107760Y47144D02*X107950Y46953D01*
Y47791D02*X108331D01*
X108522Y48286D02*Y47982D01*
Y47601D02*Y47144D01*
Y47601D02*X108331Y47791D01*
X108522Y47982D02*X108331Y47791D01*
X108979Y47144D02*X109169Y46953D01*
X108979Y48286D02*Y47144D01*
Y48286D02*X109169Y48477D01*
X109550D01*
X109741Y48286D01*
Y47144D01*
X109550Y46953D02*X109741Y47144D01*
X109169Y46953D02*X109550D01*
X108979Y47334D02*X109741Y48096D01*
X110388Y46953D02*X111150Y48477D01*
X110198D02*X111150D01*
X112484Y47524D02*Y46953D01*
Y47524D02*X112674Y47715D01*
X112865D01*
X113055Y47524D01*
Y46953D01*
Y47524D02*X113246Y47715D01*
X113436D01*
X113627Y47524D01*
Y46953D01*
X112293Y47715D02*X112484Y47524D01*
G54D75*X114084Y48096D02*Y48058D01*
G54D74*Y47524D02*Y46953D01*
X114465Y48477D02*Y47144D01*
X114656Y46953D01*
X115227D02*X115799D01*
X115989Y47144D01*
X115799Y47334D02*X115989Y47144D01*
X115227Y47334D02*X115799D01*
X115037Y47524D02*X115227Y47334D01*
X115037Y47524D02*X115227Y47715D01*
X115799D01*
X115989Y47524D01*
X115037Y47144D02*X115227Y46953D01*
X117132Y48477D02*Y46953D01*
Y47524D02*X117323Y47715D01*
X117704D01*
X117894Y47524D01*
Y46953D01*
G54D75*X118351Y48096D02*Y48058D01*
G54D74*Y47524D02*Y46953D01*
X119304Y47715D02*X119494Y47524D01*
X118923Y47715D02*X119304D01*
X118732Y47524D02*X118923Y47715D01*
X118732Y47524D02*Y47144D01*
X118923Y46953D01*
X119304D01*
X119494Y47144D01*
X118732Y46572D02*X118923Y46382D01*
X119304D01*
X119494Y46572D01*
Y47715D02*Y46572D01*
X119952Y48477D02*Y46953D01*
Y47524D02*X120142Y47715D01*
X120523D01*
X120714Y47524D01*
Y46953D01*
X33222Y-2413D02*X33984D01*
X34175Y-2222D01*
Y-1765D02*Y-2222D01*
X33984Y-1575D02*X34175Y-1765D01*
X33413Y-1575D02*X33984D01*
X33413Y-889D02*Y-2413D01*
X33222Y-889D02*X33984D01*
X34175Y-1080D01*
Y-1384D01*
X33984Y-1575D02*X34175Y-1384D01*
X34632Y-1842D02*Y-2222D01*
Y-1842D02*X34822Y-1651D01*
X35203D01*
X35394Y-1842D01*
Y-2222D01*
X35203Y-2413D02*X35394Y-2222D01*
X34822Y-2413D02*X35203D01*
X34632Y-2222D02*X34822Y-2413D01*
X36422Y-1651D02*X36613Y-1842D01*
X36041Y-1651D02*X36422D01*
X35851Y-1842D02*X36041Y-1651D01*
X35851Y-1842D02*Y-2222D01*
X36041Y-2413D01*
X36613Y-1651D02*Y-2222D01*
X36803Y-2413D01*
X36041D02*X36422D01*
X36613Y-2222D01*
X37451Y-1842D02*Y-2413D01*
Y-1842D02*X37642Y-1651D01*
X38023D01*
X37261D02*X37451Y-1842D01*
X39242Y-889D02*Y-2413D01*
X39051D02*X39242Y-2222D01*
X38670Y-2413D02*X39051D01*
X38480Y-2222D02*X38670Y-2413D01*
X38480Y-1842D02*Y-2222D01*
Y-1842D02*X38670Y-1651D01*
X39051D01*
X39242Y-1842D01*
X40385D02*Y-2222D01*
Y-1842D02*X40575Y-1651D01*
X40956D01*
X41147Y-1842D01*
Y-2222D01*
X40956Y-2413D02*X41147Y-2222D01*
X40575Y-2413D02*X40956D01*
X40385Y-2222D02*X40575Y-2413D01*
X41604Y-1651D02*Y-2222D01*
X41795Y-2413D01*
X42176D01*
X42366Y-2222D01*
Y-1651D02*Y-2222D01*
X43014Y-889D02*Y-2222D01*
X43204Y-2413D01*
X42823Y-1460D02*X43204D01*
X43585Y-889D02*Y-2222D01*
X43776Y-2413D01*
G54D75*X44157Y-1270D02*Y-1308D01*
G54D74*Y-1842D02*Y-2413D01*
X44728Y-1842D02*Y-2413D01*
Y-1842D02*X44919Y-1651D01*
X45109D01*
X45300Y-1842D01*
Y-2413D01*
X44538Y-1651D02*X44728Y-1842D01*
X45947Y-2413D02*X46519D01*
X45757Y-2222D02*X45947Y-2413D01*
X45757Y-1842D02*Y-2222D01*
Y-1842D02*X45947Y-1651D01*
X46328D01*
X46519Y-1842D01*
X45757Y-2032D02*X46519D01*
Y-1842D02*Y-2032D01*
G54D75*X47662Y-1270D02*Y-1308D01*
G54D74*Y-1842D02*Y-2413D01*
X48233D02*X48805D01*
X48995Y-2222D01*
X48805Y-2032D02*X48995Y-2222D01*
X48233Y-2032D02*X48805D01*
X48043Y-1842D02*X48233Y-2032D01*
X48043Y-1842D02*X48233Y-1651D01*
X48805D01*
X48995Y-1842D01*
X48043Y-2222D02*X48233Y-2413D01*
X50329Y-889D02*Y-2222D01*
X50519Y-2413D01*
X50138Y-1460D02*X50519D01*
X50900Y-889D02*Y-2413D01*
Y-1842D02*X51091Y-1651D01*
X51472D01*
X51662Y-1842D01*
Y-2413D01*
X52310D02*X52882D01*
X52120Y-2222D02*X52310Y-2413D01*
X52120Y-1842D02*Y-2222D01*
Y-1842D02*X52310Y-1651D01*
X52691D01*
X52882Y-1842D01*
X52120Y-2032D02*X52882D01*
Y-1842D02*Y-2032D01*
X54215Y-1651D02*X54787D01*
X54025Y-1842D02*X54215Y-1651D01*
X54025Y-1842D02*Y-2222D01*
X54215Y-2413D01*
X54787D01*
X55434D02*X56006D01*
X55244Y-2222D02*X55434Y-2413D01*
X55244Y-1842D02*Y-2222D01*
Y-1842D02*X55434Y-1651D01*
X55815D01*
X56006Y-1842D01*
X55244Y-2032D02*X56006D01*
Y-1842D02*Y-2032D01*
X56654Y-1842D02*Y-2413D01*
Y-1842D02*X56844Y-1651D01*
X57035D01*
X57225Y-1842D01*
Y-2413D01*
X56463Y-1651D02*X56654Y-1842D01*
X57873Y-889D02*Y-2222D01*
X58063Y-2413D01*
X57682Y-1460D02*X58063D01*
X58635Y-2413D02*X59206D01*
X58444Y-2222D02*X58635Y-2413D01*
X58444Y-1842D02*Y-2222D01*
Y-1842D02*X58635Y-1651D01*
X59016D01*
X59206Y-1842D01*
X58444Y-2032D02*X59206D01*
Y-1842D02*Y-2032D01*
X59854Y-1842D02*Y-2413D01*
Y-1842D02*X60044Y-1651D01*
X60425D01*
X59663D02*X59854Y-1842D01*
X60883Y-889D02*Y-2222D01*
X61073Y-2413D01*
G54D75*X61454Y-1270D02*Y-1308D01*
G54D74*Y-1842D02*Y-2413D01*
X62026Y-1842D02*Y-2413D01*
Y-1842D02*X62216Y-1651D01*
X62407D01*
X62597Y-1842D01*
Y-2413D01*
X61835Y-1651D02*X62026Y-1842D01*
X63245Y-2413D02*X63816D01*
X63054Y-2222D02*X63245Y-2413D01*
X63054Y-1842D02*Y-2222D01*
Y-1842D02*X63245Y-1651D01*
X63626D01*
X63816Y-1842D01*
X63054Y-2032D02*X63816D01*
Y-1842D02*Y-2032D01*
X64959Y-1842D02*Y-2222D01*
Y-1842D02*X65150Y-1651D01*
X65531D01*
X65721Y-1842D01*
Y-2222D01*
X65531Y-2413D02*X65721Y-2222D01*
X65150Y-2413D02*X65531D01*
X64959Y-2222D02*X65150Y-2413D01*
X66369Y-1080D02*Y-2413D01*
Y-1080D02*X66560Y-889D01*
X66750D01*
X66179Y-1651D02*X66560D01*
X68007Y-889D02*Y-2222D01*
X68198Y-2413D01*
X67817Y-1460D02*X68198D01*
X68579Y-889D02*Y-2413D01*
Y-1842D02*X68769Y-1651D01*
X69150D01*
X69341Y-1842D01*
Y-2413D01*
G54D75*X69798Y-1270D02*Y-1308D01*
G54D74*Y-1842D02*Y-2413D01*
X70370D02*X70941D01*
X71132Y-2222D01*
X70941Y-2032D02*X71132Y-2222D01*
X70370Y-2032D02*X70941D01*
X70179Y-1842D02*X70370Y-2032D01*
X70179Y-1842D02*X70370Y-1651D01*
X70941D01*
X71132Y-1842D01*
X70179Y-2222D02*X70370Y-2413D01*
X72275Y-2222D02*X72465Y-2413D01*
X72275Y-1918D02*Y-2222D01*
Y-1918D02*X72541Y-1651D01*
X72770D01*
X73037Y-1918D01*
Y-2222D01*
X72846Y-2413D02*X73037Y-2222D01*
X72465Y-2413D02*X72846D01*
X72275Y-1384D02*X72541Y-1651D01*
X72275Y-1080D02*Y-1384D01*
Y-1080D02*X72465Y-889D01*
X72846D01*
X73037Y-1080D01*
Y-1384D01*
X72770Y-1651D02*X73037Y-1384D01*
X73494Y-2413D02*X73684D01*
X74141Y-2222D02*X74332Y-2413D01*
X74141Y-1080D02*Y-2222D01*
Y-1080D02*X74332Y-889D01*
X74713D01*
X74903Y-1080D01*
Y-2222D01*
X74713Y-2413D02*X74903Y-2222D01*
X74332Y-2413D02*X74713D01*
X74141Y-2032D02*X74903Y-1270D01*
X75361Y-2222D02*X75551Y-2413D01*
X75361Y-1080D02*Y-2222D01*
Y-1080D02*X75551Y-889D01*
X75932D01*
X76123Y-1080D01*
Y-2222D01*
X75932Y-2413D02*X76123Y-2222D01*
X75551Y-2413D02*X75932D01*
X75361Y-2032D02*X76123Y-1270D01*
X76580Y-2222D02*X76770Y-2413D01*
X76580Y-1080D02*Y-2222D01*
Y-1080D02*X76770Y-889D01*
X77151D01*
X77342Y-1080D01*
Y-2222D01*
X77151Y-2413D02*X77342Y-2222D01*
X76770Y-2413D02*X77151D01*
X76580Y-2032D02*X77342Y-1270D01*
X77799Y-2222D02*X77990Y-2413D01*
X77799Y-1080D02*Y-2222D01*
Y-1080D02*X77990Y-889D01*
X78371D01*
X78561Y-1080D01*
Y-2222D01*
X78371Y-2413D02*X78561Y-2222D01*
X77990Y-2413D02*X78371D01*
X77799Y-2032D02*X78561Y-1270D01*
X79018Y-2222D02*X79209Y-2413D01*
X79018Y-1080D02*Y-2222D01*
Y-1080D02*X79209Y-889D01*
X79590D01*
X79780Y-1080D01*
Y-2222D01*
X79590Y-2413D02*X79780Y-2222D01*
X79209Y-2413D02*X79590D01*
X79018Y-2032D02*X79780Y-1270D01*
X80237Y-2222D02*X80428Y-2413D01*
X80237Y-1080D02*Y-2222D01*
Y-1080D02*X80428Y-889D01*
X80809D01*
X80999Y-1080D01*
Y-2222D01*
X80809Y-2413D02*X80999Y-2222D01*
X80428Y-2413D02*X80809D01*
X80237Y-2032D02*X80999Y-1270D01*
X82333Y-1842D02*Y-2413D01*
Y-1842D02*X82523Y-1651D01*
X82714D01*
X82904Y-1842D01*
Y-2413D01*
Y-1842D02*X83095Y-1651D01*
X83285D01*
X83476Y-1842D01*
Y-2413D01*
X82142Y-1651D02*X82333Y-1842D01*
G54D75*X83933Y-1270D02*Y-1308D01*
G54D74*Y-1842D02*Y-2413D01*
X84314Y-889D02*Y-2222D01*
X84505Y-2413D01*
X85762Y-1842D02*Y-2413D01*
Y-1842D02*X85953Y-1651D01*
X86334D01*
X85572D02*X85762Y-1842D01*
X86981Y-2413D02*X87553D01*
X86791Y-2222D02*X86981Y-2413D01*
X86791Y-1842D02*Y-2222D01*
Y-1842D02*X86981Y-1651D01*
X87362D01*
X87553Y-1842D01*
X86791Y-2032D02*X87553D01*
Y-1842D02*Y-2032D01*
X88200Y-1651D02*X88772D01*
X88010Y-1842D02*X88200Y-1651D01*
X88010Y-1842D02*Y-2222D01*
X88200Y-2413D01*
X88772D01*
X89420Y-889D02*Y-2222D01*
X89610Y-2413D01*
X89229Y-1460D02*X89610D01*
X90563Y-1651D02*X90753Y-1842D01*
X90182Y-1651D02*X90563D01*
X89991Y-1842D02*X90182Y-1651D01*
X89991Y-1842D02*Y-2222D01*
X90182Y-2413D01*
X90753Y-1651D02*Y-2222D01*
X90944Y-2413D01*
X90182D02*X90563D01*
X90753Y-2222D01*
X91591Y-1842D02*Y-2413D01*
Y-1842D02*X91782Y-1651D01*
X91972D01*
X92163Y-1842D01*
Y-2413D01*
X91401Y-1651D02*X91591Y-1842D01*
X93192Y-1651D02*X93382Y-1842D01*
X92811Y-1651D02*X93192D01*
X92620Y-1842D02*X92811Y-1651D01*
X92620Y-1842D02*Y-2222D01*
X92811Y-2413D01*
X93192D01*
X93382Y-2222D01*
X92620Y-2794D02*X92811Y-2984D01*
X93192D01*
X93382Y-2794D01*
Y-1651D02*Y-2794D01*
X93839Y-889D02*Y-2222D01*
X94030Y-2413D01*
X94601D02*X95173D01*
X94411Y-2222D02*X94601Y-2413D01*
X94411Y-1842D02*Y-2222D01*
Y-1842D02*X94601Y-1651D01*
X94982D01*
X95173Y-1842D01*
X94411Y-2032D02*X95173D01*
Y-1842D02*Y-2032D01*
X96316Y-1651D02*X97078D01*
X98221Y-2222D02*X98411Y-2413D01*
X98221Y-1080D02*Y-2222D01*
Y-1080D02*X98411Y-889D01*
X98792D01*
X98983Y-1080D01*
Y-2222D01*
X98792Y-2413D02*X98983Y-2222D01*
X98411Y-2413D02*X98792D01*
X98221Y-2032D02*X98983Y-1270D01*
X99440Y-2794D02*X99821Y-2413D01*
X100278Y-2222D02*X100469Y-2413D01*
X100278Y-1080D02*Y-2222D01*
Y-1080D02*X100469Y-889D01*
X100850D01*
X101040Y-1080D01*
Y-2222D01*
X100850Y-2413D02*X101040Y-2222D01*
X100469Y-2413D02*X100850D01*
X100278Y-2032D02*X101040Y-1270D01*
X102374Y-889D02*Y-2222D01*
X102564Y-2413D01*
X102183Y-1460D02*X102564D01*
X102945Y-1842D02*Y-2222D01*
Y-1842D02*X103136Y-1651D01*
X103517D01*
X103707Y-1842D01*
Y-2222D01*
X103517Y-2413D02*X103707Y-2222D01*
X103136Y-2413D02*X103517D01*
X102945Y-2222D02*X103136Y-2413D01*
X105422Y-889D02*X105612Y-1080D01*
X105041Y-889D02*X105422D01*
X104850Y-1080D02*X105041Y-889D01*
X104850Y-1080D02*Y-2222D01*
X105041Y-2413D01*
X105422Y-1575D02*X105612Y-1765D01*
X104850Y-1575D02*X105422D01*
X105041Y-2413D02*X105422D01*
X105612Y-2222D01*
Y-1765D02*Y-2222D01*
X106641Y-889D02*X106831Y-1080D01*
X106260Y-889D02*X106641D01*
X106069Y-1080D02*X106260Y-889D01*
X106069Y-1080D02*Y-2222D01*
X106260Y-2413D01*
X106641Y-1575D02*X106831Y-1765D01*
X106069Y-1575D02*X106641D01*
X106260Y-2413D02*X106641D01*
X106831Y-2222D01*
Y-1765D02*Y-2222D01*
X107479Y-2413D02*X108051Y-1651D01*
Y-1080D02*Y-1651D01*
X107860Y-889D02*X108051Y-1080D01*
X107479Y-889D02*X107860D01*
X107289Y-1080D02*X107479Y-889D01*
X107289Y-1080D02*Y-1460D01*
X107479Y-1651D01*
X108051D01*
X108508Y-1080D02*X108698Y-889D01*
X109270D01*
X109460Y-1080D01*
Y-1460D01*
X108508Y-2413D02*X109460Y-1460D01*
X108508Y-2413D02*X109460D01*
X109917D02*X110108D01*
X110756D02*X111327Y-1651D01*
Y-1080D02*Y-1651D01*
X111137Y-889D02*X111327Y-1080D01*
X110756Y-889D02*X111137D01*
X110565Y-1080D02*X110756Y-889D01*
X110565Y-1080D02*Y-1460D01*
X110756Y-1651D01*
X111327D01*
X111784Y-1194D02*X112089Y-889D01*
Y-2413D01*
X111784D02*X112356D01*
X112813Y-1080D02*X113004Y-889D01*
X113385D01*
X113575Y-1080D01*
X113385Y-2413D02*X113575Y-2222D01*
X113004Y-2413D02*X113385D01*
X112813Y-2222D02*X113004Y-2413D01*
Y-1575D02*X113385D01*
X113575Y-1080D02*Y-1384D01*
Y-1765D02*Y-2222D01*
Y-1765D02*X113385Y-1575D01*
X113575Y-1384D02*X113385Y-1575D01*
X114032Y-1080D02*X114223Y-889D01*
X114604D01*
X114794Y-1080D01*
X114604Y-2413D02*X114794Y-2222D01*
X114223Y-2413D02*X114604D01*
X114032Y-2222D02*X114223Y-2413D01*
Y-1575D02*X114604D01*
X114794Y-1080D02*Y-1384D01*
Y-1765D02*Y-2222D01*
Y-1765D02*X114604Y-1575D01*
X114794Y-1384D02*X114604Y-1575D01*
X115251Y-2222D02*X115442Y-2413D01*
X115251Y-1918D02*Y-2222D01*
Y-1918D02*X115518Y-1651D01*
X115747D01*
X116013Y-1918D01*
Y-2222D01*
X115823Y-2413D02*X116013Y-2222D01*
X115442Y-2413D02*X115823D01*
X115251Y-1384D02*X115518Y-1651D01*
X115251Y-1080D02*Y-1384D01*
Y-1080D02*X115442Y-889D01*
X115823D01*
X116013Y-1080D01*
Y-1384D01*
X115747Y-1651D02*X116013Y-1384D01*
X117042Y-889D02*X117233Y-1080D01*
X116661Y-889D02*X117042D01*
X116471Y-1080D02*X116661Y-889D01*
X116471Y-1080D02*Y-2222D01*
X116661Y-2413D01*
X117042Y-1575D02*X117233Y-1765D01*
X116471Y-1575D02*X117042D01*
X116661Y-2413D02*X117042D01*
X117233Y-2222D01*
Y-1765D02*Y-2222D01*
X117690Y-2794D02*X118071Y-2413D01*
X118528Y-1194D02*X118833Y-889D01*
Y-2413D01*
X118528D02*X119100D01*
X119747D02*X120509Y-889D01*
X119557D02*X120509D01*
X121157Y-2413D02*X121919Y-889D01*
X120966D02*X121919D01*
X122376Y-1080D02*X122567Y-889D01*
X122948D01*
X123138Y-1080D01*
X122948Y-2413D02*X123138Y-2222D01*
X122567Y-2413D02*X122948D01*
X122376Y-2222D02*X122567Y-2413D01*
Y-1575D02*X122948D01*
X123138Y-1080D02*Y-1384D01*
Y-1765D02*Y-2222D01*
Y-1765D02*X122948Y-1575D01*
X123138Y-1384D02*X122948Y-1575D01*
X123595Y-2413D02*X123786D01*
X124243Y-889D02*X125005D01*
X124243D02*Y-1651D01*
X124434Y-1460D01*
X124815D01*
X125005Y-1651D01*
Y-2222D01*
X124815Y-2413D02*X125005Y-2222D01*
X124434Y-2413D02*X124815D01*
X124243Y-2222D02*X124434Y-2413D01*
X125462Y-1842D02*X126224Y-889D01*
X125462Y-1842D02*X126415D01*
X126224Y-889D02*Y-2413D01*
X126872Y-1080D02*X127062Y-889D01*
X127443D01*
X127634Y-1080D01*
X127443Y-2413D02*X127634Y-2222D01*
X127062Y-2413D02*X127443D01*
X126872Y-2222D02*X127062Y-2413D01*
Y-1575D02*X127443D01*
X127634Y-1080D02*Y-1384D01*
Y-1765D02*Y-2222D01*
Y-1765D02*X127443Y-1575D01*
X127634Y-1384D02*X127443Y-1575D01*
X128091Y-1080D02*X128282Y-889D01*
X128663D01*
X128853Y-1080D01*
X128663Y-2413D02*X128853Y-2222D01*
X128282Y-2413D02*X128663D01*
X128091Y-2222D02*X128282Y-2413D01*
Y-1575D02*X128663D01*
X128853Y-1080D02*Y-1384D01*
Y-1765D02*Y-2222D01*
Y-1765D02*X128663Y-1575D01*
X128853Y-1384D02*X128663Y-1575D01*
X129310Y-2222D02*X129501Y-2413D01*
X129310Y-1080D02*Y-2222D01*
Y-1080D02*X129501Y-889D01*
X129882D01*
X130072Y-1080D01*
Y-2222D01*
X129882Y-2413D02*X130072Y-2222D01*
X129501Y-2413D02*X129882D01*
X129310Y-2032D02*X130072Y-1270D01*
X130720Y-2413D02*X131482Y-889D01*
X130530D02*X131482D01*
X132816Y-1842D02*Y-2413D01*
Y-1842D02*X133006Y-1651D01*
X133197D01*
X133387Y-1842D01*
Y-2413D01*
Y-1842D02*X133578Y-1651D01*
X133768D01*
X133959Y-1842D01*
Y-2413D01*
X132625Y-1651D02*X132816Y-1842D01*
G54D75*X134416Y-1270D02*Y-1308D01*
G54D74*Y-1842D02*Y-2413D01*
X134797Y-889D02*Y-2222D01*
X134987Y-2413D01*
X135559D02*X136130D01*
X136321Y-2222D01*
X136130Y-2032D02*X136321Y-2222D01*
X135559Y-2032D02*X136130D01*
X135368Y-1842D02*X135559Y-2032D01*
X135368Y-1842D02*X135559Y-1651D01*
X136130D01*
X136321Y-1842D01*
X135368Y-2222D02*X135559Y-2413D01*
X50990Y52287D02*Y50763D01*
X51486Y52287D02*X51752Y52020D01*
Y51030D01*
X51486Y50763D02*X51752Y51030D01*
X50800Y50763D02*X51486D01*
X50800Y52287D02*X51486D01*
X52781Y51525D02*X52972Y51334D01*
X52400Y51525D02*X52781D01*
X52210Y51334D02*X52400Y51525D01*
X52210Y51334D02*Y50954D01*
X52400Y50763D01*
X52972Y51525D02*Y50954D01*
X53162Y50763D01*
X52400D02*X52781D01*
X52972Y50954D01*
X53810Y52287D02*Y50954D01*
X54000Y50763D01*
X53619Y51716D02*X54000D01*
X54572Y50763D02*X55143D01*
X54381Y50954D02*X54572Y50763D01*
X54381Y51334D02*Y50954D01*
Y51334D02*X54572Y51525D01*
X54953D01*
X55143Y51334D01*
X54381Y51144D02*X55143D01*
Y51334D02*Y51144D01*
X55601Y51716D02*X55791D01*
X55601Y51334D02*X55791D01*
G54D73*G36*
X56934Y52668D02*Y50191D01*
X58839D01*
Y52668D01*
X56934D01*
G37*
G36*
X59220D02*Y50191D01*
X61125D01*
Y52668D01*
X59220D01*
G37*
G36*
X61506D02*Y50191D01*
X63411D01*
Y52668D01*
X61506D01*
G37*
G36*
X63792D02*Y50191D01*
X65697D01*
Y52668D01*
X63792D01*
G37*
G54D74*X66078Y50382D02*X66459Y50763D01*
X67602Y50954D02*X67793Y50763D01*
X67602Y52096D02*Y50954D01*
Y52096D02*X67793Y52287D01*
X68174D01*
X68364Y52096D01*
Y50954D01*
X68174Y50763D02*X68364Y50954D01*
X67793Y50763D02*X68174D01*
X67602Y51144D02*X68364Y51906D01*
X68821Y52096D02*X69012Y52287D01*
X69393D01*
X69583Y52096D01*
X69393Y50763D02*X69583Y50954D01*
X69012Y50763D02*X69393D01*
X68821Y50954D02*X69012Y50763D01*
Y51601D02*X69393D01*
X69583Y52096D02*Y51792D01*
Y51411D02*Y50954D01*
Y51411D02*X69393Y51601D01*
X69583Y51792D02*X69393Y51601D01*
X70041Y51525D02*X70803D01*
G54D73*G36*
X71260Y52668D02*Y50191D01*
X73165D01*
Y52668D01*
X71260D01*
G37*
G36*
X73546D02*Y50191D01*
X75451D01*
Y52668D01*
X73546D01*
G37*
G36*
X75832D02*Y50191D01*
X77737D01*
Y52668D01*
X75832D01*
G37*
G36*
X78118D02*Y50191D01*
X80023D01*
Y52668D01*
X78118D01*
G37*
G36*
X80404D02*Y50191D01*
X82309D01*
Y52668D01*
X80404D01*
G37*
G36*
X82690D02*Y50191D01*
X84595D01*
Y52668D01*
X82690D01*
G37*
G54D74*X84976Y51525D02*X85738D01*
X86195Y52096D02*X86385Y52287D01*
X86957D01*
X87147Y52096D01*
Y51716D01*
X86195Y50763D02*X87147Y51716D01*
X86195Y50763D02*X87147D01*
X87605Y50954D02*X87795Y50763D01*
X87605Y52096D02*Y50954D01*
Y52096D02*X87795Y52287D01*
X88176D01*
X88367Y52096D01*
Y50954D01*
X88176Y50763D02*X88367Y50954D01*
X87795Y50763D02*X88176D01*
X87605Y51144D02*X88367Y51906D01*
X88824Y51982D02*X89129Y52287D01*
Y50763D01*
X88824D02*X89395D01*
X90424Y52287D02*X90615Y52096D01*
X90043Y52287D02*X90424D01*
X89853Y52096D02*X90043Y52287D01*
X89853Y52096D02*Y50954D01*
X90043Y50763D01*
X90424Y51601D02*X90615Y51411D01*
X89853Y51601D02*X90424D01*
X90043Y50763D02*X90424D01*
X90615Y50954D01*
Y51411D02*Y50954D01*
X91758Y51982D02*X92062Y52287D01*
Y50763D01*
X91758D02*X92329D01*
X92786Y50954D02*X92977Y50763D01*
X92786Y52096D02*Y50954D01*
Y52096D02*X92977Y52287D01*
X93358D01*
X93548Y52096D01*
Y50954D01*
X93358Y50763D02*X93548Y50954D01*
X92977Y50763D02*X93358D01*
X92786Y51144D02*X93548Y51906D01*
X94005Y51716D02*X94196D01*
X94005Y51334D02*X94196D01*
X94653Y52096D02*X94844Y52287D01*
X95415D01*
X95606Y52096D01*
Y51716D01*
X94653Y50763D02*X95606Y51716D01*
X94653Y50763D02*X95606D01*
X96063Y52287D02*X96825D01*
X96063D02*Y51525D01*
X96253Y51716D01*
X96634D01*
X96825Y51525D01*
Y50954D01*
X96634Y50763D02*X96825Y50954D01*
X96253Y50763D02*X96634D01*
X96063Y50954D02*X96253Y50763D01*
X97282Y51716D02*X97473D01*
X97282Y51334D02*X97473D01*
X97930Y50954D02*X98120Y50763D01*
X97930Y52096D02*Y50954D01*
Y52096D02*X98120Y52287D01*
X98501D01*
X98692Y52096D01*
Y50954D01*
X98501Y50763D02*X98692Y50954D01*
X98120Y50763D02*X98501D01*
X97930Y51144D02*X98692Y51906D01*
X99149Y51334D02*X99911Y52287D01*
X99149Y51334D02*X100101D01*
X99911Y52287D02*Y50763D01*
X101244Y51525D02*X102006D01*
X101625Y51906D02*Y51144D01*
X102464Y50954D02*X102654Y50763D01*
X102464Y52096D02*Y50954D01*
Y52096D02*X102654Y52287D01*
X103035D01*
X103226Y52096D01*
Y50954D01*
X103035Y50763D02*X103226Y50954D01*
X102654Y50763D02*X103035D01*
X102464Y51144D02*X103226Y51906D01*
X103683Y50954D02*X103873Y50763D01*
X103683Y52096D02*Y50954D01*
Y52096D02*X103873Y52287D01*
X104254D01*
X104445Y52096D01*
Y50954D01*
X104254Y50763D02*X104445Y50954D01*
X103873Y50763D02*X104254D01*
X103683Y51144D02*X104445Y51906D01*
X104902Y50954D02*X105093Y50763D01*
X104902Y52096D02*Y50954D01*
Y52096D02*X105093Y52287D01*
X105474D01*
X105664Y52096D01*
Y50954D01*
X105474Y50763D02*X105664Y50954D01*
X105093Y50763D02*X105474D01*
X104902Y51144D02*X105664Y51906D01*
X106121Y50954D02*X106312Y50763D01*
X106121Y52096D02*Y50954D01*
Y52096D02*X106312Y52287D01*
X106693D01*
X106883Y52096D01*
Y50954D01*
X106693Y50763D02*X106883Y50954D01*
X106312Y50763D02*X106693D01*
X106121Y51144D02*X106883Y51906D01*
X108026Y52287D02*Y50954D01*
X108217Y50763D01*
X108598D01*
X108788Y50954D01*
Y52287D02*Y50954D01*
X109245Y52287D02*X110007D01*
X109626D02*Y50763D01*
X110731D02*X111227D01*
X110465Y51030D02*X110731Y50763D01*
X110465Y52020D02*Y51030D01*
Y52020D02*X110731Y52287D01*
X111227D01*
X50800Y55716D02*Y54573D01*
Y55716D02*X51067Y56097D01*
X51486D01*
X51752Y55716D01*
Y54573D01*
X50800Y55335D02*X51752D01*
X52210D02*Y54764D01*
X52400Y54573D01*
X52781D01*
X52972Y54764D01*
Y55335D02*Y54764D01*
X53619Y56097D02*Y54764D01*
X53810Y54573D01*
X53429Y55526D02*X53810D01*
X54191Y56097D02*Y54573D01*
Y55144D02*X54381Y55335D01*
X54762D01*
X54953Y55144D01*
Y54573D01*
X55410Y55144D02*Y54764D01*
Y55144D02*X55601Y55335D01*
X55982D01*
X56172Y55144D01*
Y54764D01*
X55982Y54573D02*X56172Y54764D01*
X55601Y54573D02*X55982D01*
X55410Y54764D02*X55601Y54573D01*
X56820Y55144D02*Y54573D01*
Y55144D02*X57010Y55335D01*
X57391D01*
X56629D02*X56820Y55144D01*
X57849Y55526D02*X58039D01*
X57849Y55144D02*X58039D01*
X59373D02*Y54573D01*
Y55144D02*X59563Y55335D01*
X59944D01*
X59182D02*X59373Y55144D01*
X60401D02*Y54764D01*
Y55144D02*X60592Y55335D01*
X60973D01*
X61163Y55144D01*
Y54764D01*
X60973Y54573D02*X61163Y54764D01*
X60592Y54573D02*X60973D01*
X60401Y54764D02*X60592Y54573D01*
X61620Y55144D02*Y54764D01*
Y55144D02*X61811Y55335D01*
X62192D01*
X62382Y55144D01*
Y54764D01*
X62192Y54573D02*X62382Y54764D01*
X61811Y54573D02*X62192D01*
X61620Y54764D02*X61811Y54573D01*
X63030Y56097D02*Y54764D01*
X63221Y54573D01*
X62840Y55526D02*X63221D01*
X50800Y59907D02*X51562D01*
X51181D02*Y58383D01*
G54D75*X52019Y59526D02*Y59488D01*
G54D74*Y58954D02*Y58383D01*
X52591Y59907D02*Y58574D01*
X52781Y58383D01*
X52400Y59336D02*X52781D01*
X53162Y59907D02*Y58574D01*
X53353Y58383D01*
X53924D02*X54496D01*
X53734Y58574D02*X53924Y58383D01*
X53734Y58954D02*Y58574D01*
Y58954D02*X53924Y59145D01*
X54305D01*
X54496Y58954D01*
X53734Y58764D02*X54496D01*
Y58954D02*Y58764D01*
X54953Y59336D02*X55143D01*
X54953Y58954D02*X55143D01*
X56286Y58574D02*X56477Y58383D01*
X56286Y59716D02*X56477Y59907D01*
X56286Y59716D02*Y58574D01*
X56934Y59145D02*Y58574D01*
X57125Y58383D01*
X57506D01*
X57696Y58574D01*
Y59145D02*Y58574D01*
X58344Y58954D02*Y58383D01*
Y58954D02*X58534Y59145D01*
X58725D01*
X58915Y58954D01*
Y58383D01*
X58153Y59145D02*X58344Y58954D01*
X59373Y59907D02*Y58383D01*
Y58954D02*X59944Y58383D01*
X59373Y58954D02*X59754Y59336D01*
X60592Y58954D02*Y58383D01*
Y58954D02*X60782Y59145D01*
X60973D01*
X61163Y58954D01*
Y58383D01*
X60401Y59145D02*X60592Y58954D01*
X61620D02*Y58574D01*
Y58954D02*X61811Y59145D01*
X62192D01*
X62382Y58954D01*
Y58574D01*
X62192Y58383D02*X62382Y58574D01*
X61811Y58383D02*X62192D01*
X61620Y58574D02*X61811Y58383D01*
X62840Y59145D02*Y58574D01*
X63030Y58383D01*
X63221D01*
X63411Y58574D01*
Y59145D02*Y58574D01*
X63602Y58383D01*
X63792D01*
X63983Y58574D01*
Y59145D02*Y58574D01*
X64630Y58954D02*Y58383D01*
Y58954D02*X64821Y59145D01*
X65011D01*
X65202Y58954D01*
Y58383D01*
X64440Y59145D02*X64630Y58954D01*
X65659Y59907D02*X65850Y59716D01*
Y58574D01*
X65659Y58383D02*X65850Y58574D01*
X66993Y59145D02*X67755D01*
X68898Y59907D02*Y58383D01*
Y59907D02*X69660D01*
X68898Y59221D02*X69469D01*
X70688Y59145D02*X70879Y58954D01*
X70307Y59145D02*X70688D01*
X70117Y58954D02*X70307Y59145D01*
X70117Y58954D02*Y58574D01*
X70307Y58383D01*
X70879Y59145D02*Y58574D01*
X71069Y58383D01*
X70307D02*X70688D01*
X70879Y58574D01*
X71526Y59907D02*Y58383D01*
Y58574D02*X71717Y58383D01*
X72098D01*
X72288Y58574D01*
Y58954D02*Y58574D01*
X72098Y59145D02*X72288Y58954D01*
X71717Y59145D02*X72098D01*
X71526Y58954D02*X71717Y59145D01*
X72936Y58954D02*Y58383D01*
Y58954D02*X73127Y59145D01*
X73508D01*
X72746D02*X72936Y58954D01*
G54D75*X73965Y59526D02*Y59488D01*
G54D74*Y58954D02*Y58383D01*
X74536Y59145D02*X75108D01*
X74346Y58954D02*X74536Y59145D01*
X74346Y58954D02*Y58574D01*
X74536Y58383D01*
X75108D01*
X76137Y59145D02*X76327Y58954D01*
X75756Y59145D02*X76137D01*
X75565Y58954D02*X75756Y59145D01*
X75565Y58954D02*Y58574D01*
X75756Y58383D01*
X76327Y59145D02*Y58574D01*
X76518Y58383D01*
X75756D02*X76137D01*
X76327Y58574D01*
X77165Y59907D02*Y58574D01*
X77356Y58383D01*
X76975Y59336D02*X77356D01*
G54D75*X77737Y59526D02*Y59488D01*
G54D74*Y58954D02*Y58383D01*
X78118Y58954D02*Y58574D01*
Y58954D02*X78308Y59145D01*
X78689D01*
X78880Y58954D01*
Y58574D01*
X78689Y58383D02*X78880Y58574D01*
X78308Y58383D02*X78689D01*
X78118Y58574D02*X78308Y58383D01*
X79527Y58954D02*Y58383D01*
Y58954D02*X79718Y59145D01*
X79908D01*
X80099Y58954D01*
Y58383D01*
X79337Y59145D02*X79527Y58954D01*
X81432Y59907D02*Y58383D01*
X81928Y59907D02*X82194Y59640D01*
Y58650D01*
X81928Y58383D02*X82194Y58650D01*
X81242Y58383D02*X81928D01*
X81242Y59907D02*X81928D01*
X82842Y58954D02*Y58383D01*
Y58954D02*X83033Y59145D01*
X83414D01*
X82652D02*X82842Y58954D01*
X84442Y59145D02*X84633Y58954D01*
X84061Y59145D02*X84442D01*
X83871Y58954D02*X84061Y59145D01*
X83871Y58954D02*Y58574D01*
X84061Y58383D01*
X84633Y59145D02*Y58574D01*
X84823Y58383D01*
X84061D02*X84442D01*
X84633Y58574D01*
X85281Y59145D02*Y58574D01*
X85471Y58383D01*
X85662D01*
X85852Y58574D01*
Y59145D02*Y58574D01*
X86043Y58383D01*
X86233D01*
X86424Y58574D01*
Y59145D02*Y58574D01*
G54D75*X86881Y59526D02*Y59488D01*
G54D74*Y58954D02*Y58383D01*
X87452Y58954D02*Y58383D01*
Y58954D02*X87643Y59145D01*
X87833D01*
X88024Y58954D01*
Y58383D01*
X87262Y59145D02*X87452Y58954D01*
X89052Y59145D02*X89243Y58954D01*
X88671Y59145D02*X89052D01*
X88481Y58954D02*X88671Y59145D01*
X88481Y58954D02*Y58574D01*
X88671Y58383D01*
X89052D01*
X89243Y58574D01*
X88481Y58002D02*X88671Y57812D01*
X89052D01*
X89243Y58002D01*
Y59145D02*Y58002D01*
M02*
